<?xml version="1.0" encoding="UTF-8" standalone="no"?>
<!DOCTYPE svg PUBLIC "-//W3C//DTD SVG 1.1//EN" "http://www.w3.org/Graphics/SVG/1.1/DTD/svg11.dtd">
<svg width="100%" height="100%" viewBox="0 0 921 225" version="1.1" xmlns="http://www.w3.org/2000/svg" xmlns:xlink="http://www.w3.org/1999/xlink" xml:space="preserve" xmlns:serif="http://www.serif.com/" style="fill-rule:evenodd;clip-rule:evenodd;stroke-linejoin:round;stroke-miterlimit:2;">
    <g transform="matrix(1,0,0,1,-8.52651e-14,-126.791)">
        <path d="M537.91,257.46L333.32,462.05L436.76,563.19L641.35,358.6L537.91,257.46Z" style="fill:rgb(244,226,188);fill-opacity:0.5;fill-rule:nonzero;"/>
    </g>
    <g transform="matrix(1,0,0,1,-8.52651e-14,-126.791)">
        <path d="M383.89,282.75L335.62,347.11L685.03,606.87L733.3,542.51L383.89,282.75Z" style="fill:rgb(114,71,28);fill-opacity:0.5;fill-rule:nonzero;"/>
    </g>
    <g id="Artboard1" transform="matrix(1,0,0,1.12564,-0.917676,-20.0735)">
        <rect x="0.918" y="17.833" width="920.404" height="199.586" style="fill:none;"/>
        <clipPath id="_clip1">
            <rect x="0.918" y="17.833" width="920.404" height="199.586"/>
        </clipPath>
        <g clip-path="url(#_clip1)">
            <g transform="matrix(1,0,0,0.888386,0.917676,-94.8063)">
                <rect x="0" y="0" width="1289" height="354.69" style="fill:rgb(112,99,81);"/>
            </g>
            <g transform="matrix(1,0,0,0.888386,0.917676,-94.8063)">
                <path d="M524.11,110.34L108.04,324.12L289.64,675.83L705.71,462.05L524.11,110.34Z" style="fill:rgb(255,177,99);fill-opacity:0.5;fill-rule:nonzero;"/>
            </g>
            <g transform="matrix(1,0,0,0.888386,0.917676,-94.8063)">
                <path d="M29.88,128.73L533.31,156.31L540.21,-4.6L36.78,-32.18L29.88,128.73Z" style="fill:rgb(0,70,96);fill-opacity:0.5;fill-rule:nonzero;"/>
            </g>
            <g transform="matrix(1,0,0,0.888386,0.917676,-94.8063)">
                <path d="M498.83,151.72L202.29,1181.56L779.28,1347.07L1075.81,317.23L498.83,151.72Z" style="fill:rgb(228,155,107);fill-opacity:0.5;fill-rule:nonzero;"/>
            </g>
            <g transform="matrix(1,0,0,0.888386,0.917676,-94.8063)">
                <path d="M291.94,177L724.1,225.27L825.24,-650.55L393.08,-698.82L291.94,177Z" style="fill:rgb(121,119,119);fill-opacity:0.5;fill-rule:nonzero;"/>
            </g>
            <g transform="matrix(1,0,0,0.888386,0.917676,-94.8063)">
                <path d="M0,190.8L236.77,186.2L229.87,-135.62L-4.6,-131.03L0,190.8Z" style="fill:rgb(9,35,27);fill-opacity:0.5;fill-rule:nonzero;"/>
            </g>
            <g transform="matrix(1,0,0,0.888386,0.917676,-94.8063)">
                <path d="M685.03,151.72L710.32,243.67L1696.48,-22.99L1671.19,-114.94L685.03,151.72Z" style="fill:rgb(52,100,143);fill-opacity:0.5;fill-rule:nonzero;"/>
            </g>
            <g transform="matrix(1,0,0,0.888386,0.917676,-94.8063)">
                <path d="M78.16,151.72L-108.04,236.77L75.86,645.95L262.06,560.9L78.16,151.72Z" style="fill:rgb(172,92,29);fill-opacity:0.5;fill-rule:nonzero;"/>
            </g>
            <g transform="matrix(1,0,0,0.888386,0.917676,-94.8063)">
                <path d="M558.6,167.81L517.22,204.59L671.24,367.8L712.62,331.02L558.6,167.81Z" style="fill:rgb(165,53,0);fill-opacity:0.5;fill-rule:nonzero;"/>
            </g>
            <g transform="matrix(1,0,0,0.888386,0.917676,-94.8063)">
                <path d="M834.45,209.19L673.54,275.85L742.5,434.46L903.41,367.8L834.45,209.19Z" style="fill:rgb(155,153,165);fill-opacity:0.5;fill-rule:nonzero;"/>
            </g>
            <g transform="matrix(1,0,0,0.888386,0.917676,-94.8063)">
                <path d="M273.55,243.67L397.68,312.63L498.82,124.13L374.69,55.17L273.55,243.67Z" style="fill:rgb(107,118,123);fill-opacity:0.5;fill-rule:nonzero;"/>
            </g>
            <g transform="matrix(1,0,0,0.888386,0.917676,-94.8063)">
                <path d="M291.94,82.75L599.97,133.32L682.72,-363.21L374.69,-413.78L291.94,82.75Z" style="fill:rgb(41,102,126);fill-opacity:0.5;fill-rule:nonzero;"/>
            </g>
            <g transform="matrix(1,0,0,0.888386,0.917676,-94.8063)">
                <path d="M537.91,117.24L560.9,160.92L797.67,22.99L774.68,-18.39L537.91,117.24Z" style="fill:rgb(203,128,81);fill-opacity:0.5;fill-rule:nonzero;"/>
            </g>
            <g transform="matrix(1,0,0,0.888386,0.917676,-94.8063)">
                <path d="M551.7,117.24L443.66,199.99L501.13,273.55L609.17,190.8L551.7,117.24Z" style="fill:rgb(239,98,0);fill-opacity:0.5;fill-rule:nonzero;"/>
            </g>
        </g>
    </g>
</svg>
