<svg xmlns="http://www.w3.org/2000/svg" viewBox="0 0 400.00000000000006 268.0412371134021" clip-path="url(#clip)" width="920" height="616.4948453608248" style="max-height: 580.5px;"><defs><clipPath id="clip" clipPathUnits="objectBoundingBox"><rect x="0" y="0" width="400.00000000000006" height="268.0412371134021"/></clipPath></defs><rect x="0" y="0" width="400.00000000000006" height="268.0412371134021" fill="rgb(116, 107, 85)"/><filter id="g0.6"><feGaussianBlur stdDeviation="0.6"/></filter><filter id="g1"><feGaussianBlur stdDeviation="1"/></filter><filter id="g10"><feGaussianBlur stdDeviation="10"/></filter><path d="M104,110L168,316L402,242L338,36Z" fill="rgb(209, 166, 90)" fill-opacity="0.50" filter="url(#g1)"/><path d="M164,12L-35,111L7,196L206,97Z" fill="rgb(66, 57, 41)" fill-opacity="0.50"/><path d="M240,59L201,150L296,190L335,99Z" fill="rgb(247, 223, 165)" fill-opacity="0.50" filter="url(#g0.6)"/><path d="M319,224L386,237L411,115L344,102Z" fill="rgb(90, 66, 22)" fill-opacity="0.50"/><path d="M74,146L-21,467L171,523L266,202Z" fill="rgb(160, 126, 72)" fill-opacity="0.50"/><path d="M112,237L106,317L266,327L272,247Z" fill="rgb(181, 179, 179)" fill-opacity="0.50"/><path d="M9,13L72,134L274,28L211,-92Z" fill="rgb(90, 82, 62)" fill-opacity="0.50" filter="url(#g0.6)"/><path d="M183,167L25,173L27,222L185,216Z" fill="rgb(123, 81, 12)" fill-opacity="0.50"/><path d="M77,151L-80,364L-4,420L152,207Z" fill="rgb(172, 143, 92)" fill-opacity="0.50"/><path d="M185,243L334,215L328,182L179,210Z" fill="rgb(111, 77, 19)" fill-opacity="0.50"/><path d="M291,260L402,249L397,205L286,216Z" fill="rgb(142, 137, 121)" fill-opacity="0.50" filter="url(#g1)"/><path d="M328,15L293,23L316,112L351,104Z" fill="rgb(226, 207, 158)" fill-opacity="0.50"/><path d="M219,51L224,201L245,200L240,50Z" fill="rgb(235, 204, 151)" fill-opacity="0.50"/><path d="M82,106L72,136L233,187L243,157Z" fill="rgb(207, 164, 68)" fill-opacity="0.50"/><path d="M96,33L-71,86L-39,184L127,131Z" fill="rgb(97, 91, 73)" fill-opacity="0.50"/><path d="M177,227L20,243L39,421L196,405Z" fill="rgb(166, 153, 134)" fill-opacity="0.50"/><path d="M348,83L351,119L386,116L383,80Z" fill="rgb(202, 153, 36)" fill-opacity="0.50"/><path d="M257,131L239,150L267,175L285,156Z" fill="rgb(167, 117, 37)" fill-opacity="0.50"/><path d="M233,62L271,79L280,56L242,39Z" fill="rgb(53, 46, 32)" fill-opacity="0.50"/><path d="M194,121L249,125L254,63L199,59Z" fill="rgb(225, 195, 136)" fill-opacity="0.50" filter="url(#g1)"/><path d="M108,176L193,192L196,176L111,160Z" fill="rgb(52, 33, 8)" fill-opacity="0.50" filter="url(#g1)"/><path d="M319,170L457,276L671,0L533,-106Z" fill="rgb(110, 85, 40)" fill-opacity="0.50"/><path d="M312,221L237,269L359,453L434,405Z" fill="rgb(130, 123, 110)" fill-opacity="0.50"/><path d="M133,150L116,204L184,224L201,170Z" fill="rgb(108, 68, 20)" fill-opacity="0.50"/></svg>