<svg id="Layer_1" data-name="Layer 1" xmlns="http://www.w3.org/2000/svg" viewBox="0 0 680 148"><defs><style>.cls-1{fill:#cfc8c0;}.cls-2{fill:#010101;}.cls-10,.cls-11,.cls-12,.cls-13,.cls-14,.cls-15,.cls-16,.cls-2,.cls-3,.cls-4,.cls-5,.cls-6,.cls-7,.cls-8,.cls-9{fill-opacity:0.5;}.cls-3{fill:#2a3117;}.cls-4{fill:#767e46;}.cls-5{fill:#1e2a16;}.cls-6{fill:#c3d1a6;}.cls-7{fill:#51647c;}.cls-8{fill:#03858e;}.cls-9{fill:#ffe284;}.cls-10{fill:#d59164;}.cls-11{fill:#082027;}.cls-12{fill:#79613e;}.cls-13{fill:#f3c915;}.cls-14{fill:#ed2224;}.cls-15{fill:#2b99d5;}.cls-16{fill:#f2d0ad;}</style></defs><rect class="cls-1" x="-7.6" y="-151.31" width="680" height="445.95"/><path class="cls-2" d="M289.9,258.39l494.7-69.7-61.2-423.3-494.7,69.7Z"/><path class="cls-3" d="M87.6,258.39l741.2,156.4L932.5-85,191.3-239.71Z"/><path class="cls-4" d="M128.4-144.51-238.8,88.39,9.4,477.69l367.2-232.9Z"/><path class="cls-5" d="M393.6,212.49l59.5,217.6L718.3,357l-59.5-217.6Z"/><path class="cls-6" d="M102.9-52.71l-81.6,323,105.4,25.5,81.6-323Z"/><path class="cls-7" d="M153.9-91.81,138.6,22.09l561,68,15.3-113.9Z"/><path class="cls-8" d="M7.7,17,2.6,56.09,312,86.69l5.1-39.1Z"/><path class="cls-9" d="M-2.5,57.79l-20.4,81.6,202.3,51,20.4-81.6Z"/><path class="cls-10" d="M92.7-141.11-181,49.29l62.9,86.7,272-190.4Z"/><path class="cls-11" d="M572.1-95.21,827.1,357l171.7-96.9-255-450.5Z"/><path class="cls-12" d="M296.7,18.69l17,163.2,521.9-57.8-17-163.2Z"/><path class="cls-2" d="M240.6,132.59,57,363.79l62.9,49.3,183.6-231.2Z"/><path class="cls-13" d="M657.1,96.89l-365.5,15.3v13.6l365.5-15.3Z"/><path class="cls-2" d="M218.5,125.79l533.8,5.1v-6.8L218.5,119Z"/><path class="cls-14" d="M551.7,90.09l193.8,8.5V85l-193.8-8.5Z"/><path class="cls-15" d="M106.3,42.49l-1.7,17,1048.9,23.8,1.7-17Z"/><path class="cls-14" d="M546.6,74.79l-668.1,6.8,1.7,15.3,666.4-6.8Z"/><path class="cls-16" d="M26.4,18.69l122.4,35.7,18.7-62.9L45.1-44.21Z"/></svg>