<svg id="Layer_1" data-name="Layer 1" xmlns="http://www.w3.org/2000/svg" viewBox="0 0 680 459"><defs><style>.cls-1{fill:#cfc8c0;}.cls-2{fill:#010101;}.cls-10,.cls-11,.cls-12,.cls-13,.cls-14,.cls-15,.cls-16,.cls-17,.cls-18,.cls-19,.cls-2,.cls-20,.cls-21,.cls-22,.cls-23,.cls-24,.cls-25,.cls-26,.cls-27,.cls-28,.cls-29,.cls-3,.cls-4,.cls-5,.cls-6,.cls-7,.cls-8,.cls-9{fill-opacity:0.5;}.cls-3{fill:#2a3117;}.cls-4{fill:#767e46;}.cls-5{fill:#1e2a16;}.cls-6{fill:#c3d1a6;}.cls-7{fill:#51647c;}.cls-8{fill:#f6ec1b;}.cls-9{fill:#bbe0c8;}.cls-10{fill:#03858e;}.cls-11{fill:#ffe284;}.cls-12{fill:#4ab970;}.cls-13{fill:#d59164;}.cls-14{fill:#121345;}.cls-15{fill:#e2126f;}.cls-16{fill:#082027;}.cls-17{fill:#79613e;}.cls-18{fill:#f4921f;}.cls-19{fill:#f3c915;}.cls-20{fill:#6acbdb;}.cls-21{fill:#ed2224;}.cls-22{fill:#c54c27;}.cls-23{fill:#250e14;}.cls-24{fill:#055e82;}.cls-25{fill:#fdf6ab;}.cls-26{fill:#b05026;}.cls-27{fill:#f2d0ad;}.cls-28{fill:#fbf5ab;}.cls-29{fill:#f7ee57;}</style></defs><rect class="cls-1" x="-40.8" y="-14.81" width="680" height="445.95"/><path class="cls-2" d="M256.7,394.89l494.7-69.7L690.2-98.11,195.5-28.41Z"/><path class="cls-3" d="M-82.45,395.47l741.2,156.4,103.7-499.8L21.25-102.63Z"/><path class="cls-4" d="M95.2-8-272,224.89l248.2,389.3,367.2-232.9Z"/><path class="cls-2" d="M200.6,291.19,10.2,466.29l59.5,62.9,190.4-175.1Z"/><path class="cls-5" d="M360.4,349l59.5,217.6,265.2-73.1-59.5-217.6Z"/><path class="cls-6" d="M69.7,83.79l-81.6,323,105.4,25.5,81.6-323Z"/><path class="cls-7" d="M120.7,44.69l-15.3,113.9,561,68,15.3-113.9Z"/><path class="cls-8" d="M280.5,345.59l-1.7,15.3,807.5,3.4L1088,349Z"/><path class="cls-9" d="M289,354.09,96.9,605.69l159.8,119,192.1-251.6Z"/><path class="cls-10" d="M-25.5,153.49l-5.1,39.1,309.4,30.6,5.1-39.1Z"/><path class="cls-11" d="M-90.95,282.69l-20.4,81.6,202.3,51,20.4-81.6Z"/><path class="cls-12" d="M78.2,372.79l-124.1,23.8,81.6,421.6,124.1-23.8Z"/><path class="cls-13" d="M59.5-4.61l-273.7,190.4,62.9,86.7,272-190.4Z"/><path class="cls-14" d="M419.9,389.79l-1.7,37.4H678.3l1.7-37.4Z"/><path class="cls-15" d="M30.6-11.41,486.2.49v-15.3L30.6-25Z"/><path class="cls-16" d="M538.9,41.29l255,452.2,171.7-96.9-255-450.5Z"/><path class="cls-17" d="M263.5,155.19l17,163.2,521.9-57.8-17-163.2Z"/><path class="cls-2" d="M207.4,269.09,23.8,500.29l62.9,49.3,183.6-231.2Z"/><path class="cls-18" d="M142.8,43l-1.7,17L442,80.39l1.7-17Z"/><path class="cls-19" d="M783.7,397.44l-365.5,15.3v13.6L783.7,411Z"/><path class="cls-20" d="M317.9,394.89,52.7,420.39l6.8,69.7,265.2-25.5Z"/><path class="cls-2" d="M185.3,262.29l533.8,5.1v-6.8l-533.8-5.1Z"/><path class="cls-21" d="M518.5,226.59l193.8,8.5v-13.6L518.5,213Z"/><path class="cls-22" d="M499.8,3.89,884,70.19l10.2-66.3L510-60.71Z"/><path class="cls-23" d="M49.3,97.39l11.9,28.9,112.2-45.9-11.9-28.9Z"/><path class="cls-24" d="M219.3,12.39l-1.7,27.2L635.8,60l1.7-27.2Z"/><path class="cls-25" d="M93.5,17.49l78.2,18.7,17-73.1-78.2-18.7Z"/><path class="cls-26" d="M59.5,73.59l-494.7-86.7-6.8,40.8,493,86.7Z"/><path class="cls-27" d="M-6.8,155.19l122.4,35.7L134.3,128,11.9,92.29Z"/><path class="cls-28" d="M-11.9-4.61v37.4l205.7-1.7V-6.31Z"/><path class="cls-2" d="M8.5,411.89l-136,115.6L-5.1,668.59,130.9,553Z"/><path class="cls-29" d="M-35.7,400h136v-52.7h-136Z"/></svg>