<svg id="Layer_1" data-name="Layer 1" xmlns="http://www.w3.org/2000/svg" viewBox="0 0 924.5 200.98"><defs><style>.cls-1{fill:#8e94a0;}.cls-2{fill:#dfe2f6;}.cls-10,.cls-11,.cls-12,.cls-13,.cls-14,.cls-15,.cls-16,.cls-17,.cls-18,.cls-19,.cls-2,.cls-20,.cls-21,.cls-22,.cls-23,.cls-24,.cls-25,.cls-26,.cls-27,.cls-28,.cls-29,.cls-3,.cls-30,.cls-4,.cls-5,.cls-6,.cls-7,.cls-8,.cls-9{fill-opacity:0.5;}.cls-3{fill:#f0f5ff;}.cls-4{fill:#434644;}.cls-5{fill:#1f2f2a;}.cls-6{fill:#090b00;}.cls-7{fill:#eff7ff;}.cls-8{fill:#d8def9;}.cls-9{fill:#334a57;}.cls-10{fill:#0e0d02;}.cls-11{fill:#eaefff;}.cls-12{fill:#fff;}.cls-13{fill:#10120a;}.cls-14{fill:#dbe1fb;}.cls-15{fill:#374a41;}.cls-17{fill:#1d211f;}.cls-18{fill:#c9d2ee;}.cls-19{fill:#a3b1c9;}.cls-20{fill:#e9eaff;}.cls-21{fill:#142523;}.cls-22{fill:#ecf4ff;}.cls-23{fill:#111108;}.cls-24{fill:#a8b9d3;}.cls-25{fill:#d9ddf1;}.cls-26{fill:#1f1c11;}.cls-27{fill:#2a291f;}.cls-28{fill:#708189;}.cls-29{fill:#eae7fa;}.cls-30{fill:#ced3ec;}</style></defs><rect class="cls-1" width="924.5" height="200.98"/><path class="cls-2" d="M198.77,115.56,628.66,164.1,647.15-9.24,217.26-57.78Z"/><path class="cls-3" d="M305.08,39.29,205.7,127.12,559.32,515.41l99.39-87.83Z"/><path class="cls-4" d="M406.78,43.91l330.51,87.83,13.87-60.09L420.65-13.87Z"/><path class="cls-5" d="M159.48,60.09-78.58,288.91l71.65,74L228.81,134.05Z"/><path class="cls-6" d="M469.18,141,323.57,672.57,804.31,802,949.92,270.42Z"/><path class="cls-7" d="M462.25,78.58l115.56,76.27L711.86-46.22,596.3-122.5Z"/><path class="cls-8" d="M707.24,143.3l23.11,180.27,247.31-37L954.55,106.32Z"/><path class="cls-9" d="M307.4,150.23l-64.72,53.16L598.61,605.55l64.72-53.16Z"/><path class="cls-10" d="M358.24,48.54l92.45,41.6L693.37-427.58l-92.45-41.6Z"/><path class="cls-11" d="M99.38,32.36,376.73,92.45l43.92-210.32L143.3-178Z"/><path class="cls-12" d="M695.69,147.92,547.77,448.38l99.38,46.23L795.07,194.14Z"/><path class="cls-13" d="M37,166.41l-101.69,520,631,124.81L668,291.22Z"/><path class="cls-14" d="M644.84,124.81,351.31,815.87,607.86,924.5,901.39,233.44Z"/><path class="cls-15" d="M464.56,124.81l-6.93,18.49L885.21,293.53,892.14,275Z"/><path class="cls-16" d="M707.24,145.61h4.62l43.92-404.47h-4.62Z"/><path class="cls-17" d="M607.86,39.29,624,120.18,753.47,92.45,737.29,11.56Z"/><path class="cls-18" d="M416,92.45l34.67,64.71,423-228.81L839-136.36Z"/><path class="cls-19" d="M751.16,145.61l587.05,11.55,6.94-466.87L758.09-321.26Z"/><path class="cls-20" d="M258.86,69.34,245,173.34l141,13.87,13.87-104Z"/><path class="cls-21" d="M242.68,178,145.61,716.49,815.87,834.36l97.07-538.52Z"/><path class="cls-22" d="M4.62,104l-379,233.43,39.29,60.09L41.6,164.1Z"/><path class="cls-23" d="M677.2,53.16,698,67,885.21-221.88l-20.8-13.87Z"/><path class="cls-24" d="M11.56,94.76,101.69,141l171-330.51-90.14-46.23Z"/><path class="cls-25" d="M644.84,110.94l-34.67,39.29L850.54,349l34.67-39.29Z"/><path class="cls-26" d="M533.9,159.48l-64.72,41.6L691.06,517.72l64.72-41.6Z"/><path class="cls-27" d="M4.62,182.59,141,691.06l108.62-30L113.25,152.54Z"/><path class="cls-28" d="M136.36,97.07,97.07,152.54l97.07,67,39.3-55.47Z"/><path class="cls-29" d="M337.44,115.56l55.47,11.56,13.87-74L351.31,41.6Z"/><path class="cls-30" d="M483.05,55.47l53.16,76.27L806.63-57.78,753.47-134Z"/></svg>