<svg id="Layer_1" data-name="Layer 1" xmlns="http://www.w3.org/2000/svg" viewBox="0 0 659 446.97"><defs><style>.cls-1{fill:#060f42;}.cls-2{fill:#2b53da;}.cls-10,.cls-11,.cls-12,.cls-13,.cls-14,.cls-15,.cls-16,.cls-17,.cls-18,.cls-19,.cls-2,.cls-20,.cls-21,.cls-22,.cls-23,.cls-24,.cls-25,.cls-26,.cls-27,.cls-28,.cls-29,.cls-3,.cls-30,.cls-4,.cls-5,.cls-6,.cls-7,.cls-8,.cls-9{fill-opacity:0.5;}.cls-3{fill:#5f85ed;}.cls-4{fill:#091978;}.cls-5{fill:#00001b;}.cls-6{fill:#497bf5;}.cls-7{fill:#041259;}.cls-8{fill:#071565;}.cls-9{fill:#14288e;}.cls-10{fill:#3553a5;}.cls-11{fill:#00001e;}.cls-12{fill:#5261a6;}.cls-13{fill:#ffd6e5;}.cls-14{fill:#000049;}.cls-15{fill:#09135c;}.cls-16{fill:#00054b;}.cls-17{fill:#1638b1;}.cls-18{fill:#0b1f6c;}.cls-19{fill:#0a164f;}.cls-20{fill:#000340;}.cls-21{fill:#1f48b7;}.cls-22{fill:#031782;}.cls-23{fill:#1634b3;}.cls-24{fill:#051460;}.cls-25{fill:#3f8fe6;}.cls-26{fill:#3074eb;}.cls-27{fill:#6761bb;}.cls-28{fill:#050c40;}.cls-29{fill:#23428b;}.cls-30{fill:#00002a;}</style></defs><rect class="cls-1" width="659" height="446.97"/><path class="cls-2" d="M507.43,39.54,70.84,121.91,123.56,402l436.59-82.38Z"/><path class="cls-3" d="M318,84,247.13,276.78,360.8,318l70.85-192.76Z"/><path class="cls-4" d="M166.4,26.36-169.69,79.08l61,377.28,334.44-52.72Z"/><path class="cls-5" d="M332.8,67.55l286.66,80.72,97.2-341L430-273.48Z"/><path class="cls-6" d="M601.34,181.22l143.33,97.21,47.78-74.14-143.34-97.2Z"/><path class="cls-7" d="M550.27,138.39l-110.39,290,72.49,26.36,110.38-290Z"/><path class="cls-8" d="M56,89-199.35,308.08,145,708.42,400.34,489.31Z"/><path class="cls-9" d="M6.59,115.32l324.56,100.5,21.42-74.14L28,41.19Z"/><path class="cls-10" d="M285,362.45l77.43,42.83,32.95-62.6L318,299.84Z"/><path class="cls-11" d="M467.89,97.2,739.73,112l9.88-210.88L477.78-113.68Z"/><path class="cls-12" d="M100.5,57.66,23.07,54.37l-3.3,64.25,77.43,3.29Z"/><path class="cls-13" d="M304.79,212.53l31.3,54.36,44.48-26.36-31.3-54.36Z"/><path class="cls-14" d="M164.75,23.06,84,65.9l57.67,108.73,80.72-42.83Z"/><path class="cls-15" d="M42.84,237.24,0,332.79,571.68,584.86l42.84-95.55Z"/><path class="cls-16" d="M182.87,23.06,332.8,121.91,420.11-8.24,270.19-107.09Z"/><path class="cls-17" d="M220.77,125.21l-36.25,21.42L334.44,390.46,370.69,369Z"/><path class="cls-18" d="M444.83,199.35l84,75.78L635.93,156.51l-84-75.78Z"/><path class="cls-19" d="M626.05,199.35,411.88,393.75,665.59,668.88l214.17-194.4Z"/><path class="cls-20" d="M375.63,97.2l156.51,28,14.83-89-156.51-28Z"/><path class="cls-21" d="M382.22,286.66l61,6.59L463,110.38l-61-6.59Z"/><path class="cls-22" d="M192.76,115.32,44.48,128.5,62.61,316.32l148.27-13.18Z"/><path class="cls-23" d="M309.73,113.68l-151.57,84L207.59,285l151.57-84Z"/><path class="cls-24" d="M568.39,207.58l-62.61,41.19,67.55,100.5,62.6-41.19Z"/><path class="cls-25" d="M224.06,75.78l-8.24,23.07L395.4,158.16l8.24-23.07Z"/><path class="cls-26" d="M365.75,255.36v52.72l24.71-1.65V253.71Z"/><path class="cls-27" d="M286.67,202.64,266.9,220.76l59.31,57.67L346,260.3Z"/><path class="cls-28" d="M612.87,390.46,100.5,408.58l4.94,131.8,512.37-18.12Z"/><path class="cls-29" d="M454.71,112v31.3l191.11-4.94v-31.3Z"/><path class="cls-30" d="M13.18,1.65,169.69,69.19l77.44-176.28L90.61-174.63Z"/></svg>