<svg id="Layer_1" data-name="Layer 1" xmlns="http://www.w3.org/2000/svg" viewBox="0 0 783.5 192.44"><defs><style>.cls-1{fill:#8f522d;}.cls-2{fill:#00000e;}.cls-10,.cls-11,.cls-12,.cls-13,.cls-14,.cls-15,.cls-16,.cls-17,.cls-18,.cls-19,.cls-2,.cls-20,.cls-21,.cls-22,.cls-23,.cls-3,.cls-4,.cls-5,.cls-6,.cls-7,.cls-8,.cls-9{fill-opacity:0.5;}.cls-4{fill:#ff8436;}.cls-5{fill:#ff873a;}.cls-6{fill:#807669;}.cls-7{fill:#ff751d;}.cls-8{fill:#64655f;}.cls-9{fill:#f36c23;}.cls-10{fill:#000001;}.cls-11{fill:#f26e23;}.cls-12{fill:#e17533;}.cls-13{fill:#2c3539;}.cls-14{fill:#766353;}.cls-15{fill:#ec6a21;}.cls-16{fill:#454f53;}.cls-17{fill:#956b4d;}.cls-18{fill:#52504c;}.cls-19{fill:#ca7239;}.cls-20{fill:#465253;}.cls-21{fill:#152327;}.cls-22{fill:#444341;}.cls-23{fill:#dd6927;}</style></defs><rect class="cls-1" width="783.5" height="192.44"/><path class="cls-2" d="M133.2,148.87,487.73,315.36,615.05,45.05,260.51-119.48Z"/><path class="cls-3" d="M289.9,64.64,362.37,237l201.75-88.14L491.65-21.55Z"/><path class="cls-4" d="M603.3,35.26,711,244.84,1153.7,15.67,1046-192Z"/><path class="cls-5" d="M97.94,23.51-127.32,184.12l239,331L336.91,354.53Z"/><path class="cls-3" d="M254.64,143,476,211.55l144.94-474L399.59-331Z"/><path class="cls-6" d="M231.13,19.59,119.48,23.51l35.26,673.81,111.65-3.92Z"/><path class="cls-7" d="M92.06,25.46-366.29-180.21-617,383.92l458.35,205.66Z"/><path class="cls-8" d="M528.86,94l84.23,203.71,111.65-49L640.51,45.05Z"/><path class="cls-9" d="M103.81,2l-695.35-33.3-9.8,244.84,693.4,33.3Z"/><path class="cls-10" d="M272.27,168.45,476,248.76,546.49,64.64,342.78-13.71Z"/><path class="cls-11" d="M742.37,49,521,333l289.89,223.3,221.34-284Z"/><path class="cls-12" d="M49,68.56l97.94,7.83L160.62-92.06,62.68-99.9Z"/><path class="cls-13" d="M526.9,9.79,487.73,21.55l60.72,176.28,39.18-11.75Z"/><path class="cls-14" d="M542.57,25.46,603.3,325.15l111.64-25.46L654.22,0Z"/><path class="cls-15" d="M707.11,168.45l154.74-15.67L844.22-19.59,689.48-3.92Z"/><path class="cls-16" d="M511.23,45.05l96-25.46L591.54-31.34l-96,25.46Z"/><path class="cls-17" d="M88.14,162.58,152.78,190,280.1-99.9l-64.64-27.42Z"/><path class="cls-18" d="M233.09,43.09,152.78,66.6l72.48,240.92L305.57,284Z"/><path class="cls-19" d="M632.68,137.11,664,205.67l62.68-31.34-31.34-68.56Z"/><path class="cls-20" d="M203.71,29.38l41.13,41.14L358.45-43.09,317.32-84.23Z"/><path class="cls-21" d="M250.72,11.75l15.67,385.88,41.13-2L291.85,9.79Z"/><path class="cls-22" d="M570,86.19,497.52,205.67l49,27.42L619,113.61Z"/><path class="cls-23" d="M31.34,39.18-76.39,123.4,143,397.63,250.72,313.4Z"/><path class="cls-3" d="M405.46,49,293.81,186.08l92.06,72.48L497.52,121.44Z"/></svg>