<svg id="Layer_1" data-name="Layer 1" xmlns="http://www.w3.org/2000/svg" xmlns:xlink="http://www.w3.org/1999/xlink" viewBox="0 0 690.5 147"><defs><style>.cls-1{fill:#9d1524;}.cls-2{filter:url(#g10);}.cls-3{fill:#000b00;}.cls-10,.cls-11,.cls-13,.cls-15,.cls-16,.cls-17,.cls-18,.cls-19,.cls-21,.cls-22,.cls-23,.cls-25,.cls-27,.cls-3,.cls-30,.cls-32,.cls-36,.cls-37,.cls-38,.cls-5,.cls-6,.cls-8,.cls-9{opacity:0.5;}.cls-4{filter:url(#g1);}.cls-5{fill:#610816;}.cls-6{fill:#5f0a0a;}.cls-7{fill:#360b06;}.cls-12,.cls-14,.cls-20,.cls-24,.cls-26,.cls-28,.cls-31,.cls-33,.cls-34,.cls-35,.cls-7{fill-opacity:0.5;}.cls-8{fill:#b0021a;}.cls-9{fill:#300000;}.cls-10{fill:#450910;}.cls-11{fill:#ba2133;}.cls-12{fill:#4d0808;}.cls-13{fill:#c01227;}.cls-14{fill:#c70e30;}.cls-15{fill:#340000;}.cls-16{fill:#dc2238;}.cls-17{fill:#d9535c;}.cls-18{fill:#430804;}.cls-19{fill:#c12135;}.cls-20{fill:#db354e;}.cls-21{fill:#cd3e56;}.cls-22{fill:#1c0000;}.cls-23{fill:#fc5c78;}.cls-24{fill:#73170f;}.cls-25{fill:#ff214e;}.cls-26{fill:#110300;}.cls-27{fill:#e54962;}.cls-28{fill:#200901;}.cls-29{filter:url(#g0.6);}.cls-30{fill:#ad3445;}.cls-31{fill:#cb0005;}.cls-32{fill:#480303;}.cls-33{fill:#481615;}.cls-34{fill:#1d0000;}.cls-35{fill:#cb0c24;}.cls-36{fill:#1a0000;}.cls-37{fill:#c60417;}.cls-38{fill:#ba0d2c;}</style><filter id="g10" name="g10"><feGaussianBlur stdDeviation="10"/></filter><filter id="g1" name="g1"><feGaussianBlur stdDeviation="1"/></filter><filter id="g0.6" name="g0.6"><feGaussianBlur stdDeviation="0.6"/></filter></defs><rect class="cls-1" width="690.5" height="147"/><g class="cls-2"><polygon class="cls-3" points="25.89 72.5 112.21 75.95 117.39 -81.13 31.07 -84.59 25.89 72.5"/></g><g class="cls-4"><polygon class="cls-5" points="426.38 63.87 611.09 327.99 927 105.3 742.29 -157.09 426.38 63.87"/></g><g class="cls-2"><polygon class="cls-6" points="388.41 0 117.39 82.86 127.74 115.66 398.76 32.8 388.41 0"/></g><path class="cls-7" d="M250.31,55.24,176.08,385l34.52,6.91L284.83,62.15Z"/><g class="cls-4"><polygon class="cls-8" points="271.02 3.45 258.94 50.06 454 100.12 466.09 53.51 271.02 3.45"/></g><g class="cls-2"><rect class="cls-9" x="164.65" y="234.77" width="444.05" height="29.35" transform="translate(-15.33 473.34) rotate(-61.94)"/></g><g class="cls-2"><polygon class="cls-10" points="31.07 48.34 -18.99 72.5 18.99 150.18 69.05 126.02 31.07 48.34"/></g><g class="cls-4"><polygon class="cls-11" points="88.04 62.15 44.88 208.88 367.69 302.09 410.85 155.36 88.04 62.15"/></g><path class="cls-12" d="M516.15,0,274.47,367.69l67.33,43.16L583.47,43.16Z"/><g class="cls-2"><polygon class="cls-13" points="567.94 81.13 169.17 108.75 170.9 134.65 569.66 107.03 567.94 81.13"/></g><path class="cls-14" d="M567.94,8.63l243.4,34.53,55.24-386.68L623.18-378Z"/><g class="cls-4"><polygon class="cls-15" points="384.95 37.98 321.08 72.5 341.8 112.21 405.67 77.68 384.95 37.98"/></g><g class="cls-2"><polygon class="cls-16" points="605.91 77.68 826.87 81.13 826.87 65.6 605.91 62.15 605.91 77.68"/></g><g class="cls-4"><polygon class="cls-17" points="74.23 13.81 165.72 50.06 222.69 -94.94 131.19 -131.19 74.23 13.81"/></g><g class="cls-2"><polygon class="cls-18" points="281.38 31.07 236.5 27.62 229.59 198.52 274.47 201.97 281.38 31.07"/></g><g class="cls-4"><polygon class="cls-19" points="295.19 81.13 138.1 188.16 236.5 334.89 393.58 227.87 295.19 81.13"/></g><path class="cls-20" d="M536.86,19V36.25L642.17,32.8V15.54Z"/><g class="cls-2"><polygon class="cls-21" points="538.59 120.84 379.77 643.89 581.75 704.31 740.56 181.26 538.59 120.84"/></g><g class="cls-4"><polygon class="cls-22" points="486.8 55.24 490.25 79.41 889.02 20.71 885.57 -1.73 486.8 55.24"/></g><g class="cls-2"><polygon class="cls-23" points="673.24 117.39 750.92 372.87 845.86 341.8 768.18 86.31 673.24 117.39"/></g><path class="cls-24" d="M134.65,101.85-19,567.94l227.87,74.23L362.51,176.08Z"/><g class="cls-4"><polygon class="cls-25" points="459.18 55.24 346.98 179.53 359.06 191.61 471.27 67.32 459.18 55.24"/></g><path class="cls-26" d="M661.15,46.61,826.87,207.15,851,181.26,685.32,20.72Z"/><g class="cls-4"><polygon class="cls-27" points="298.64 69.05 20.71 305.55 27.62 312.45 305.55 75.95 298.64 69.05"/></g><path class="cls-28" d="M1.73,43.16l19,46.61,107-44.89L108.75,0Z"/><g class="cls-29"><polygon class="cls-30" points="18.99 41.43 0 37.98 -15.54 136.37 1.73 139.83 18.99 41.43"/></g><path class="cls-31" d="M196.79,31.07l134.65-3.45-5.18-208.88L191.61-177.8Z"/><g class="cls-29"><polygon class="cls-32" points="214.06 119.11 231.32 124.29 288.28 -56.97 271.02 -62.15 214.06 119.11"/></g><path class="cls-33" d="M493.71,25.89,650.8,309l15.53-8.63L509.24,17.26Z"/><path class="cls-34" d="M578.29,12.08,592.1,19,728.48-252l-13.81-6.91Z"/><path class="cls-35" d="M286.56,48.34,257.21,233l44.88,5.18L331.44,53.51Z"/><g class="cls-29"><polygon class="cls-36" points="134.65 91.49 120.84 98.4 179.53 201.97 193.34 195.07 134.65 91.49"/></g><g class="cls-29"><polygon class="cls-37" points="181.26 124.29 -122.56 167.45 -74.23 486.8 227.87 443.65 181.26 124.29"/></g><g class="cls-29"><polygon class="cls-38" points="588.65 77.68 612.82 89.77 833.78 -324.54 809.61 -336.62 588.65 77.68"/></g></svg>