<svg id="Layer_1" data-name="Layer 1" xmlns="http://www.w3.org/2000/svg" viewBox="0 0 720 490.43"><defs><style>.cls-1{fill:#495364;}.cls-2{fill:#b2b2cb;}.cls-10,.cls-11,.cls-12,.cls-13,.cls-14,.cls-15,.cls-16,.cls-17,.cls-18,.cls-19,.cls-2,.cls-20,.cls-21,.cls-22,.cls-23,.cls-24,.cls-25,.cls-26,.cls-27,.cls-28,.cls-29,.cls-3,.cls-4,.cls-5,.cls-6,.cls-7,.cls-8,.cls-9{fill-opacity:0.5;}.cls-3{fill:#9eacca;}.cls-4{fill:#000507;}.cls-5{fill:#bcc0dc;}.cls-6{fill:#35516a;}.cls-7{fill:#7e859a;}.cls-8{fill:#d3d8ef;}.cls-9{fill:#526072;}.cls-10{fill:#0c0e0d;}.cls-11{fill:#55525d;}.cls-12{fill:#a8b5dd;}.cls-13{fill:#565764;}.cls-14{fill:#919cb9;}.cls-16{fill:#170000;}.cls-17{fill:#576e84;}.cls-18{fill:#556b7f;}.cls-19{fill:#bbbeca;}.cls-20{fill:#213547;}.cls-21{fill:#959cb7;}.cls-22{fill:#4f607c;}.cls-23{fill:#dee9ff;}.cls-24{fill:#37464e;}.cls-25{fill:#564e5b;}.cls-26{fill:#abb4cd;}.cls-27{fill:#5f7792;}.cls-28{fill:#374459;}.cls-29{fill:#65493c;}</style></defs><rect class="cls-1" width="720" height="490.43"/><path class="cls-2" d="M387,372.6,804.6,527.4l135-367.2L522,5.4Z"/><path class="cls-3" d="M28.8,149.4l381.6,108L471.6,36,90-70.2Z"/><path class="cls-4" d="M12.6,304.2l-9,232.2,243,7.2,9-232.2Z"/><path class="cls-5" d="M237.6,144,387,129.6,338.4-390.6,189-376.2Z"/><path class="cls-6" d="M145.8,12.6l-498.6,243,129.6,261,496.8-243Z"/><path class="cls-7" d="M399.6,435.6,702,505.8,797.4,86.4,495,16.2Z"/><path class="cls-8" d="M482.4,59.4l118.8,36L716.4-277.2l-118.8-36Z"/><path class="cls-9" d="M484.2,405,644.4,601.2,802.8,469.8,642.6,273.6Z"/><path class="cls-10" d="M149.4,392.4,25.2,783,365.4,891,489.6,500.4Z"/><path class="cls-11" d="M507.6,7.2l297,86.4L936-360,639-446.4Z"/><path class="cls-12" d="M354.6,171,423,318.6l50.4-25.2L405,145.8Z"/><path class="cls-13" d="M559.8,3.6,714.6,151.2,874.8-18,720-165.6Z"/><path class="cls-14" d="M392.4,235.8l27,133.2L928.8,262.8l-27-133.2Z"/><path class="cls-15" d="M176.4,333l-45,127.8,61.2,21.6,45-127.8Z"/><path class="cls-16" d="M482.4,145.8,459,196.2,527.4,225l23.4-50.4Z"/><path class="cls-17" d="M84.6,140.4l37.8,176.4,223.2-50.4L307.8,90Z"/><path class="cls-18" d="M90,315l9,151.2,45-3.6-9-151.2Z"/><path class="cls-19" d="M664.2,174.6l-37.8,66.6,331.2,180,37.8-66.6Z"/><path class="cls-20" d="M45,226.8l-115.2,27L55.8,765,171,738Z"/><path class="cls-21" d="M574.2,106.2,432,439.2l32.4,12.6,142.2-333Z"/><path class="cls-22" d="M464.4,181.8l-210.6,261,95.4,75.6,210.6-261Z"/><path class="cls-15" d="M320.4,469.8,306,637.2l183.6,12.6L504,482.4Z"/><path class="cls-23" d="M550.8,1.8,513,46.8l79.2,64.8,37.8-45Z"/><path class="cls-24" d="M304.2,253.8l-113.4,63L293.4,498.6l113.4-63Z"/><path class="cls-25" d="M343.8,0V34.2l252-12.6V-10.8Z"/><path class="cls-26" d="M216,127.8,397.8,153l12.6-95.4L228.6,32.4Z"/><path class="cls-27" d="M514.8,424.8,482.4,554.4,927,657l32.4-129.6Z"/><path class="cls-28" d="M172.8,28.8-126,178.2l25.2,45,297-149.4Z"/><path class="cls-29" d="M430.2,75.6,417.6,181.8,565.2,198,577.8,91.8Z"/></svg>