<?xml version="1.0" encoding="UTF-8"?><svg id="Layer_1" xmlns="http://www.w3.org/2000/svg" viewBox="0 0 919.5 354.69"><defs><style>.cls-1{fill:#706351;}.cls-2{fill:rgba(0,70,96,.5);}.cls-3{fill:rgba(244,226,188,.5);}.cls-4{fill:rgba(228,155,107,.5);}.cls-5{fill:rgba(239,98,0,.5);}.cls-6{fill:rgba(255,177,99,.5);}.cls-7{fill:rgba(107,118,123,.5);}.cls-8{fill:rgba(172,92,29,.5);}.cls-9{fill:rgba(165,53,0,.5);}.cls-10{fill:rgba(203,128,81,.5);}.cls-11{fill:rgba(9,35,27,.5);}.cls-12{fill:rgba(114,71,28,.5);}.cls-13{fill:rgba(155,153,165,.5);}.cls-14{fill:rgba(41,102,126,.5);}.cls-15{fill:rgba(52,100,143,.5);}.cls-16{fill:rgba(121,119,119,.5);}</style></defs><rect class="cls-1" width="1289" height="354.69"/><path class="cls-6" d="M524.11,110.34L108.04,324.12l181.6,351.71,416.07-213.78L524.11,110.34Z"/><path class="cls-2" d="M29.88,128.73l503.43,27.58,6.9-160.91L36.78-32.18l-6.9,160.91Z"/><path class="cls-4" d="M498.83,151.72L202.29,1181.56l576.99,165.51L1075.81,317.23,498.83,151.72Z"/><path class="cls-16" d="M291.94,177l432.16,48.27,101.14-875.82-432.16-48.27L291.94,177Z"/><path class="cls-11" d="M0,190.8l236.77-4.6-6.9-321.82L-4.6-131.03,0,190.8Z"/><path class="cls-15" d="M685.03,151.72l25.29,91.95L1696.48-22.99l-25.29-91.95L685.03,151.72Z"/><path class="cls-8" d="M78.16,151.72L-108.04,236.77,75.86,645.95l186.2-85.05L78.16,151.72Z"/><path class="cls-9" d="M558.6,167.81l-41.38,36.78,154.02,163.21,41.38-36.78-154.02-163.21Z"/><path class="cls-13" d="M834.45,209.19l-160.91,66.66,68.96,158.61,160.91-66.66-68.96-158.61Z"/><path class="cls-7" d="M273.55,243.67l124.13,68.96,101.14-188.5-124.13-68.96-101.14,188.5Z"/><path class="cls-3" d="M537.91,257.46l-204.59,204.59,103.44,101.14,204.59-204.59-103.44-101.14Z"/><path class="cls-14" d="M291.94,82.75l308.03,50.57,82.75-496.53-308.03-50.57L291.94,82.75Z"/><path class="cls-10" d="M537.91,117.24l22.99,43.68L797.67,22.99l-22.99-41.38-236.77,135.63Z"/><path class="cls-5" d="M551.7,117.24l-108.04,82.75,57.47,73.56,108.04-82.75-57.47-73.56Z"/><path class="cls-12" d="M383.89,282.75l-48.27,64.36,349.41,259.76,48.27-64.36L383.89,282.75Z"/></svg>