<svg xmlns="http://www.w3.org/2000/svg" viewBox="0 0 395 288" clip-path="url(#clip)" width="919.5" height="670.4202531645569" style="max-height: 555.5px;"><defs><clipPath id="clip" clipPathUnits="objectBoundingBox"><rect x="0" y="0" width="395" height="288"/></clipPath></defs><rect x="0" y="0" width="395" height="288" fill="rgb(145, 121, 100)"/><filter id="g0.6"><feGaussianBlur stdDeviation="0.6"/></filter><filter id="g1"><feGaussianBlur stdDeviation="1"/></filter><filter id="g10"><feGaussianBlur stdDeviation="10"/></filter><path d="M74,124L-76,358L113,478L263,244Z" fill="rgb(255, 125, 11)" fill-opacity="0.50" filter="url(#g1)"/><path d="M281,220L487,192L477,119L271,147Z" fill="rgb(14, 79, 134)" fill-opacity="0.50" filter="url(#g10)"/><path d="M26,56L154,100L202,-43L74,-87Z" fill="rgb(6, 106, 148)" fill-opacity="0.50" filter="url(#g10)"/><path d="M232,191L186,415L503,480L549,256Z" fill="rgb(205, 165, 155)" fill-opacity="0.50" filter="url(#g1)"/><path d="M40,115L-171,230L-32,485L178,370Z" fill="rgb(254, 166, 65)" fill-opacity="0.50" filter="url(#g1)"/><path d="M262,76L309,143L532,-11L485,-78Z" fill="rgb(82, 61, 77)" fill-opacity="0.50"/><path d="M48,127L194,327L252,284L106,84Z" fill="rgb(188, 73, 6)" fill-opacity="0.50"/><path d="M12,7L-20,49L64,112L96,70Z" fill="rgb(0, 98, 145)" fill-opacity="0.50"/><path d="M90,221L19,306L101,372L172,287Z" fill="rgb(226, 210, 187)" fill-opacity="0.50" filter="url(#g1)"/><path d="M161,48L114,79L199,204L246,173Z" fill="rgb(45, 96, 133)" fill-opacity="0.50" filter="url(#g1)"/><path d="M120,152L107,226L131,229L144,155Z" fill="rgb(81, 30, 2)" fill-opacity="0.50"/><path d="M4,45L-154,197L-95,257L62,105Z" fill="rgb(68, 116, 132)" fill-opacity="0.50"/><path d="M84,143L-144,178L-130,263L97,228Z" fill="rgb(222, 115, 8)" fill-opacity="0.50"/><path d="M118,196L103,212L210,306L225,290Z" fill="rgb(110, 39, 0)" fill-opacity="0.50"/><path d="M188,51L368,24L334,-202L154,-175Z" fill="rgb(203, 117, 64)" fill-opacity="0.50"/></svg>