<svg xmlns="http://www.w3.org/2000/svg" viewBox="0 0 350 250" clip-path="url(#clip)" width="616.5" height="440.35714285714283" style="max-height: 342.5px;"><defs><clipPath id="clip" clipPathUnits="objectBoundingBox"><rect x="0" y="0" width="350" height="250"/></clipPath></defs><rect x="0" y="0" width="350" height="250" fill="rgb(100, 120, 145)"/><filter id="g0.6"><feGaussianBlur stdDeviation="0.6"/></filter><filter id="g1"><feGaussianBlur stdDeviation="1"/></filter><filter id="g10"><feGaussianBlur stdDeviation="10"/></filter><path d="M150,23L-10,238L201,394L361,179Z" fill="rgb(199, 146, 84)" fill-opacity="0.50" filter="url(#g1)"/><path d="M121,18L-73,108L1,268L195,178Z" fill="rgb(179, 155, 127)" fill-opacity="0.50" filter="url(#g10)"/><path d="M263,249L463,423L545,327L345,153Z" fill="rgb(91, 65, 38)" fill-opacity="0.50"/><path d="M82,53L290,96L295,71L87,28Z" fill="rgb(109, 64, 23)" fill-opacity="0.50"/><path d="M160,195L189,319L217,312L188,188Z" fill="rgb(0, 0, 0)" fill-opacity="0.50" filter="url(#g10)"/><path d="M100,26L376,51L392,-120L116,-145Z" fill="rgb(56, 117, 195)" fill-opacity="0.50" filter="url(#g10)"/><path d="M197,88L195,123L315,126L317,91Z" fill="rgb(228, 203, 170)" fill-opacity="0.50" filter="url(#g10)"/><path d="M137,118L17,145L25,181L145,154Z" fill="rgb(99, 72, 52)" fill-opacity="0.50"/><path d="M15,211L43,239L184,93L156,65Z" fill="rgb(190, 179, 162)" fill-opacity="0.50" filter="url(#g1)"/><path d="M81,53L29,78L50,120L102,95Z" fill="rgb(227, 192, 149)" fill-opacity="0.50" filter="url(#g1)"/><path d="M141,151L70,236L84,247L155,162Z" fill="rgb(73, 58, 45)" fill-opacity="0.50" filter="url(#g10)"/><path d="M111,157L130,474L143,473L124,156Z" fill="rgb(252, 232, 202)" fill-opacity="0.50" filter="url(#g10)"/><path d="M85,68L116,73L120,45L89,40Z" fill="rgb(6, 0, 0)" fill-opacity="0.50" filter="url(#g10)"/><path d="M73,213L-173,216L-172,281L73,278Z" fill="rgb(217, 201, 175)" fill-opacity="0.50"/><path d="M294,102L375,161L472,25L391,-33Z" fill="rgb(81, 148, 223)" fill-opacity="0.50"/><path d="M310,148L289,148L308,550L329,550Z" fill="rgb(181, 161, 136)" fill-opacity="0.50"/><path d="M229,209L327,191L317,133L219,151Z" fill="rgb(110, 85, 62)" fill-opacity="0.50" filter="url(#g10)"/><path d="M73,50L300,80L304,43L77,13Z" fill="rgb(150, 119, 90)" fill-opacity="0.50"/><path d="M15,38L-174,81L-160,142L28,99Z" fill="rgb(30, 119, 230)" fill-opacity="0.50"/><path d="M154,189L185,194L201,87L170,82Z" fill="rgb(168, 179, 189)" fill-opacity="0.50" filter="url(#g1)"/><path d="M84,203L141,251L173,211L116,163Z" fill="rgb(201, 178, 148)" fill-opacity="0.50" filter="url(#g1)"/><path d="M97,131L86,163L149,183L160,151Z" fill="rgb(81, 56, 42)" fill-opacity="0.50"/><path d="M286,143L315,299L326,296L297,140Z" fill="rgb(219, 204, 179)" fill-opacity="0.50"/><path d="M211,69L198,79L211,96L224,86Z" fill="rgb(242, 228, 207)" fill-opacity="0.50" filter="url(#g1)"/></svg>