<svg id="Layer_1" data-name="Layer 1" xmlns="http://www.w3.org/2000/svg" viewBox="0 0 611 328.58"><defs><style>.cls-1{fill:#a2bfd0;}.cls-1,.cls-10,.cls-11,.cls-12,.cls-13,.cls-14,.cls-15,.cls-16,.cls-17,.cls-18,.cls-19,.cls-2,.cls-20,.cls-3,.cls-4,.cls-5,.cls-6,.cls-7,.cls-8,.cls-9{fill-opacity:0.5;}.cls-2{fill:#fff;}.cls-3{fill:#bed2de;}.cls-4{fill:#d3dfe8;}.cls-5{fill:#bdd2de;}.cls-6{fill:#e6ecf1;}.cls-7{fill:#e4ebf1;}.cls-8{fill:#d4e0e9;}.cls-9{fill:#fffffe;}.cls-10{fill:#dbe5ed;}.cls-11{fill:#c4d5e1;}.cls-12{fill:#b8cfdb;}.cls-13{fill:#f6f8f9;}.cls-14{fill:#ccdae4;}.cls-15{fill:#f9fafa;}.cls-16{fill:#fafafb;}.cls-17{fill:#fefdfd;}.cls-18{fill:#dae4ec;}.cls-19{fill:#d1dee7;}.cls-20{fill:#ebf1f4;}</style></defs><path class="cls-1" d="M142.06,12.22,146.64,333l336.05-7.63L478.11,4.58Z"/><path class="cls-2" d="M569.76,35.13l-61.1,346.74,96.23,15.28L666,50.41Z"/><path class="cls-3" d="M213.85,61.1,84,195.52,270.37,371.18,400.21,236.76Z"/><path class="cls-2" d="M77.9,76.37-1.53,74.85-3,621.69l77.9,1.53Z"/><path class="cls-4" d="M355.91,19.86l113,245.92,99.29-47.35L455.2-26Z"/><path class="cls-5" d="M105.4,100.81l26,168,326.88-53.46-26-168Z"/><path class="cls-6" d="M116.09,189.41-84,450.61,194,666,394.1,404.79Z"/><path class="cls-7" d="M494.91,227.6,323.83,365.07,366.6,417,537.68,279.53Z"/><path class="cls-8" d="M90.12,81l76.38,70.26,180.24-197-76.37-70.27Z"/><path class="cls-2" d="M508.66,50.41,666,129.84,783.61-106.92,626.27-186.35Z"/><path class="cls-9" d="M26,250.51,0,534.62l81,7.64,26-284.11Z"/><path class="cls-2" d="M3.06,47.35,68.74,88.59,275-245.93l-65.68-41.24Z"/><path class="cls-10" d="M55,238.29l74.85,22.91,110-348.27L165-110Z"/><path class="cls-11" d="M207.74,21.38l110,82.49,113-149.69-110-82.49Z"/><path class="cls-12" d="M204.69,94.7l71.79,190.94,142.06-55L346.74,39.71Z"/><path class="cls-13" d="M424.65,4.58l386.45,304,50.41-65.68L475.05-59.57Z"/><path class="cls-14" d="M102.34,76.37,210.8,372.71l59.57-22.91L161.92,53.46Z"/><path class="cls-15" d="M551.43,18.33,476.58,595.72l119.14,13.75L670.57,32.08Z"/><path class="cls-16" d="M35.13,157.33l-105.39,55L154.28,630.86l105.4-55Z"/><path class="cls-17" d="M35.13,3.05-7.64,4.58,3.06,168l42.77-1.52Z"/><path class="cls-8" d="M462.83,116.09,394.1,383.4l64.15,15.28L527,131.36Z"/><path class="cls-18" d="M389.51,59.57l106.93,56.52L530,48.88l-106.92-55Z"/><path class="cls-19" d="M473.53,261.2,178.72,336.05l7.64,33.6,294.8-74.84Z"/><path class="cls-20" d="M427.7,300.92,368.13,571.28l207.74,45.83,59.57-270.37Z"/></svg>