<svg id="Layer_1" data-name="Layer 1" xmlns="http://www.w3.org/2000/svg" viewBox="0 0 592.41 319.24"><defs><style>.cls-1{fill:#a8a8aa;fill-opacity:0.2;}.cls-1,.cls-10,.cls-2,.cls-4,.cls-5,.cls-6,.cls-8,.cls-9{fill-rule:evenodd;}.cls-2{fill:#595959;}.cls-3{fill:#fff;}.cls-4{fill:#212121;}.cls-5,.cls-8,.cls-9{fill:#74a4bc;}.cls-10,.cls-6{fill:#ffab40;}.cls-7{fill:none;stroke-linejoin:round;}.cls-7,.cls-8{stroke:#74a4bc;stroke-width:2px;}.cls-8{stroke-miterlimit:10;}.cls-9{fill-opacity:0.65;}.cls-10{fill-opacity:0.56;}</style></defs><path class="cls-1" d="M0,0H592.41V232.06H0Z"/><path class="cls-2" d="M19.41,79.25H575.28v70.93H19.41Z"/><path class="cls-3" d="M219,101.9h1.25v11.25H225v1.21h-6Zm8.22-.54a.93.93,0,0,1,.69.29,1,1,0,0,1-.69,1.66.94.94,0,0,1-.68-.28,1,1,0,0,1,0-1.38A1,1,0,0,1,227.22,101.36Zm-.59,3.79h1.19v9.21h-1.19Zm3.64,0h1.19v1.64a5,5,0,0,1,1.58-1.4,3.87,3.87,0,0,1,1.87-.47,3.25,3.25,0,0,1,1.83.53,3,3,0,0,1,1.19,1.41,7.56,7.56,0,0,1,.37,2.76v4.74h-1.17V110a10.42,10.42,0,0,0-.14-2.13,2.22,2.22,0,0,0-.8-1.36,2.33,2.33,0,0,0-1.51-.47,2.94,2.94,0,0,0-1.94.72,3.31,3.31,0,0,0-1.11,1.75,12.42,12.42,0,0,0-.17,2.5v3.38h-1.19Zm18.32,6.16,1,.52a5.41,5.41,0,0,1-1.13,1.56,4.36,4.36,0,0,1-1.45.9,5.09,5.09,0,0,1-1.81.3,4.43,4.43,0,0,1-3.53-1.47,5.05,5.05,0,0,1-.19-6.47,4.41,4.41,0,0,1,3.64-1.73,4.56,4.56,0,0,1,3.77,1.78,5,5,0,0,1,1,3.14h-8.28a3.77,3.77,0,0,0,1,2.64,3.26,3.26,0,0,0,2.45,1,3.72,3.72,0,0,0,1.36-.25,3.51,3.51,0,0,0,1.14-.65A5.43,5.43,0,0,0,248.59,111.31Zm0-2.48a3.9,3.9,0,0,0-.69-1.52,3.19,3.19,0,0,0-1.2-.91,3.49,3.49,0,0,0-1.55-.36,3.4,3.4,0,0,0-2.33.88,4,4,0,0,0-1.07,1.91Zm12.68-3.68v9.21h-1.15v-1.58a5.13,5.13,0,0,1-1.69,1.36,4.69,4.69,0,0,1-5.36-1,4.74,4.74,0,0,1-1.37-3.45,4.64,4.64,0,0,1,1.39-3.39,4.53,4.53,0,0,1,3.36-1.42,4.27,4.27,0,0,1,2,.48,4.61,4.61,0,0,1,1.63,1.44v-1.69Zm-4.73.91a3.63,3.63,0,0,0-1.83.48,3.75,3.75,0,0,0-1.33,1.38,3.71,3.71,0,0,0-.5,1.86,3.82,3.82,0,0,0,.5,1.86,3.7,3.7,0,0,0,1.35,1.37,3.41,3.41,0,0,0,1.81.5,3.77,3.77,0,0,0,1.84-.48,3.59,3.59,0,0,0,1.35-1.33,3.84,3.84,0,0,0,.47-1.89,3.63,3.63,0,0,0-1.07-2.67A3.46,3.46,0,0,0,256.54,106.06Zm15.34-.91h1.18v7.33a9.41,9.41,0,0,1-.32,2.85,3.77,3.77,0,0,1-1.63,2,5.3,5.3,0,0,1-2.77.69,6.28,6.28,0,0,1-2.14-.35,4.23,4.23,0,0,1-1.53-.89,5.67,5.67,0,0,1-1.08-1.64h1.29a3.37,3.37,0,0,0,1.36,1.34,4.92,4.92,0,0,0,4.09,0,2.8,2.8,0,0,0,1.19-1.14,5,5,0,0,0,.36-2.2v-.47a4.57,4.57,0,0,1-1.64,1.29,4.63,4.63,0,0,1-2.05.46,4.8,4.8,0,0,1-2.39-.63,4.56,4.56,0,0,1-2.33-4,4.67,4.67,0,0,1,2.39-4.12,4.68,4.68,0,0,1,2.36-.64,4.51,4.51,0,0,1,1.94.42,5.3,5.3,0,0,1,1.72,1.41Zm-3.5.91a3.84,3.84,0,0,0-1.88.48,3.48,3.48,0,0,0-1.34,1.35,3.64,3.64,0,0,0-.49,1.86,3.41,3.41,0,0,0,1,2.51,3.63,3.63,0,0,0,2.64,1,3.58,3.58,0,0,0,2.63-1,3.43,3.43,0,0,0,1-2.58,3.66,3.66,0,0,0-.47-1.85,3.13,3.13,0,0,0-1.3-1.3A3.6,3.6,0,0,0,268.38,106.06Zm15,5.25,1,.52a5.6,5.6,0,0,1-1.13,1.56,4.36,4.36,0,0,1-1.45.9,5.13,5.13,0,0,1-1.81.3,4.43,4.43,0,0,1-3.53-1.47,5.05,5.05,0,0,1-.19-6.47,4.39,4.39,0,0,1,3.64-1.73,4.53,4.53,0,0,1,3.76,1.78,5,5,0,0,1,1,3.14h-8.28a3.81,3.81,0,0,0,1,2.64,3.29,3.29,0,0,0,2.46,1,3.72,3.72,0,0,0,1.36-.25,3.61,3.61,0,0,0,1.14-.65A5.7,5.7,0,0,0,283.35,111.31Zm0-2.48a3.9,3.9,0,0,0-.69-1.52,3.19,3.19,0,0,0-1.2-.91,3.49,3.49,0,0,0-1.55-.36,3.38,3.38,0,0,0-2.33.88,3.91,3.91,0,0,0-1.08,1.91Zm8.57-6.93h2.49a14.18,14.18,0,0,1,2.81.18,3.23,3.23,0,0,1,1.8,1.09,3.13,3.13,0,0,1,.68,2,3.35,3.35,0,0,1-.48,1.79,2.93,2.93,0,0,1-1.36,1.16,6.5,6.5,0,0,1-2.45.41l4.48,5.78h-1.55l-4.46-5.78h-.71v5.78h-1.25Zm1.25,1.22v4.24h2.14a5.45,5.45,0,0,0,1.83-.23,1.91,1.91,0,0,0,.94-.75,2.13,2.13,0,0,0,.34-1.17,1.93,1.93,0,0,0-.34-1.13,1.91,1.91,0,0,0-.89-.73,5,5,0,0,0-1.83-.24Zm16.75,8.19,1,.52a5.39,5.39,0,0,1-1.12,1.56,4.47,4.47,0,0,1-1.45.9,5.18,5.18,0,0,1-1.82.3,4.44,4.44,0,0,1-3.53-1.47,5.08,5.08,0,0,1-.19-6.47,4.41,4.41,0,0,1,3.65-1.73,4.54,4.54,0,0,1,3.76,1.78,5,5,0,0,1,1,3.14H303a3.76,3.76,0,0,0,1,2.64,3.29,3.29,0,0,0,2.45,1,3.69,3.69,0,0,0,1.36-.25,3.51,3.51,0,0,0,1.14-.65A5.19,5.19,0,0,0,309.92,111.31Zm0-2.48a3.76,3.76,0,0,0-.68-1.52,3.31,3.31,0,0,0-1.21-.91,3.45,3.45,0,0,0-1.54-.36,3.36,3.36,0,0,0-2.33.88,3.91,3.91,0,0,0-1.08,1.91Zm3.55-3.68h1.17v1.69a4.64,4.64,0,0,1,1.61-1.44,4.32,4.32,0,0,1,2-.48,4.51,4.51,0,0,1,3.35,1.42,4.61,4.61,0,0,1,1.4,3.39,4.71,4.71,0,0,1-1.39,3.45,4.45,4.45,0,0,1-3.32,1.41,4.68,4.68,0,0,1-2-.45,5,5,0,0,1-1.65-1.36v5h-1.17Zm4.73.91a3.52,3.52,0,0,0-2.61,1.08,3.65,3.65,0,0,0-1,2.67,3.84,3.84,0,0,0,.47,1.89,3.71,3.71,0,0,0,3.21,1.81A3.39,3.39,0,0,0,320,113a3.7,3.7,0,0,0,1.35-1.37,3.82,3.82,0,0,0,.5-1.86,3.71,3.71,0,0,0-.5-1.86,3.65,3.65,0,0,0-1.35-1.38A3.53,3.53,0,0,0,318.2,106.06Zm11.41-1.14a4.61,4.61,0,0,1,3.54,1.53,5,5,0,0,1-.08,6.7,4.86,4.86,0,0,1-6.91,0,4.8,4.8,0,0,1-1.34-3.37,4.71,4.71,0,0,1,1.28-3.31A4.5,4.5,0,0,1,329.61,104.92Zm0,1.16a3.42,3.42,0,0,0-2.53,1.09,3.89,3.89,0,0,0-.57,4.5,3.49,3.49,0,0,0,1.31,1.33,3.6,3.6,0,0,0,1.79.47,3.55,3.55,0,0,0,1.8-.47,3.49,3.49,0,0,0,1.31-1.33,3.64,3.64,0,0,0,.49-1.86,3.69,3.69,0,0,0-1.06-2.64A3.42,3.42,0,0,0,329.61,106.08Zm11.63.07-.76.8a2.78,2.78,0,0,0-1.86-.92,1.43,1.43,0,0,0-1,.37,1.17,1.17,0,0,0-.4.89,1.29,1.29,0,0,0,.34.86,4.64,4.64,0,0,0,1.42,1,5.38,5.38,0,0,1,1.78,1.31,2.38,2.38,0,0,1,.47,1.46,2.61,2.61,0,0,1-.79,1.92,2.75,2.75,0,0,1-2,.78,3.47,3.47,0,0,1-2.72-1.3l.75-.84a2.6,2.6,0,0,0,1.92,1,1.77,1.77,0,0,0,1.21-.46,1.41,1.41,0,0,0,.5-1.08,1.39,1.39,0,0,0-.33-.9,5.27,5.27,0,0,0-1.49-1,4.8,4.8,0,0,1-1.7-1.26,2.44,2.44,0,0,1-.44-1.42,2.33,2.33,0,0,1,.71-1.75,2.51,2.51,0,0,1,1.81-.69A3.78,3.78,0,0,1,341.24,106.15Zm2.51-4.79a.94.94,0,0,1,.69.29,1,1,0,0,1,0,1.38.94.94,0,0,1-.69.28,1,1,0,0,1-.69-.28,1,1,0,0,1,0-1.38A1,1,0,0,1,343.75,101.36Zm-.59,3.79h1.18v9.21h-1.18Zm4.68-3.42H349v3.42h1.88v1H349v8.19h-1.19v-8.19h-1.62v-1h1.62Zm9.19,3.19a4.59,4.59,0,0,1,3.53,1.53,4.84,4.84,0,0,1,1.27,3.33,4.76,4.76,0,0,1-1.35,3.37,4.85,4.85,0,0,1-6.9,0,4.9,4.9,0,0,1-.07-6.68A4.51,4.51,0,0,1,357,104.92Zm0,1.16a3.4,3.4,0,0,0-2.53,1.09,3.68,3.68,0,0,0-1.05,2.64,3.83,3.83,0,0,0,.47,1.86,3.49,3.49,0,0,0,1.31,1.33,3.68,3.68,0,0,0,3.6,0,3.56,3.56,0,0,0,1.31-1.33,3.74,3.74,0,0,0,.48-1.86,3.65,3.65,0,0,0-1.06-2.64A3.4,3.4,0,0,0,357,106.08Zm6.55-.93h1.2v1.35a4.51,4.51,0,0,1,1.14-1.19,2.29,2.29,0,0,1,1.25-.39,2.16,2.16,0,0,1,1.06.31l-.62,1a1.65,1.65,0,0,0-.63-.17,1.72,1.72,0,0,0-1.14.5,3.15,3.15,0,0,0-.84,1.5,14.25,14.25,0,0,0-.22,3.19v3.11h-1.2Zm4.66,0h1.25l3.17,7.1,3.07-7.1H377l-5.48,12.58h-1.27l1.78-4.06Z"/><path class="cls-3" d="M273,121h.82a11.53,11.53,0,0,0-.81,2.45,13.57,13.57,0,0,0-.3,2.87,16.37,16.37,0,0,0,.22,2.66,11.45,11.45,0,0,0,.64,2.24h-.79a11,11,0,0,1-.63-2.19,15.85,15.85,0,0,1-.22-2.61,15,15,0,0,1,.27-2.85A12.65,12.65,0,0,1,273,121Zm2.29,2.34H276v1a2.62,2.62,0,0,1,.78-.78,2.12,2.12,0,0,1,1.15-.35,1.79,1.79,0,0,1,.79.18,1.58,1.58,0,0,1,.61.42,2.23,2.23,0,0,1,.4.76,2.68,2.68,0,0,1,.91-1,2.07,2.07,0,0,1,1.17-.36,1.76,1.76,0,0,1,1,.3,1.73,1.73,0,0,1,.67.83,4.27,4.27,0,0,1,.22,1.59V129H283v-3.1a3.88,3.88,0,0,0-.14-1.25,1.06,1.06,0,0,0-.44-.54,1.32,1.32,0,0,0-.75-.21,1.61,1.61,0,0,0-1,.32,1.8,1.8,0,0,0-.64.82,5.18,5.18,0,0,0-.2,1.74V129h-.74v-2.89a5.14,5.14,0,0,0-.12-1.39,1.19,1.19,0,0,0-.46-.6,1.28,1.28,0,0,0-.75-.22,1.56,1.56,0,0,0-.93.32,1.71,1.71,0,0,0-.66.81,4.39,4.39,0,0,0-.2,1.56V129h-.72Zm15.63,0V129h-.71v-1a3.26,3.26,0,0,1-1,.83,2.83,2.83,0,0,1-1.25.28,2.79,2.79,0,0,1-2-.86,3,3,0,0,1-.85-2.13,2.89,2.89,0,0,1,.86-2.09,2.82,2.82,0,0,1,2.07-.88,2.65,2.65,0,0,1,1.25.3,3,3,0,0,1,1,.89v-1Zm-2.92.55a2.1,2.1,0,0,0-1.12.31,2.18,2.18,0,0,0-.81.84,2.32,2.32,0,0,0,0,2.28,2.17,2.17,0,0,0,1.93,1.16,2.28,2.28,0,0,0,1.13-.3,2.11,2.11,0,0,0,.83-.82,2.38,2.38,0,0,0,.29-1.16,2.25,2.25,0,0,0-.65-1.64A2.11,2.11,0,0,0,288,123.85Zm4.28-.55h.75v.83a2.41,2.41,0,0,1,.71-.74,1.4,1.4,0,0,1,.76-.25,1.24,1.24,0,0,1,.64.21l-.37.61a1,1,0,0,0-.38-.1,1.09,1.09,0,0,0-.72.3,1.91,1.91,0,0,0-.5.92,8.81,8.81,0,0,0-.14,2V129h-.75Zm9.13,0V131h-.72v-3a3.3,3.3,0,0,1-1.05.83,2.78,2.78,0,0,1-1.23.28,2.82,2.82,0,0,1-2.06-.86,2.93,2.93,0,0,1-.85-2.13,2.89,2.89,0,0,1,.86-2.09,2.81,2.81,0,0,1,2.06-.88,2.65,2.65,0,0,1,1.27.3,3,3,0,0,1,1,.89v-1Zm-2.92.55a2.14,2.14,0,0,0-1.13.31,2.31,2.31,0,0,0-.83.84,2.41,2.41,0,0,0-.29,1.14,2.39,2.39,0,0,0,1.14,2,2.15,2.15,0,0,0,1.11.3,2.24,2.24,0,0,0,1.12-.3,2,2,0,0,0,.83-.82,2.28,2.28,0,0,0,.3-1.16,2.22,2.22,0,0,0-.66-1.64A2.11,2.11,0,0,0,298.52,123.85Zm4.45-.55h.74v2.64a5,5,0,0,0,.11,1.33,1.54,1.54,0,0,0,.59.83,1.88,1.88,0,0,0,1,.29,1.81,1.81,0,0,0,1-.29,1.57,1.57,0,0,0,.58-.77,5.6,5.6,0,0,0,.11-1.39V123.3h.75v2.78a4.35,4.35,0,0,1-.28,1.75,2.08,2.08,0,0,1-.82.94,2.6,2.6,0,0,1-1.37.33,2.7,2.7,0,0,1-1.39-.33,2.16,2.16,0,0,1-.83-.94A4.65,4.65,0,0,1,303,126Zm11.34,3.78.61.31a3.32,3.32,0,0,1-.7,1,2.82,2.82,0,0,1-.89.55,3.23,3.23,0,0,1-1.11.19,2.71,2.71,0,0,1-2.16-.91,3.1,3.1,0,0,1-.12-4,2.68,2.68,0,0,1,2.23-1.08,2.76,2.76,0,0,1,2.31,1.11,3,3,0,0,1,.63,1.94H310a2.35,2.35,0,0,0,.62,1.63,2,2,0,0,0,1.5.62,2.22,2.22,0,0,0,.85-.16,2.32,2.32,0,0,0,.69-.4A3.42,3.42,0,0,0,314.31,127.08Zm0-1.53a2.18,2.18,0,0,0-.42-.92,1.85,1.85,0,0,0-.75-.56,2.1,2.1,0,0,0-.95-.22,2,2,0,0,0-1.43.53,2.53,2.53,0,0,0-.67,1.17ZM316,123.3h4.16l-3.2,5h3.1V129h-4.35l3.2-5H316Zm5.67,7.88h-.84a10.91,10.91,0,0,0,.81-2.44,13.17,13.17,0,0,0,.31-2.88,15.28,15.28,0,0,0-.23-2.65,10.4,10.4,0,0,0-.63-2.25h.8a10.54,10.54,0,0,1,.61,2.2,14.65,14.65,0,0,1,.23,2.61,14,14,0,0,1-.28,2.84A12.82,12.82,0,0,1,321.67,131.18Z"/><path class="cls-4" d="M19.41,15.84H294.12V74.67H19.41Z"/><path class="cls-3" d="M100.36,32.44h1.24V40c0,.9,0,1.45,0,1.67a2.9,2.9,0,0,0,.44,1.24,2.73,2.73,0,0,0,1,.82,3.3,3.3,0,0,0,1.41.33,2.81,2.81,0,0,0,1.18-.25,2.52,2.52,0,0,0,.94-.73,2.79,2.79,0,0,0,.56-1.13,8.83,8.83,0,0,0,.13-1.95V32.44h1.25V40a9.06,9.06,0,0,1-.33,2.7,3.72,3.72,0,0,1-1.31,1.8,3.76,3.76,0,0,1-2.36.75,4.54,4.54,0,0,1-2.58-.72,3.51,3.51,0,0,1-1.44-1.91,10.64,10.64,0,0,1-.22-2.62Zm15.74,4.25-.77.8a2.74,2.74,0,0,0-1.85-.92,1.43,1.43,0,0,0-1,.37,1.18,1.18,0,0,0-.41.89,1.3,1.3,0,0,0,.35.86,4.64,4.64,0,0,0,1.42,1A5.24,5.24,0,0,1,115.63,41a2.4,2.4,0,0,1,.47,1.45,2.62,2.62,0,0,1-.8,1.92,2.71,2.71,0,0,1-2,.78,3.48,3.48,0,0,1-1.52-.34,3.32,3.32,0,0,1-1.2-1l.75-.84a2.59,2.59,0,0,0,1.92,1,1.73,1.73,0,0,0,1.21-.46,1.41,1.41,0,0,0,.17-2,5.43,5.43,0,0,0-1.49-1,4.68,4.68,0,0,1-1.7-1.26A2.44,2.44,0,0,1,111,37.9a2.34,2.34,0,0,1,.71-1.75,2.49,2.49,0,0,1,1.81-.69A3.78,3.78,0,0,1,116.1,36.69Zm9.84,5.16,1,.52a5.6,5.6,0,0,1-1.13,1.56,4.47,4.47,0,0,1-1.45.9,5.13,5.13,0,0,1-1.81.3A4.47,4.47,0,0,1,119,43.66a5,5,0,0,1-1.26-3.34,4.94,4.94,0,0,1,1.08-3.13,4.39,4.39,0,0,1,3.64-1.73,4.53,4.53,0,0,1,3.76,1.78,5,5,0,0,1,1,3.14H119A3.81,3.81,0,0,0,120,43a3.29,3.29,0,0,0,2.46,1,4,4,0,0,0,2.5-.9A5.7,5.7,0,0,0,125.94,41.85Zm0-2.48a4,4,0,0,0-.69-1.52,3.29,3.29,0,0,0-1.2-.91,3.49,3.49,0,0,0-1.55-.36,3.38,3.38,0,0,0-2.33.88,3.91,3.91,0,0,0-1.08,1.91ZM129,35.69h1.2V37a4.51,4.51,0,0,1,1.14-1.19,2.32,2.32,0,0,1,1.25-.39,2.2,2.2,0,0,1,1.07.31l-.63,1a1.66,1.66,0,0,0-.62-.17,1.68,1.68,0,0,0-1.14.5,3.08,3.08,0,0,0-.85,1.5,14.91,14.91,0,0,0-.22,3.19V44.9H129Zm10.48-3.25h1.23V44.9h-1.23Zm3.88,3.25h1.19v1.64a5.13,5.13,0,0,1,1.58-1.4,3.88,3.88,0,0,1,1.88-.47,3.24,3.24,0,0,1,1.82.53A3,3,0,0,1,151,37.4a7.52,7.52,0,0,1,.38,2.76V44.9h-1.18V40.51a9.78,9.78,0,0,0-.14-2.13A2.26,2.26,0,0,0,149.3,37a2.36,2.36,0,0,0-1.52-.47,3,3,0,0,0-1.94.72A3.31,3.31,0,0,0,144.73,39a12.42,12.42,0,0,0-.17,2.5V44.9h-1.19ZM155,32.27h1.19v3.42h1.87v1h-1.87V44.9H155V36.71h-1.63v-1H155Zm12.57,9.58,1,.52a5.39,5.39,0,0,1-1.12,1.56,4.47,4.47,0,0,1-1.45.9,5.18,5.18,0,0,1-1.82.3,4.44,4.44,0,0,1-3.53-1.47,5.08,5.08,0,0,1-.19-6.47,4.41,4.41,0,0,1,3.65-1.73,4.54,4.54,0,0,1,3.76,1.78,5,5,0,0,1,1,3.14H160.6a3.76,3.76,0,0,0,1,2.64,3.29,3.29,0,0,0,2.45,1,3.69,3.69,0,0,0,1.36-.25,3.51,3.51,0,0,0,1.14-.65A5.19,5.19,0,0,0,167.56,41.85Zm0-2.48a3.82,3.82,0,0,0-.68-1.52,3.75,3.75,0,0,0-2.75-1.27,3.36,3.36,0,0,0-2.33.88,3.91,3.91,0,0,0-1.08,1.91Zm3.08-3.68h1.2V37A4.51,4.51,0,0,1,173,35.85a2.29,2.29,0,0,1,1.25-.39,2.13,2.13,0,0,1,1.06.31l-.62,1a1.65,1.65,0,0,0-.63-.17,1.72,1.72,0,0,0-1.14.5,3.15,3.15,0,0,0-.84,1.5,14.25,14.25,0,0,0-.22,3.19V44.9h-1.2Zm9.44-3.56V33.3A3,3,0,0,0,179,33a1.21,1.21,0,0,0-.6.14.71.71,0,0,0-.28.33,5.35,5.35,0,0,0,0,.95v1.25H180v1H178V44.9h-1.19V36.71h-1.2v-1h1.2V34.26a4.36,4.36,0,0,1,.17-1.43,1.5,1.5,0,0,1,.63-.67,2.06,2.06,0,0,1,1.06-.26A5.14,5.14,0,0,1,180.08,32.13Zm10.82,3.56V44.9h-1.16V43.32a5.1,5.1,0,0,1-1.68,1.36,4.71,4.71,0,0,1-5.36-1,4.78,4.78,0,0,1-1.38-3.46,4.68,4.68,0,0,1,1.39-3.39,4.56,4.56,0,0,1,3.36-1.42,4.34,4.34,0,0,1,2.05.48,4.68,4.68,0,0,1,1.62,1.44V35.69Zm-4.73.91a3.63,3.63,0,0,0-1.83.48,3.85,3.85,0,0,0-1.83,3.24,3.82,3.82,0,0,0,.5,1.86,3.67,3.67,0,0,0,1.34,1.37,3.47,3.47,0,0,0,1.82.5,3.77,3.77,0,0,0,1.84-.48,3.49,3.49,0,0,0,1.34-1.33,3.73,3.73,0,0,0,.47-1.89,3.62,3.62,0,0,0-1.06-2.67A3.46,3.46,0,0,0,186.17,36.6Zm16.33,1-.93.59a4,4,0,0,0-3.33-1.62,3.85,3.85,0,0,0-2.8,1.09,3.54,3.54,0,0,0-1.11,2.63,3.82,3.82,0,0,0,1.92,3.28,4.16,4.16,0,0,0,2,.48,4,4,0,0,0,3.32-1.62l.93.62a4.3,4.3,0,0,1-1.76,1.53,5.6,5.6,0,0,1-2.53.55,5.07,5.07,0,0,1-3.63-1.37,4.54,4.54,0,0,1-1.44-3.39,4.76,4.76,0,0,1,.68-2.47,4.68,4.68,0,0,1,1.84-1.8,5.37,5.37,0,0,1,2.64-.64,5.43,5.43,0,0,1,1.75.28,4.68,4.68,0,0,1,1.45.72A3.81,3.81,0,0,1,202.5,37.6Zm10,4.25,1,.52a5.6,5.6,0,0,1-1.13,1.56,4.47,4.47,0,0,1-1.45.9,5.13,5.13,0,0,1-1.81.3,4.47,4.47,0,0,1-3.54-1.47,5,5,0,0,1-1.26-3.34,4.94,4.94,0,0,1,1.08-3.13,4.39,4.39,0,0,1,3.64-1.73,4.53,4.53,0,0,1,3.76,1.78,5,5,0,0,1,1,3.14h-8.28a3.81,3.81,0,0,0,1,2.64,3.29,3.29,0,0,0,2.46,1,4,4,0,0,0,2.5-.9A5.7,5.7,0,0,0,212.53,41.85Zm0-2.48a4,4,0,0,0-.69-1.52,3.29,3.29,0,0,0-1.2-.91,3.49,3.49,0,0,0-1.55-.36,3.38,3.38,0,0,0-2.33.88,3.91,3.91,0,0,0-1.08,1.91Z"/><path class="cls-3" d="M126.37,51.5h.83a11.16,11.16,0,0,0-.82,2.45,14.35,14.35,0,0,0-.29,2.88,15.29,15.29,0,0,0,.22,2.65,10.63,10.63,0,0,0,.64,2.24h-.8a11,11,0,0,1-.63-2.19,15.68,15.68,0,0,1-.21-2.61,14.78,14.78,0,0,1,.26-2.84A12.55,12.55,0,0,1,126.37,51.5Zm2.29,2.34h.72v1a2.88,2.88,0,0,1,.78-.78,2.15,2.15,0,0,1,1.16-.35,1.78,1.78,0,0,1,.78.18,1.58,1.58,0,0,1,.61.42,2.33,2.33,0,0,1,.4.76,2.77,2.77,0,0,1,.91-1,2.12,2.12,0,0,1,1.17-.36,1.76,1.76,0,0,1,1,.3,1.79,1.79,0,0,1,.68.83,4.57,4.57,0,0,1,.21,1.59v3.1h-.73V56.4a3.88,3.88,0,0,0-.14-1.25,1,1,0,0,0-.44-.54,1.32,1.32,0,0,0-.75-.21,1.63,1.63,0,0,0-1,.32,1.8,1.8,0,0,0-.64.82,5.46,5.46,0,0,0-.2,1.74V59.5h-.74V56.61a5.2,5.2,0,0,0-.12-1.39,1.12,1.12,0,0,0-.45-.6,1.33,1.33,0,0,0-.75-.22,1.57,1.57,0,0,0-.94.32,1.77,1.77,0,0,0-.66.81,4.63,4.63,0,0,0-.2,1.56V59.5h-.72Zm15.64,0V59.5h-.72v-1a3.23,3.23,0,0,1-1,.83,2.87,2.87,0,0,1-1.25.28,2.81,2.81,0,0,1-2.05-.86,3,3,0,0,1-.84-2.13,2.85,2.85,0,0,1,.86-2.09,2.8,2.8,0,0,1,2.06-.88,2.62,2.62,0,0,1,1.25.3,2.9,2.9,0,0,1,1,.89v-1Zm-2.92.55a2.11,2.11,0,0,0-1.13.31,2.33,2.33,0,0,0-1.11,2,2.38,2.38,0,0,0,.3,1.15,2.26,2.26,0,0,0,.83.85,2.15,2.15,0,0,0,1.11.3,2.24,2.24,0,0,0,1.12-.3,2.11,2.11,0,0,0,.83-.82,2.28,2.28,0,0,0,.3-1.16,2.22,2.22,0,0,0-.66-1.64A2.11,2.11,0,0,0,141.38,54.39Zm4.27-.55h.75v.83a2.53,2.53,0,0,1,.71-.74,1.4,1.4,0,0,1,.76-.25,1.24,1.24,0,0,1,.64.21l-.37.61a1,1,0,0,0-.38-.1,1,1,0,0,0-.71.3,1.88,1.88,0,0,0-.5.92,8.14,8.14,0,0,0-.15,2V59.5h-.75Zm9.13,0v7.74h-.72v-3a3.37,3.37,0,0,1-1,.83,2.86,2.86,0,0,1-1.24.28,2.82,2.82,0,0,1-2.06-.86,3,3,0,0,1-.84-2.13,2.88,2.88,0,0,1,.85-2.09,2.84,2.84,0,0,1,2.07-.88,2.61,2.61,0,0,1,1.26.3,3,3,0,0,1,1,.89v-1Zm-2.92.55a2.14,2.14,0,0,0-1.13.31,2.28,2.28,0,0,0-.82.84,2.31,2.31,0,0,0-.3,1.14,2.28,2.28,0,0,0,.31,1.15,2.34,2.34,0,0,0,.83.85,2.15,2.15,0,0,0,1.11.3,2.21,2.21,0,0,0,1.12-.3,2,2,0,0,0,.83-.82,2.28,2.28,0,0,0,.3-1.16,2.22,2.22,0,0,0-.66-1.64A2.08,2.08,0,0,0,151.86,54.39Zm4.46-.55h.73v2.64a5.46,5.46,0,0,0,.11,1.33,1.54,1.54,0,0,0,.59.83,1.82,1.82,0,0,0,1.05.29,1.71,1.71,0,0,0,1-.29,1.51,1.51,0,0,0,.58-.77,5.6,5.6,0,0,0,.11-1.39V53.84h.75v2.78a4.19,4.19,0,0,1-.28,1.75,2.12,2.12,0,0,1-.81.94,2.66,2.66,0,0,1-1.38.33,2.7,2.7,0,0,1-1.39-.33,2.23,2.23,0,0,1-.83-.94,4.68,4.68,0,0,1-.26-1.81Zm11.33,3.78.61.31a3.15,3.15,0,0,1-.7,1,2.65,2.65,0,0,1-.89.55,2.93,2.93,0,0,1-1.11.19,2.68,2.68,0,0,1-2.16-.91,3.1,3.1,0,0,1-.12-4,2.69,2.69,0,0,1,2.23-1.08,2.79,2.79,0,0,1,2.32,1.11,3,3,0,0,1,.62,1.94h-5.08a2.32,2.32,0,0,0,.63,1.63,2,2,0,0,0,1.5.62,2.4,2.4,0,0,0,.84-.15,2.34,2.34,0,0,0,.69-.41A3.17,3.17,0,0,0,167.65,57.62Zm0-1.53a2.24,2.24,0,0,0-.42-.92,1.85,1.85,0,0,0-.75-.56,2.1,2.1,0,0,0-.95-.22,2,2,0,0,0-1.42.53,2.54,2.54,0,0,0-.68,1.17Zm1.69-2.25h4.16l-3.2,5h3.11v.64h-4.36l3.2-5h-2.91Zm4.53,2.47h2.86v.62h-2.86Zm3.91-2.47h.74v2.64a5.46,5.46,0,0,0,.11,1.33,1.54,1.54,0,0,0,.59.83,1.8,1.8,0,0,0,1.05.29,1.71,1.71,0,0,0,1-.29,1.57,1.57,0,0,0,.58-.77,5.6,5.6,0,0,0,.11-1.39V53.84h.75v2.78a4.35,4.35,0,0,1-.28,1.75,2.08,2.08,0,0,1-.82.94,2.6,2.6,0,0,1-1.37.33,2.7,2.7,0,0,1-1.39-.33,2.16,2.16,0,0,1-.83-.94,4.65,4.65,0,0,1-.27-1.81Zm6.83-2.34a.58.58,0,0,1,.42.18.57.57,0,0,1,0,.85.61.61,0,0,1-.42.17.65.65,0,0,1-.43-.17.61.61,0,0,1-.17-.42.6.6,0,0,1,.6-.61Zm-.36,2.34H185V59.5h-.73Zm2.91,7.88h-.84a10.74,10.74,0,0,0,.81-2.44,13.17,13.17,0,0,0,.31-2.88,15.28,15.28,0,0,0-.23-2.65,10.4,10.4,0,0,0-.63-2.25h.8a10.54,10.54,0,0,1,.61,2.2,13.78,13.78,0,0,1,.23,2.61,14,14,0,0,1-.28,2.84A11.65,11.65,0,0,1,187.16,61.72Z"/><path class="cls-5" d="M19.41,155H575.28v58.84H19.41Z"/><path class="cls-3" d="M193.8,184.05l1.77-12.45h.2l5.06,10.22,5-10.22H206l1.78,12.45H206.6l-1.22-8.9-4.41,8.9h-.31l-4.45-9-1.21,9Zm24-3,1,.51a5.13,5.13,0,0,1-1.12,1.56,4.49,4.49,0,0,1-1.45.91,5.18,5.18,0,0,1-1.82.3,4.44,4.44,0,0,1-3.53-1.47,5,5,0,0,1-1.26-3.35,5,5,0,0,1,1.07-3.12,4.39,4.39,0,0,1,3.65-1.74,4.55,4.55,0,0,1,3.76,1.79,5,5,0,0,1,1,3.14h-8.28a3.76,3.76,0,0,0,1,2.64,3.32,3.32,0,0,0,2.45,1,4,4,0,0,0,2.5-.91A5.11,5.11,0,0,0,217.83,181Zm0-2.49a3.78,3.78,0,0,0-.68-1.51,3.31,3.31,0,0,0-1.21-.91,3.45,3.45,0,0,0-1.54-.36,3.35,3.35,0,0,0-2.33.87,4,4,0,0,0-1.08,1.91Zm4.56-7.09h1.19v3.42h1.88v1h-1.88v8.19h-1.19v-8.19h-1.62v-1h1.62Zm14,3.42v9.2h-1.16v-1.58a5,5,0,0,1-1.68,1.36,4.44,4.44,0,0,1-2,.46,4.51,4.51,0,0,1-3.34-1.41,4.78,4.78,0,0,1-1.38-3.45,4.81,4.81,0,0,1,4.75-4.82,4.34,4.34,0,0,1,2.05.49,4.57,4.57,0,0,1,1.62,1.44v-1.69Zm-4.73.91a3.63,3.63,0,0,0-1.83.48,3.51,3.51,0,0,0-1.33,1.37,3.71,3.71,0,0,0,0,3.72,3.63,3.63,0,0,0,1.34,1.38,3.56,3.56,0,0,0,1.82.5,3.68,3.68,0,0,0,1.84-.49,3.47,3.47,0,0,0,1.34-1.32,3.79,3.79,0,0,0,.47-1.89,3.62,3.62,0,0,0-1.06-2.68A3.46,3.46,0,0,0,231.66,175.76Zm16.6-4.47v12.76h-1.17v-1.58a5,5,0,0,1-1.68,1.36,4.42,4.42,0,0,1-2,.46,4.53,4.53,0,0,1-3.34-1.41,4.78,4.78,0,0,1-1.38-3.45,4.65,4.65,0,0,1,1.39-3.39,4.57,4.57,0,0,1,3.36-1.43,4.31,4.31,0,0,1,2.05.49,4.51,4.51,0,0,1,1.63,1.44v-5.25Zm-4.75,4.47a3.63,3.63,0,0,0-1.83.48,3.58,3.58,0,0,0-1.33,1.37,3.71,3.71,0,0,0,0,3.72,3.58,3.58,0,0,0,1.35,1.38,3.5,3.5,0,0,0,1.81.5,3.68,3.68,0,0,0,1.84-.49,3.57,3.57,0,0,0,1.35-1.32,3.89,3.89,0,0,0,.46-1.89,3.62,3.62,0,0,0-1.06-2.68A3.46,3.46,0,0,0,243.51,175.76Zm16.59-.91v9.2h-1.16v-1.58a4.91,4.91,0,0,1-1.69,1.36,4.37,4.37,0,0,1-2,.46,4.55,4.55,0,0,1-3.35-1.41,4.81,4.81,0,0,1-1.37-3.45,4.81,4.81,0,0,1,4.75-4.82,4.34,4.34,0,0,1,2,.49,4.57,4.57,0,0,1,1.62,1.44v-1.69Zm-4.74.91a3.68,3.68,0,0,0-1.83.48,3.55,3.55,0,0,0-1.32,1.37,3.78,3.78,0,0,0,1.34,5.1,3.53,3.53,0,0,0,1.81.5,3.71,3.71,0,0,0,1.85-.49,3.47,3.47,0,0,0,1.34-1.32,3.89,3.89,0,0,0,.47-1.89,3.66,3.66,0,0,0-1.06-2.68A3.48,3.48,0,0,0,255.36,175.76Zm8.45-4.33H265v3.42h1.87v1H265v8.19h-1.19v-8.19h-1.63v-1h1.63Zm14,3.42v9.2h-1.16v-1.58a4.91,4.91,0,0,1-1.69,1.36,4.37,4.37,0,0,1-2,.46,4.53,4.53,0,0,1-3.35-1.41,4.81,4.81,0,0,1-1.37-3.45,4.81,4.81,0,0,1,4.75-4.82,4.27,4.27,0,0,1,2,.49,4.51,4.51,0,0,1,1.63,1.44v-1.69Zm-4.74.91a3.68,3.68,0,0,0-1.83.48,3.55,3.55,0,0,0-1.32,1.37,3.78,3.78,0,0,0,1.34,5.1,3.53,3.53,0,0,0,1.81.5,3.71,3.71,0,0,0,1.85-.49,3.47,3.47,0,0,0,1.34-1.32,3.89,3.89,0,0,0,.47-1.89,3.66,3.66,0,0,0-1.06-2.68A3.48,3.48,0,0,0,273.07,175.76Zm24-1.85-1,.75a5.32,5.32,0,0,0-1.95-1.59,5.65,5.65,0,0,0-2.5-.55,5.58,5.58,0,0,0-2.77.72,5.12,5.12,0,0,0-2,1.92,5.41,5.41,0,0,0-.68,2.7,5.13,5.13,0,0,0,1.56,3.82,5.42,5.42,0,0,0,3.94,1.51,5.55,5.55,0,0,0,4.37-2l1,.73a6.44,6.44,0,0,1-2.33,1.84,7.33,7.33,0,0,1-3.11.64,6.48,6.48,0,0,1-5.16-2.17,6.61,6.61,0,0,1-1.58-4.43,6.17,6.17,0,0,1,1.91-4.6,6.61,6.61,0,0,1,4.81-1.87,6.81,6.81,0,0,1,3.14.7A6.29,6.29,0,0,1,297.07,173.91Zm6.65.7a4.61,4.61,0,0,1,3.53,1.54,5,5,0,0,1-.08,6.7,4.86,4.86,0,0,1-6.91,0,4.93,4.93,0,0,1-.06-6.69A4.54,4.54,0,0,1,303.72,174.61Zm0,1.16a3.46,3.46,0,0,0-2.54,1.09,3.89,3.89,0,0,0-.57,4.5,3.35,3.35,0,0,0,1.31,1.33,3.51,3.51,0,0,0,1.8.47,3.45,3.45,0,0,0,1.79-.47,3.35,3.35,0,0,0,1.31-1.33,3.8,3.8,0,0,0-.57-4.5A3.45,3.45,0,0,0,303.72,175.77Zm6.81-4.48h1.19v12.76h-1.19Zm3.47,0h1.19v12.76H314ZM325.39,181l1,.51a5.3,5.3,0,0,1-1.12,1.56,4.54,4.54,0,0,1-1.46.91,5.09,5.09,0,0,1-1.81.3,4.43,4.43,0,0,1-3.53-1.47,5,5,0,0,1-1.27-3.35,4.93,4.93,0,0,1,1.08-3.12,4.39,4.39,0,0,1,3.64-1.74,4.57,4.57,0,0,1,3.77,1.79,5,5,0,0,1,1,3.14h-8.28a3.77,3.77,0,0,0,1,2.64,3.29,3.29,0,0,0,2.45,1,4,4,0,0,0,2.5-.91A5.34,5.34,0,0,0,325.39,181Zm0-2.49a3.78,3.78,0,0,0-.69-1.51,3.19,3.19,0,0,0-1.2-.91,3.49,3.49,0,0,0-1.55-.36,3.39,3.39,0,0,0-2.33.87,4,4,0,0,0-1.07,1.91Zm12.45-1.76-.94.59a3.94,3.94,0,0,0-3.33-1.63,3.85,3.85,0,0,0-2.79,1.1,3.51,3.51,0,0,0-1.11,2.62,3.77,3.77,0,0,0,1.92,3.28,4.23,4.23,0,0,0,5.31-1.14l.94.63a4.47,4.47,0,0,1-1.77,1.53,5.7,5.7,0,0,1-2.53.55,5,5,0,0,1-3.62-1.38,4.54,4.54,0,0,1-1.44-3.39,4.78,4.78,0,0,1,.67-2.47,4.62,4.62,0,0,1,1.85-1.79,5.38,5.38,0,0,1,2.64-.65,5.49,5.49,0,0,1,1.75.29,4.56,4.56,0,0,1,1.45.71A4,4,0,0,1,337.84,176.76Zm3.32-5.33h1.19v3.42h1.87v1h-1.87v8.19h-1.19v-8.19h-1.63v-1h1.63Zm5.25-.38a.88.88,0,0,1,.68.3.92.92,0,0,1,.3.69.88.88,0,0,1-.3.68.91.91,0,0,1-.68.29,1,1,0,0,1-.69-.29.9.9,0,0,1-.28-.68.94.94,0,0,1,.28-.69A1,1,0,0,1,346.41,171.05Zm-.6,3.8H347v9.2h-1.19Zm8-.24a4.58,4.58,0,0,1,3.53,1.54,4.76,4.76,0,0,1,1.27,3.32,4.8,4.8,0,0,1-1.34,3.38,4.86,4.86,0,0,1-6.91,0,4.93,4.93,0,0,1-.06-6.69A4.52,4.52,0,0,1,353.81,174.61Zm0,1.16a3.44,3.44,0,0,0-2.53,1.09,3.67,3.67,0,0,0-1,2.65,3.82,3.82,0,0,0,.46,1.85,3.38,3.38,0,0,0,1.32,1.33,3.5,3.5,0,0,0,1.79.47,3.46,3.46,0,0,0,1.8-.47,3.35,3.35,0,0,0,1.31-1.33,3.79,3.79,0,0,0-.58-4.5A3.42,3.42,0,0,0,353.81,175.77Zm7-.92H362v1.64a5.06,5.06,0,0,1,1.58-1.41,3.85,3.85,0,0,1,1.87-.47,3.18,3.18,0,0,1,1.83.54,3,3,0,0,1,1.19,1.4,7.65,7.65,0,0,1,.37,2.77v4.73h-1.17v-4.39a10.37,10.37,0,0,0-.14-2.12,2.24,2.24,0,0,0-.8-1.36,2.27,2.27,0,0,0-1.51-.47,2.94,2.94,0,0,0-1.94.72,3.31,3.31,0,0,0-1.11,1.75,11.7,11.7,0,0,0-.17,2.5v3.37H360.8Zm20.65-3.25,5.81,12.45h-1.34L384,180H378.6l-2,4.09h-1.38l5.88-12.45Zm-.14,2.64-2.14,4.52h4.25Zm7.86-2.64h2.49a13.64,13.64,0,0,1,2.87.19,3.08,3.08,0,0,1,1.73,1.09,3,3,0,0,1,.69,2.05,3.17,3.17,0,0,1-.65,2,3.23,3.23,0,0,1-1.83,1.1,16.56,16.56,0,0,1-3.16.2h-.89v5.78h-1.25Zm1.25,1.22v4.23l2.11,0a5.27,5.27,0,0,0,1.86-.24,1.89,1.89,0,0,0,.94-.75,2,2,0,0,0,.34-1.15,2,2,0,0,0-.34-1.14,1.8,1.8,0,0,0-.91-.75,5.14,5.14,0,0,0-1.8-.22Zm8.85-1.22h1.23v12.45h-1.23Z"/><path class="cls-3" d="M262.5,190.65h.82a11.83,11.83,0,0,0-.81,2.46,13.5,13.5,0,0,0-.29,2.87,16.47,16.47,0,0,0,.21,2.66,11.15,11.15,0,0,0,.64,2.23h-.79a10.64,10.64,0,0,1-.63-2.19,15.66,15.66,0,0,1-.22-2.61,14.94,14.94,0,0,1,.27-2.84A12.55,12.55,0,0,1,262.5,190.65Zm5,2.19a2.8,2.8,0,0,1,2.17.95,3.07,3.07,0,0,1,0,4.13,3,3,0,0,1-4.25,0,3.05,3.05,0,0,1,0-4.13A2.79,2.79,0,0,1,267.46,192.84Zm0,.72a2.1,2.1,0,0,0-1.55.67,2.27,2.27,0,0,0-.65,1.63,2.31,2.31,0,0,0,.3,1.14,2.08,2.08,0,0,0,.79.82,2.3,2.3,0,0,0,1.11.29,2.19,2.19,0,0,0,1.11-.29,2.06,2.06,0,0,0,.81-.82,2.31,2.31,0,0,0,.3-1.14,2.24,2.24,0,0,0-.66-1.63A2.07,2.07,0,0,0,267.46,193.56Zm4.32-.56h.72v1a2.85,2.85,0,0,1,1-.89,2.61,2.61,0,0,1,1.26-.3,2.79,2.79,0,0,1,2.06.87,3,3,0,0,1,0,4.22,2.72,2.72,0,0,1-2,.86,2.76,2.76,0,0,1-1.25-.28,3.07,3.07,0,0,1-1-.83v3h-.72Zm2.91.54a2.11,2.11,0,0,0-1.59.67,2.27,2.27,0,0,0-.65,1.65,2.34,2.34,0,0,0,.29,1.15,2.18,2.18,0,0,0,.82.83,2.31,2.31,0,0,0,1.14.3,2.17,2.17,0,0,0,1.1-.3,2.28,2.28,0,0,0,.83-.86,2.22,2.22,0,0,0,.31-1.14,2.17,2.17,0,0,0-.31-1.14,2,2,0,0,0-.82-.84A2.09,2.09,0,0,0,274.69,193.54Zm9.11,3.24.61.31a3.32,3.32,0,0,1-.7,1,2.82,2.82,0,0,1-.89.55,3.23,3.23,0,0,1-1.11.18,2.71,2.71,0,0,1-2.16-.9,3.07,3.07,0,0,1-.78-2,3,3,0,0,1,.66-1.92,2.68,2.68,0,0,1,2.23-1.08A2.76,2.76,0,0,1,284,194a3,3,0,0,1,.63,1.94h-5.08a2.31,2.31,0,0,0,.63,1.62,2,2,0,0,0,1.5.63,2.41,2.41,0,0,0,.84-.16,2.14,2.14,0,0,0,.69-.41A3.33,3.33,0,0,0,283.8,196.78Zm0-1.53a2.23,2.23,0,0,0-.42-.93,2,2,0,0,0-.75-.56,2.24,2.24,0,0,0-.95-.22,2.09,2.09,0,0,0-1.43.53,2.57,2.57,0,0,0-.67,1.18ZM286,193h.74v1a3,3,0,0,1,.95-.87,2.31,2.31,0,0,1,1.16-.3,2,2,0,0,1,1.85,1.2,4.56,4.56,0,0,1,.24,1.71v2.9h-.72V196a6,6,0,0,0-.09-1.3,1.47,1.47,0,0,0-.49-.84,1.41,1.41,0,0,0-.94-.3,1.82,1.82,0,0,0-1.18.44,2,2,0,0,0-.69,1.09,8.58,8.58,0,0,0-.09,1.53v2.08H286Zm6.39-2.19h.74v7.84h-.74Zm2.49-.16a.56.56,0,0,1,.43.19.58.58,0,0,1,0,.84.58.58,0,0,1-.43.18.61.61,0,0,1-.42-.18.6.6,0,0,1,0-.84A.58.58,0,0,1,294.84,190.65Zm-.36,2.35h.74v5.65h-.74Zm2.25,0h.73v1a3,3,0,0,1,1-.87,2.33,2.33,0,0,1,1.16-.3,2,2,0,0,1,1.86,1.2,4.6,4.6,0,0,1,.23,1.71v2.9H301V196a5.76,5.76,0,0,0-.1-1.3,1.35,1.35,0,0,0-1.42-1.14,1.85,1.85,0,0,0-1.19.44,2.09,2.09,0,0,0-.68,1.09,7.48,7.48,0,0,0-.1,1.53v2.08h-.73ZM308,196.78l.61.31a3.32,3.32,0,0,1-.7,1,2.82,2.82,0,0,1-.89.55,3.23,3.23,0,0,1-1.11.18,2.71,2.71,0,0,1-2.16-.9,3.07,3.07,0,0,1-.78-2,3,3,0,0,1,.66-1.92,2.68,2.68,0,0,1,2.23-1.08,2.76,2.76,0,0,1,2.31,1.11,3,3,0,0,1,.63,1.94h-5.08a2.31,2.31,0,0,0,.63,1.62,2,2,0,0,0,1.5.63,2.41,2.41,0,0,0,.84-.16,2.14,2.14,0,0,0,.69-.41A3.33,3.33,0,0,0,308,196.78Zm0-1.53a2.23,2.23,0,0,0-.42-.93,2,2,0,0,0-.75-.56,2.24,2.24,0,0,0-.95-.22,2.09,2.09,0,0,0-1.43.53,2.57,2.57,0,0,0-.67,1.18Zm7.8-2.25v5.65h-.72v-1a3,3,0,0,1-1,.83,2.7,2.7,0,0,1-1.25.28,2.75,2.75,0,0,1-2-.86,3,3,0,0,1,0-4.22,2.79,2.79,0,0,1,2.06-.87,2.6,2.6,0,0,1,1.25.3,2.64,2.64,0,0,1,1,.89v-1Zm-2.92.54a2.09,2.09,0,0,0-1.12.32,2.14,2.14,0,0,0-.82.84,2.36,2.36,0,0,0-.29,1.14,2.41,2.41,0,0,0,.29,1.14,2.45,2.45,0,0,0,.83.86,2.15,2.15,0,0,0,1.11.3,2.28,2.28,0,0,0,1.13-.3,2,2,0,0,0,.82-.83,2.38,2.38,0,0,0-.36-2.8A2.11,2.11,0,0,0,312.87,193.54Zm9.44-.54H323v4.5a5.67,5.67,0,0,1-.2,1.75,2.32,2.32,0,0,1-1,1.2,3.28,3.28,0,0,1-1.71.42,4.1,4.1,0,0,1-1.31-.2,2.7,2.7,0,0,1-.94-.56,3.54,3.54,0,0,1-.67-1h.8a2,2,0,0,0,.81.82,2.75,2.75,0,0,0,1.28.27,2.54,2.54,0,0,0,1.25-.28,1.66,1.66,0,0,0,.74-.69,3.2,3.2,0,0,0,.22-1.36v-.3a2.77,2.77,0,0,1-1,.8,2.91,2.91,0,0,1-1.27.28,2.94,2.94,0,0,1-1.47-.39,2.74,2.74,0,0,1-1.06-1,2.81,2.81,0,0,1-.38-1.43,2.88,2.88,0,0,1,.39-1.46,2.92,2.92,0,0,1,1.08-1.07,2.85,2.85,0,0,1,1.46-.41,2.62,2.62,0,0,1,1.18.27,3.21,3.21,0,0,1,1.07.87Zm-2.16.54a2.18,2.18,0,0,0-1.14.32,2.07,2.07,0,0,0-.84.82,2.26,2.26,0,0,0-.3,1.14,2.09,2.09,0,0,0,.62,1.54,2.26,2.26,0,0,0,1.63.6,2.06,2.06,0,0,0,2.22-2.18,2.35,2.35,0,0,0-.28-1.14,2.12,2.12,0,0,0-.8-.8A2.15,2.15,0,0,0,320.15,193.54Zm9.22,3.24.61.31a3.34,3.34,0,0,1-.71,1,2.72,2.72,0,0,1-.89.55,3.15,3.15,0,0,1-1.11.18,2.7,2.7,0,0,1-2.15-.9,3.07,3.07,0,0,1-.78-2,3,3,0,0,1,.65-1.92,2.7,2.7,0,0,1,2.24-1.08,2.78,2.78,0,0,1,2.31,1.11,3,3,0,0,1,.62,1.94h-5.07a2.3,2.3,0,0,0,.62,1.62,2,2,0,0,0,1.5.63,2.41,2.41,0,0,0,.84-.16,2,2,0,0,0,.69-.41A3.09,3.09,0,0,0,329.37,196.78Zm0-1.53a2.36,2.36,0,0,0-.43-.93,1.81,1.81,0,0,0-.75-.56,2.21,2.21,0,0,0-.95-.22,2.08,2.08,0,0,0-1.42.53,2.48,2.48,0,0,0-.67,1.18Zm2.83,5.62h-.85a10.27,10.27,0,0,0,.82-2.44,13,13,0,0,0,.31-2.87,15.4,15.4,0,0,0-.23-2.66,10.74,10.74,0,0,0-.63-2.25h.8a10.64,10.64,0,0,1,.61,2.21,14.62,14.62,0,0,1,.23,2.6,14.2,14.2,0,0,1-.28,2.85A12.53,12.53,0,0,1,332.2,200.87Z"/><path class="cls-4" d="M300.58,15.84H575.29V74.67H300.58Z"/><path class="cls-3" d="M408.3,43.54l1.84,2.34h-1.53l-1.27-1.61a6.73,6.73,0,0,1-8.11-1,6.25,6.25,0,0,1-1.9-4.59,6.62,6.62,0,0,1,.87-3.33,6.55,6.55,0,0,1,12.24,3.28,6.51,6.51,0,0,1-.52,2.64A6.65,6.65,0,0,1,408.3,43.54Zm-.77-1a5.51,5.51,0,0,0,.94-6.58,5.14,5.14,0,0,0-2-1.92,5.25,5.25,0,0,0-2.65-.72,5.12,5.12,0,0,0-2.62.72A5.23,5.23,0,0,0,399.31,36a5.42,5.42,0,0,0-.69,2.72,5.1,5.1,0,0,0,1.54,3.75,5,5,0,0,0,3.7,1.53,5.2,5.2,0,0,0,2.7-.72l-2.76-3.53h1.5Zm5.08-6.88h1.19V40a8.8,8.8,0,0,0,.17,2.17,2.46,2.46,0,0,0,1,1.35,3,3,0,0,0,1.7.48,2.84,2.84,0,0,0,1.67-.48,2.45,2.45,0,0,0,1-1.25,9,9,0,0,0,.18-2.27v-4.3h1.21v4.52a6.87,6.87,0,0,1-.46,2.87,3.32,3.32,0,0,1-1.32,1.5,4.86,4.86,0,0,1-4.49,0,3.45,3.45,0,0,1-1.34-1.51,7.62,7.62,0,0,1-.44-2.94ZM431,41.85l1,.52a5.39,5.39,0,0,1-1.12,1.56,4.47,4.47,0,0,1-1.45.9,5.18,5.18,0,0,1-1.82.3,4.44,4.44,0,0,1-3.53-1.47,5.08,5.08,0,0,1-.19-6.47,4.41,4.41,0,0,1,3.65-1.73,4.54,4.54,0,0,1,3.76,1.78,5,5,0,0,1,1,3.14h-8.28a3.76,3.76,0,0,0,1,2.64,3.29,3.29,0,0,0,2.45,1,3.69,3.69,0,0,0,1.36-.25,3.51,3.51,0,0,0,1.14-.65A5.19,5.19,0,0,0,431,41.85Zm0-2.48a3.82,3.82,0,0,0-.68-1.52,3.75,3.75,0,0,0-2.75-1.27,3.36,3.36,0,0,0-2.33.88,3.91,3.91,0,0,0-1.08,1.91Zm3.08-3.68h1.2V37a4.51,4.51,0,0,1,1.14-1.19,2.29,2.29,0,0,1,1.25-.39,2.13,2.13,0,0,1,1.06.31l-.62,1a1.65,1.65,0,0,0-.63-.17,1.72,1.72,0,0,0-1.14.5,3.15,3.15,0,0,0-.84,1.5,14.25,14.25,0,0,0-.22,3.19V44.9h-1.2Zm4.66,0H440l3.18,7.1,3.06-7.1h1.26L442,48.27h-1.27l1.78-4.06Zm20.36-3.25,5.81,12.46H463.6l-2-4.1h-5.36l-1.95,4.1H453l5.88-12.46ZM459,35.08l-2.14,4.52h4.25Zm7.86-2.64h2.49a14.38,14.38,0,0,1,2.87.19,3.1,3.1,0,0,1,1.73,1.1,3,3,0,0,1,.69,2,3,3,0,0,1-2.48,3.14,15.52,15.52,0,0,1-3.16.21h-.89V44.9h-1.25Zm1.25,1.22V37.9h2.11a5.57,5.57,0,0,0,1.86-.23,2,2,0,0,0,.94-.75,2.11,2.11,0,0,0,0-2.3,1.9,1.9,0,0,0-.91-.75,5.4,5.4,0,0,0-1.8-.22ZM477,32.44h1.23V44.9H477Z"/><path class="cls-3" d="M398.85,51.5h.83a11.16,11.16,0,0,0-.82,2.45,14.35,14.35,0,0,0-.29,2.88,15.29,15.29,0,0,0,.22,2.65,10.63,10.63,0,0,0,.64,2.24h-.8a10.41,10.41,0,0,1-.62-2.19,14.67,14.67,0,0,1-.22-2.61,15.63,15.63,0,0,1,.26-2.84A13.19,13.19,0,0,1,398.85,51.5ZM406,53.84h.73v4.5a5.62,5.62,0,0,1-.2,1.75,2.32,2.32,0,0,1-1,1.2,3.18,3.18,0,0,1-1.7.43,3.89,3.89,0,0,1-1.32-.21,2.32,2.32,0,0,1-.93-.56,3.41,3.41,0,0,1-.68-1h.8a2,2,0,0,0,.81.83,2.76,2.76,0,0,0,1.28.26,2.54,2.54,0,0,0,1.25-.28,1.59,1.59,0,0,0,.74-.68,3.26,3.26,0,0,0,.22-1.36v-.3a2.88,2.88,0,0,1-1,.8,3.06,3.06,0,0,1-1.27.28,2.94,2.94,0,0,1-1.47-.39,2.74,2.74,0,0,1-1.06-1,3,3,0,0,1,2.55-4.38A2.62,2.62,0,0,1,405,54a3.38,3.38,0,0,1,1.07.88Zm-2.16.55a2.32,2.32,0,0,0-2,1.14,2.21,2.21,0,0,0-.3,1.14,2.08,2.08,0,0,0,.62,1.53,2.49,2.49,0,0,0,3.24,0,2.16,2.16,0,0,0,.61-1.6,2.38,2.38,0,0,0-.28-1.14,2.19,2.19,0,0,0-.8-.8A2.24,2.24,0,0,0,403.86,54.39Zm4.17-.55h.75v.83a2.51,2.51,0,0,1,.7-.74,1.43,1.43,0,0,1,.77-.25,1.24,1.24,0,0,1,.64.21l-.37.61a1,1,0,0,0-.38-.1,1.09,1.09,0,0,0-.72.3,2,2,0,0,0-.5.92,8.92,8.92,0,0,0-.14,2V59.5H408Zm9.13,0V59.5h-.72v-1a3.23,3.23,0,0,1-1,.83,2.87,2.87,0,0,1-1.25.28,2.81,2.81,0,0,1-2.05-.86,3,3,0,0,1-.84-2.13,2.85,2.85,0,0,1,.86-2.09,2.8,2.8,0,0,1,2.06-.88,2.62,2.62,0,0,1,1.25.3,2.9,2.9,0,0,1,1,.89v-1Zm-2.92.55a2.11,2.11,0,0,0-1.13.31,2.33,2.33,0,0,0-1.11,2,2.38,2.38,0,0,0,.3,1.15,2.26,2.26,0,0,0,.83.85,2.15,2.15,0,0,0,1.11.3,2.24,2.24,0,0,0,1.12-.3,2,2,0,0,0,.83-.82,2.28,2.28,0,0,0,.3-1.16,2.22,2.22,0,0,0-.66-1.64A2.11,2.11,0,0,0,414.24,54.39Zm4.57-.55h.72v1a3.07,3.07,0,0,1,1-.89,2.61,2.61,0,0,1,1.26-.3,2.8,2.8,0,0,1,2.06.88,2.85,2.85,0,0,1,.86,2.09,2.89,2.89,0,0,1-.86,2.13,2.76,2.76,0,0,1-2,.86,2.9,2.9,0,0,1-1.25-.28,3.19,3.19,0,0,1-1-.83v3h-.72Zm2.91.55a2.11,2.11,0,0,0-1.6.67,2.28,2.28,0,0,0-.64,1.64,2.38,2.38,0,0,0,.29,1.16,2.15,2.15,0,0,0,.82.82,2.31,2.31,0,0,0,1.14.3,2.22,2.22,0,0,0,1.93-1.15,2.39,2.39,0,0,0,.31-1.15,2.32,2.32,0,0,0-.31-1.14,2.14,2.14,0,0,0-.82-.84A2.1,2.1,0,0,0,421.72,54.39Zm4.35-2.74h.73v3.21a2.85,2.85,0,0,1,1-.88,2.26,2.26,0,0,1,1.14-.3,2,2,0,0,1,1.86,1.21,4.65,4.65,0,0,1,.23,1.7V59.5h-.73V56.79a6.92,6.92,0,0,0-.08-1.29,1.4,1.4,0,0,0-.48-.85,1.48,1.48,0,0,0-.94-.29,1.84,1.84,0,0,0-1.19.43,2.2,2.2,0,0,0-.69,1.1,8.43,8.43,0,0,0-.09,1.53V59.5h-.73Zm12.14,2.19v7.74h-.72v-3a3.53,3.53,0,0,1-1.05.83,2.89,2.89,0,0,1-3.3-.58,3,3,0,0,1-.84-2.13,2.89,2.89,0,0,1,.86-2.09,2.8,2.8,0,0,1,2.06-.88,2.67,2.67,0,0,1,1.27.3,3.2,3.2,0,0,1,1,.89v-1Zm-2.93.55a2.1,2.1,0,0,0-1.12.31,2.23,2.23,0,0,0-.83.84,2.27,2.27,0,0,0,0,2.29,2.23,2.23,0,0,0,.82.85,2.2,2.2,0,0,0,1.11.3,2.28,2.28,0,0,0,1.13-.3,2.11,2.11,0,0,0,.83-.82,2.38,2.38,0,0,0,.29-1.16,2.25,2.25,0,0,0-.65-1.64A2.11,2.11,0,0,0,435.28,54.39Zm4.44-2.74h.74V59.5h-.74ZM447,55.31V53.06h.7v2.25H450V56h-2.28v2.25H447V56H444.7v-.72Zm7.5-3.47H456a8.93,8.93,0,0,1,1.72.11,1.93,1.93,0,0,1,1.11.67,1.85,1.85,0,0,1,.44,1.25A2.05,2.05,0,0,1,459,55a2,2,0,0,1-.84.72,3.92,3.92,0,0,1-1.52.23l2.77,3.57h-1l-2.75-3.57h-.43V59.5h-.77Zm.77.75V55.2h1.31a3.38,3.38,0,0,0,1.12-.14,1.15,1.15,0,0,0,.58-.45,1.29,1.29,0,0,0,.22-.74,1.16,1.16,0,0,0-.22-.69,1.08,1.08,0,0,0-.54-.45,3.29,3.29,0,0,0-1.13-.14Zm5.67-.75h4.39v.75h-3.63V55h3.6v.75h-3.6v3h3.6v.75h-4.36Zm4.91,6.24.66-.4c.46.85,1,1.27,1.58,1.27a1.59,1.59,0,0,0,.72-.17,1.27,1.27,0,0,0,.51-.49,1.17,1.17,0,0,0,.19-.65,1.28,1.28,0,0,0-.27-.75,6.15,6.15,0,0,0-1.31-1.22,7.8,7.8,0,0,1-1.19-1.05,1.9,1.9,0,0,1-.4-1.17,1.86,1.86,0,0,1,.23-.91,1.74,1.74,0,0,1,.67-.65,2,2,0,0,1,1-.24,2,2,0,0,1,1,.27,3.37,3.37,0,0,1,1,1l-.63.47a3.06,3.06,0,0,0-.73-.75,1.27,1.27,0,0,0-.66-.19,1,1,0,0,0-.76.29.93.93,0,0,0-.29.7,1.29,1.29,0,0,0,.1.48,1.52,1.52,0,0,0,.39.5,8.46,8.46,0,0,0,1,.77,5.71,5.71,0,0,1,1.36,1.31,2.07,2.07,0,0,1,.38,1.14,2,2,0,0,1-.64,1.46,2.14,2.14,0,0,1-1.53.6,2.4,2.4,0,0,1-1.27-.35A3.66,3.66,0,0,1,465.83,58.08Zm5.34-5.49v-.75h4.2v.75h-1.7V59.5h-.78V52.59ZM477,61.72h-.84a10.74,10.74,0,0,0,.81-2.44,13.17,13.17,0,0,0,.31-2.88,15.28,15.28,0,0,0-.23-2.65,10.4,10.4,0,0,0-.63-2.25h.8a10.54,10.54,0,0,1,.61,2.2,13.78,13.78,0,0,1,.23,2.61,14,14,0,0,1-.28,2.84A11.65,11.65,0,0,1,477,61.72Z"/><path class="cls-5" d="M25.68,254.74H179V282.2H25.68Z"/><path class="cls-3" d="M61.57,266.55h.71v1a2.9,2.9,0,0,1,.79-.78,2.11,2.11,0,0,1,1.15-.34,1.77,1.77,0,0,1,.78.17,1.51,1.51,0,0,1,.61.42,2.29,2.29,0,0,1,.41.77,2.61,2.61,0,0,1,.91-1,2.07,2.07,0,0,1,1.17-.36,1.76,1.76,0,0,1,1.7,1.12,4.37,4.37,0,0,1,.22,1.6v3.09h-.74v-3.09a3.54,3.54,0,0,0-.14-1.25,1.07,1.07,0,0,0-.43-.55,1.32,1.32,0,0,0-.75-.2,1.6,1.6,0,0,0-1,.31,1.77,1.77,0,0,0-.64.83,5,5,0,0,0-.21,1.73v2.22h-.73v-2.89a4.69,4.69,0,0,0-.13-1.39,1.12,1.12,0,0,0-.45-.6,1.32,1.32,0,0,0-.75-.21,1.6,1.6,0,0,0-.94.31,1.8,1.8,0,0,0-.65.81,4.38,4.38,0,0,0-.21,1.56v2.41h-.71Zm15.63,0v5.66h-.72v-1a3,3,0,0,1-1,.83,2.7,2.7,0,0,1-1.25.28,2.79,2.79,0,0,1-2-.86,3,3,0,0,1,0-4.22,2.79,2.79,0,0,1,2.06-.87,2.71,2.71,0,0,1,1.25.29,2.82,2.82,0,0,1,1,.89v-1Zm-2.92.55a2.08,2.08,0,0,0-1.12.31,2.3,2.3,0,0,0-1.11,2,2.36,2.36,0,0,0,.29,1.14,2.45,2.45,0,0,0,.83.86,2.24,2.24,0,0,0,1.11.29,2.38,2.38,0,0,0,1.13-.29,2.11,2.11,0,0,0,.82-.83,2.38,2.38,0,0,0-.36-2.8A2.08,2.08,0,0,0,74.28,267.1Zm4.28-.55h.75v.83a2.34,2.34,0,0,1,.7-.73,1.35,1.35,0,0,1,.77-.25,1.22,1.22,0,0,1,.64.2l-.38.61a1,1,0,0,0-1.09.2,1.88,1.88,0,0,0-.5.92,8.92,8.92,0,0,0-.14,2v1.92h-.75Zm9.13,0v7.74H87v-3.05a3.16,3.16,0,0,1-1,.83,2.68,2.68,0,0,1-1.23.28,2.84,2.84,0,0,1-2.07-.86,2.94,2.94,0,0,1-.84-2.12,2.91,2.91,0,0,1,.86-2.1,2.89,2.89,0,0,1,3.33-.58,3.09,3.09,0,0,1,1,.89v-1Zm-2.93.55a2.1,2.1,0,0,0-1.12.31,2.32,2.32,0,0,0-1.13,2,2.29,2.29,0,0,0,.32,1.14,2.36,2.36,0,0,0,.83.86,2.23,2.23,0,0,0,1.1.29,2.35,2.35,0,0,0,1.13-.29,2.2,2.2,0,0,0,.83-.83,2.25,2.25,0,0,0,.29-1.16,2.22,2.22,0,0,0-.65-1.64A2.11,2.11,0,0,0,84.76,267.1Zm4.46-.55H90v2.64a5.61,5.61,0,0,0,.1,1.33,1.58,1.58,0,0,0,.6.83,1.8,1.8,0,0,0,1,.3,1.74,1.74,0,0,0,1-.3,1.46,1.46,0,0,0,.57-.77,5.08,5.08,0,0,0,.11-1.39v-2.64h.75v2.78a4.15,4.15,0,0,1-.28,1.75,2.06,2.06,0,0,1-.81.94,2.6,2.6,0,0,1-1.37.33,2.74,2.74,0,0,1-1.4-.33,2.14,2.14,0,0,1-.82-.94,4.65,4.65,0,0,1-.27-1.81Zm11.34,3.78.61.32a3.29,3.29,0,0,1-.71,1,2.53,2.53,0,0,1-.89.54,2.93,2.93,0,0,1-1.11.19,2.68,2.68,0,0,1-2.15-.91,3,3,0,0,1-.78-2,3.07,3.07,0,0,1,.65-1.92,2.71,2.71,0,0,1,2.24-1.08,2.76,2.76,0,0,1,2.31,1.11,2.93,2.93,0,0,1,.63,1.93H96.28a2.35,2.35,0,0,0,.62,1.63,2,2,0,0,0,1.5.62,2.45,2.45,0,0,0,.85-.15,2.16,2.16,0,0,0,.68-.41A3.17,3.17,0,0,0,100.56,270.33Zm0-1.53a2.53,2.53,0,0,0-.42-.92,1.85,1.85,0,0,0-.75-.56,2.14,2.14,0,0,0-1-.22,2.08,2.08,0,0,0-1.42.53,2.53,2.53,0,0,0-.67,1.17Zm1.69-2.25h4.16l-3.21,5h3.11v.64H102l3.21-5h-2.91Zm4.53,2.47h2.86v.63h-2.86Zm9.64-2.47v5.66h-.71v-1a3.13,3.13,0,0,1-1,.83,2.7,2.7,0,0,1-1.25.28,2.79,2.79,0,0,1-2-.86,3,3,0,0,1,0-4.22,2.81,2.81,0,0,1,2.07-.87,2.77,2.77,0,0,1,1.25.29,3,3,0,0,1,1,.89v-1Zm-2.92.55a2.1,2.1,0,0,0-1.12.31,2.24,2.24,0,0,0-.82.85,2.36,2.36,0,0,0-.29,1.14,2.47,2.47,0,0,0,.29,1.14,2.45,2.45,0,0,0,.83.86,2.3,2.3,0,0,0,1.11.29,2.38,2.38,0,0,0,1.13-.29,2.2,2.2,0,0,0,.83-.83,2.35,2.35,0,0,0,.29-1.16,2.26,2.26,0,0,0-.65-1.64A2.11,2.11,0,0,0,113.5,267.1Zm4.81-2.89a.59.59,0,0,1,.42,1,.54.54,0,0,1-.42.17.6.6,0,0,1-.42-.17.6.6,0,0,1,0-.84A.58.58,0,0,1,118.31,264.21Zm-.36,2.34h.74v5.66H118Zm2,0h.75v.83a2.36,2.36,0,0,1,.71-.73,1.32,1.32,0,0,1,.76-.25,1.19,1.19,0,0,1,.64.2l-.37.61a1.13,1.13,0,0,0-.38-.09,1,1,0,0,0-.71.29,1.88,1.88,0,0,0-.5.92,8.14,8.14,0,0,0-.15,2v1.92h-.75Zm5.82-2.18v.7a1.73,1.73,0,0,0-.69-.17.62.62,0,0,0-.34.09.37.37,0,0,0-.19.2,3.36,3.36,0,0,0,0,.6v.76h1.17v.63h-1.17v5h-.73v-5H123v-.63h.75v-.89a2.29,2.29,0,0,1,.1-.86,1,1,0,0,1,.38-.42,1.3,1.3,0,0,1,.66-.17A2.62,2.62,0,0,1,125.73,264.37Zm.91,0h.73v7.84h-.73Zm4.91,2a2.77,2.77,0,0,1,2.17,1,3,3,0,0,1,0,4.13,3,3,0,0,1-4.25,0,3.05,3.05,0,0,1,0-4.13A2.75,2.75,0,0,1,131.55,266.4Zm0,.72a2.06,2.06,0,0,0-1.54.67,2.23,2.23,0,0,0-.66,1.62,2.26,2.26,0,0,0,.3,1.14,2.11,2.11,0,0,0,.79.83,2.29,2.29,0,0,0,1.11.28,2.18,2.18,0,0,0,1.11-.28,2,2,0,0,0,.81-.83,2.26,2.26,0,0,0,.3-1.14,2.23,2.23,0,0,0-.66-1.62A2.07,2.07,0,0,0,131.55,267.12Zm3.54-.57h.75l1.74,4.11,1.81-4.11h.12l1.82,4.11,1.76-4.11h.77l-2.46,5.66h-.14l-1.81-4-1.81,4h-.13Z"/><path class="cls-6" d="M19.38,279H185.27v40.28H19.38Z"/><path class="cls-3" d="M80.84,292.79l5.81,12.45H85.31l-2-4.09H78l-2,4.09H74.67l5.87-12.45Zm-.14,2.64-2.14,4.51h4.25Zm8.1-3.19a.92.92,0,0,1,.69.3.91.91,0,0,1,.29.68,1,1,0,0,1-1,1,1,1,0,0,1-.69-.28.94.94,0,0,1-.28-.69.9.9,0,0,1,.28-.68A1,1,0,0,1,88.8,292.24Zm-.59,3.8h1.18v9.2H88.21Zm3.2,0h1.2v1.34a4.51,4.51,0,0,1,1.14-1.19A2.32,2.32,0,0,1,95,295.8a2.24,2.24,0,0,1,1.06.31l-.62,1a1.65,1.65,0,0,0-.63-.17,1.72,1.72,0,0,0-1.14.5,3.25,3.25,0,0,0-.84,1.5,14.31,14.31,0,0,0-.22,3.19v3.11h-1.2Zm9.44-3.57v1.18a2.86,2.86,0,0,0-1.1-.29,1.21,1.21,0,0,0-.6.14.71.71,0,0,0-.28.33,5.49,5.49,0,0,0-.05,1V296h1.91v1H98.81v8.19H97.62v-8.19h-1.2v-1h1.2V294.6a4.24,4.24,0,0,1,.17-1.42,1.53,1.53,0,0,1,.63-.68,2.06,2.06,0,0,1,1.06-.26A5.14,5.14,0,0,1,100.85,292.47Zm1.48,0h1.18v12.77h-1.18Zm8,3.33a4.6,4.6,0,0,1,3.53,1.53,4.83,4.83,0,0,1,1.26,3.33,4.78,4.78,0,0,1-1.34,3.38,4.89,4.89,0,0,1-6.91,0,4.93,4.93,0,0,1-.06-6.69A4.54,4.54,0,0,1,110.33,295.8Zm0,1.16a3.38,3.38,0,0,0-2.53,1.09,3.68,3.68,0,0,0-1,2.64,3.73,3.73,0,0,0,.47,1.86,3.42,3.42,0,0,0,1.31,1.33,3.61,3.61,0,0,0,1.8.47,3.54,3.54,0,0,0,1.79-.47,3.44,3.44,0,0,0,1.32-1.33,3.74,3.74,0,0,0,.48-1.86,3.65,3.65,0,0,0-1.06-2.64A3.4,3.4,0,0,0,110.33,297Zm5.75-.92h1.22l2.81,6.68,3-6.68h.22l2.94,6.68,2.87-6.68h1.24l-4,9.2h-.22l-2.94-6.59-3,6.59H120Z"/><path class="cls-7" d="M102.31,254.75V228.48"/><path class="cls-8" d="M105.62,228.48l-3.31-9.08L99,228.48Z"/><path class="cls-5" d="M220.66,254.74H374.05V282.2H220.66Z"/><path class="cls-3" d="M259.94,266.56h.72v1a2.88,2.88,0,0,1,.78-.78,2.14,2.14,0,0,1,1.16-.34,1.92,1.92,0,0,1,.78.17,1.84,1.84,0,0,1,.61.42,2.39,2.39,0,0,1,.4.77,2.69,2.69,0,0,1,.91-1,2.09,2.09,0,0,1,1.17-.36,1.76,1.76,0,0,1,1,.3,1.65,1.65,0,0,1,.67.82,4.37,4.37,0,0,1,.22,1.6v3.09h-.73v-3.09a3.84,3.84,0,0,0-.14-1.25,1.08,1.08,0,0,0-.44-.55,1.4,1.4,0,0,0-.75-.2,1.62,1.62,0,0,0-1,.31,1.88,1.88,0,0,0-.64.83,5.35,5.35,0,0,0-.2,1.73v2.22h-.74v-2.89a5.2,5.2,0,0,0-.12-1.39,1.11,1.11,0,0,0-.45-.59,1.25,1.25,0,0,0-.75-.22,1.56,1.56,0,0,0-.94.31,1.88,1.88,0,0,0-.66.81,4.74,4.74,0,0,0-.2,1.57v2.4h-.72Zm15.64,0v5.65h-.72v-1a3.1,3.1,0,0,1-1,.83,2.89,2.89,0,0,1-3.3-.58,2.94,2.94,0,0,1-.84-2.12,2.88,2.88,0,0,1,.86-2.1,2.79,2.79,0,0,1,2.06-.87,2.62,2.62,0,0,1,1.25.3,2.71,2.71,0,0,1,1,.89v-1Zm-2.93.54a2.11,2.11,0,0,0-1.12.32,2.19,2.19,0,0,0-.81.84,2.26,2.26,0,0,0-.3,1.14,2.31,2.31,0,0,0,.3,1.14,2.29,2.29,0,0,0,.83.86,2.14,2.14,0,0,0,1.1.3,2.25,2.25,0,0,0,1.13-.3,2.14,2.14,0,0,0,.83-.83,2.42,2.42,0,0,0-.36-2.8A2.15,2.15,0,0,0,272.65,267.1Zm4.28-.54h.75v.82a2.48,2.48,0,0,1,.71-.73,1.2,1.2,0,0,1,1.4,0l-.37.61a1.13,1.13,0,0,0-.38-.09,1.09,1.09,0,0,0-.72.3,2,2,0,0,0-.5.92,8.75,8.75,0,0,0-.14,2v1.92h-.75Zm9.13,0v7.73h-.72v-3.05a3.23,3.23,0,0,1-1,.83,2.72,2.72,0,0,1-1.24.28,2.78,2.78,0,0,1-2.06-.86,3,3,0,0,1,0-4.22,2.81,2.81,0,0,1,2.07-.87,2.61,2.61,0,0,1,1.26.3,2.79,2.79,0,0,1,1,.89v-1Zm-2.92.54a2.15,2.15,0,0,0-1.13.32,2.07,2.07,0,0,0-.82.84,2.26,2.26,0,0,0-.3,1.14,2.22,2.22,0,0,0,.31,1.14,2.36,2.36,0,0,0,.83.86,2.15,2.15,0,0,0,1.11.3,2.24,2.24,0,0,0,1.12-.3,2.07,2.07,0,0,0,.83-.83,2.38,2.38,0,0,0-.36-2.8A2.13,2.13,0,0,0,283.14,267.1Zm4.46-.54h.73v2.64a5.36,5.36,0,0,0,.11,1.32,1.51,1.51,0,0,0,.59.83,1.8,1.8,0,0,0,1.05.3,1.72,1.72,0,0,0,1-.3,1.45,1.45,0,0,0,.58-.76,5.6,5.6,0,0,0,.11-1.39v-2.64h.75v2.78a4.22,4.22,0,0,1-.28,1.75,2.1,2.1,0,0,1-.81.93,2.66,2.66,0,0,1-1.38.33,2.7,2.7,0,0,1-1.39-.33,2.14,2.14,0,0,1-.83-.93,4.74,4.74,0,0,1-.26-1.82Zm11.33,3.78.61.31a3.32,3.32,0,0,1-.7,1,2.82,2.82,0,0,1-.89.55,3.15,3.15,0,0,1-1.11.18,2.71,2.71,0,0,1-2.16-.9,3.07,3.07,0,0,1-.78-2.05,3,3,0,0,1,.66-1.92,2.69,2.69,0,0,1,2.23-1.08,2.76,2.76,0,0,1,2.31,1.11,3,3,0,0,1,.63,1.94h-5.08a2.31,2.31,0,0,0,.63,1.62,2,2,0,0,0,1.5.63,2.41,2.41,0,0,0,.84-.16,2.14,2.14,0,0,0,.69-.41A3.09,3.09,0,0,0,298.93,270.34Zm0-1.53a2.23,2.23,0,0,0-.42-.93,2,2,0,0,0-.75-.56,2.24,2.24,0,0,0-.95-.22,2.07,2.07,0,0,0-1.42.53,2.49,2.49,0,0,0-.68,1.18Zm1.69-2.25h4.16l-3.2,5h3.11v.64h-4.36l3.2-5h-2.91Zm4.53,2.46H308v.63h-2.86Zm6.85-1.85-.47.48a1.63,1.63,0,0,0-1.14-.56.93.93,0,0,0-.61.23.76.76,0,0,0-.25.55.83.83,0,0,0,.22.53,2.94,2.94,0,0,0,.88.59,3.36,3.36,0,0,1,1.09.82,1.45,1.45,0,0,1,.28.89,1.59,1.59,0,0,1-.48,1.17,1.67,1.67,0,0,1-1.22.48,2.21,2.21,0,0,1-.94-.2,2.11,2.11,0,0,1-.73-.59l.45-.52a1.6,1.6,0,0,0,1.19.63,1,1,0,0,0,.73-.29.86.86,0,0,0,.11-1.21,3.34,3.34,0,0,0-.91-.61,3,3,0,0,1-1-.77,1.47,1.47,0,0,1-.28-.89,1.4,1.4,0,0,1,.43-1.06,1.59,1.59,0,0,1,1.13-.44A2.31,2.31,0,0,1,312,267.17Zm1.31-.61H314v1a2.92,2.92,0,0,1,1-.89,2.67,2.67,0,0,1,1.27-.3,2.79,2.79,0,0,1,2.06.87,3,3,0,0,1,0,4.22,2.73,2.73,0,0,1-2,.86,2.82,2.82,0,0,1-1.25-.28,3.14,3.14,0,0,1-1-.83v3.05h-.72Zm2.91.54a2.15,2.15,0,0,0-1.6.67,2.3,2.3,0,0,0-.64,1.65,2.44,2.44,0,0,0,.28,1.15,2.28,2.28,0,0,0,.83.83,2.31,2.31,0,0,0,1.14.3,2.17,2.17,0,0,0,1.1-.3,2.12,2.12,0,0,0,.82-.86,2.23,2.23,0,0,0,.32-1.14,2.18,2.18,0,0,0-.32-1.14,1.94,1.94,0,0,0-.81-.84A2.11,2.11,0,0,0,316.22,267.1Zm10-.54v5.65h-.71v-1a3.13,3.13,0,0,1-1,.83,2.7,2.7,0,0,1-1.25.28,2.75,2.75,0,0,1-2-.86,3,3,0,0,1,0-4.22,2.81,2.81,0,0,1,2.07-.87,2.65,2.65,0,0,1,1.25.3,2.79,2.79,0,0,1,1,.89v-1Zm-2.92.54a2.11,2.11,0,0,0-1.12.32,2.14,2.14,0,0,0-.82.84,2.36,2.36,0,0,0-.29,1.14,2.41,2.41,0,0,0,.29,1.14,2.36,2.36,0,0,0,.83.86,2.2,2.2,0,0,0,1.11.3,2.28,2.28,0,0,0,1.13-.3,2.14,2.14,0,0,0,.83-.83,2.34,2.34,0,0,0,.29-1.15,2.27,2.27,0,0,0-.65-1.65A2.15,2.15,0,0,0,323.28,267.1Zm4.28-.54h.75v.82a2.46,2.46,0,0,1,.7-.73,1.35,1.35,0,0,1,.77-.25,1.32,1.32,0,0,1,.64.2l-.37.61a1.18,1.18,0,0,0-.38-.09,1.09,1.09,0,0,0-.72.3,1.86,1.86,0,0,0-.5.92,8.75,8.75,0,0,0-.14,2v1.92h-.75Zm3.49-2.19h.73v4.47l2.61-2.28h1.08l-3.11,2.7,3.28,2.95h-1l-2.83-2.54v2.54h-.73Z"/><path class="cls-6" d="M214.48,279H380.24v40.28H214.48Z"/><path class="cls-3" d="M274.5,302.93l1.05-.64c.75,1.37,1.61,2.06,2.57,2.06a2.42,2.42,0,0,0,1.19-.3,2,2,0,0,0,.83-.78,2,2,0,0,0,.3-1A2,2,0,0,0,280,301a10.15,10.15,0,0,0-2.14-2,10.64,10.64,0,0,1-1.93-1.71,3.07,3.07,0,0,1-.66-1.9,2.85,2.85,0,0,1,1.48-2.53,3.12,3.12,0,0,1,1.54-.39,3.28,3.28,0,0,1,1.65.43,5.66,5.66,0,0,1,1.61,1.61l-1,.77a4.74,4.74,0,0,0-1.21-1.22,2,2,0,0,0-1.06-.3,1.72,1.72,0,0,0-1.25.46,1.49,1.49,0,0,0-.47,1.12,2.05,2.05,0,0,0,.17.8,3,3,0,0,0,.63.81,15.91,15.91,0,0,0,1.61,1.25,8.78,8.78,0,0,1,2.2,2.13,3.33,3.33,0,0,1,.61,1.87,3.13,3.13,0,0,1-1,2.34,3.45,3.45,0,0,1-2.5,1,3.67,3.67,0,0,1-2.06-.59A5.44,5.44,0,0,1,274.5,302.93Zm9.74-6.89h1.17v1.69a4.63,4.63,0,0,1,1.61-1.44,4.37,4.37,0,0,1,2.05-.49,4.51,4.51,0,0,1,3.34,1.43,4.59,4.59,0,0,1,1.41,3.39,4.79,4.79,0,0,1-1.39,3.45,4.66,4.66,0,0,1-5.36.95,4.82,4.82,0,0,1-1.66-1.36v5h-1.17ZM289,297a3.52,3.52,0,0,0-2.61,1.07,3.69,3.69,0,0,0-1,2.68,3.79,3.79,0,0,0,.47,1.89,3.57,3.57,0,0,0,1.35,1.32,3.71,3.71,0,0,0,1.85.49,3.54,3.54,0,0,0,1.8-.5,3.63,3.63,0,0,0,1.34-1.38,3.71,3.71,0,0,0,0-3.72,3.53,3.53,0,0,0-1.34-1.37A3.59,3.59,0,0,0,289,297ZM305.2,296v9.2H304v-1.58a5,5,0,0,1-1.68,1.36,4.44,4.44,0,0,1-2,.46,4.51,4.51,0,0,1-3.34-1.41,4.78,4.78,0,0,1-1.38-3.45,4.81,4.81,0,0,1,4.75-4.82,4.34,4.34,0,0,1,2.05.49,4.57,4.57,0,0,1,1.62,1.44V296Zm-4.74.91a3.62,3.62,0,0,0-1.82.48,3.51,3.51,0,0,0-1.33,1.37,3.71,3.71,0,0,0,0,3.72,3.63,3.63,0,0,0,1.34,1.38,3.53,3.53,0,0,0,1.81.5,3.69,3.69,0,0,0,1.85-.49,3.47,3.47,0,0,0,1.34-1.32,3.89,3.89,0,0,0,.47-1.89,3.62,3.62,0,0,0-1.06-2.68A3.46,3.46,0,0,0,300.46,297Zm7-.91h1.2v1.34a4.16,4.16,0,0,1,1.14-1.18,2.31,2.31,0,0,1,1.25-.4,2.18,2.18,0,0,1,1.06.32l-.62,1a1.49,1.49,0,0,0-.63-.17,1.67,1.67,0,0,0-1.14.5,3.15,3.15,0,0,0-.84,1.5,14.2,14.2,0,0,0-.22,3.18v3.11h-1.2Zm5.65-3.56h1.18v7.26l4.27-3.7h1.73l-5,4.39,5.34,4.81h-1.67l-4.63-4.14v4.14h-1.18Z"/><path class="cls-7" d="M297.36,254.75V228.48"/><path class="cls-8" d="M300.67,228.48l-3.31-9.08-3.3,9.08Z"/><path class="cls-9" d="M415.66,254.75H569.05V279H415.66Z"/><path class="cls-3" d="M447.73,262.94h3.82v.75h-3.07v2.41h3.07v.75h-3.07v3.75h-.75Zm4.94,2h.74v2.64a5,5,0,0,0,.11,1.33,1.54,1.54,0,0,0,.59.83,1.8,1.8,0,0,0,1.05.3,1.74,1.74,0,0,0,1-.3,1.53,1.53,0,0,0,.58-.77,5.6,5.6,0,0,0,.11-1.39v-2.64h.75v2.78a4.35,4.35,0,0,1-.28,1.75,2.08,2.08,0,0,1-.82.94,2.6,2.6,0,0,1-1.37.33,2.7,2.7,0,0,1-1.39-.33,2.16,2.16,0,0,1-.83-.94,4.65,4.65,0,0,1-.27-1.81Zm7.22-2.11h.73v2.11h1.14v.63h-1.14v5h-.73v-5h-1v-.63h1Zm2.87,2.11h.74v2.64a5,5,0,0,0,.11,1.33,1.54,1.54,0,0,0,.59.83,1.8,1.8,0,0,0,1.05.3,1.74,1.74,0,0,0,1-.3,1.53,1.53,0,0,0,.58-.77,5.6,5.6,0,0,0,.11-1.39v-2.64h.75v2.78a4.16,4.16,0,0,1-.29,1.75,2,2,0,0,1-.81.94,2.6,2.6,0,0,1-1.37.33,2.67,2.67,0,0,1-1.39-.33,2.16,2.16,0,0,1-.83-.94,4.65,4.65,0,0,1-.27-1.81Zm6.29,0h.75v.83a2.36,2.36,0,0,1,.71-.73,1.32,1.32,0,0,1,.76-.25,1.22,1.22,0,0,1,.64.2l-.37.61a1.19,1.19,0,0,0-.38-.1,1.09,1.09,0,0,0-.72.3,2,2,0,0,0-.5.92,8.92,8.92,0,0,0-.14,2v1.92h-.75Zm8.25,3.78.61.32a3.22,3.22,0,0,1-.7,1,2.65,2.65,0,0,1-.89.55,2.93,2.93,0,0,1-1.11.19,2.7,2.7,0,0,1-2.16-.91,3,3,0,0,1-.78-2,3.07,3.07,0,0,1,.66-1.93,2.71,2.71,0,0,1,2.23-1.07,2.79,2.79,0,0,1,2.32,1.11,3,3,0,0,1,.62,1.93H473a2.32,2.32,0,0,0,.63,1.63,2,2,0,0,0,1.5.62,2.4,2.4,0,0,0,.84-.15,2.34,2.34,0,0,0,.69-.41A3,3,0,0,0,477.3,268.72Zm0-1.53a2.24,2.24,0,0,0-.42-.92,1.73,1.73,0,0,0-.75-.56,2.1,2.1,0,0,0-.95-.22,2.07,2.07,0,0,0-1.42.53,2.45,2.45,0,0,0-.67,1.17Zm5.13-4.25h.77v7.66h-.77Zm2.39,2h.74v1a3,3,0,0,1,.95-.88,2.32,2.32,0,0,1,1.16-.29,2,2,0,0,1,1.12.32,1.92,1.92,0,0,1,.74.88,4.72,4.72,0,0,1,.23,1.7v2.91H489v-2.7a6,6,0,0,0-.09-1.3,1.41,1.41,0,0,0-.49-.85,1.44,1.44,0,0,0-.93-.29,1.77,1.77,0,0,0-1.19.44,2.13,2.13,0,0,0-.69,1.09,8.58,8.58,0,0,0-.09,1.53v2.08h-.74Zm7.14-2.11h.74v2.11h1.14v.63H492.7v5H492v-5h-1v-.63h1Zm7.74,5.89.61.32a3.4,3.4,0,0,1-.7,1,2.65,2.65,0,0,1-.89.55,3,3,0,0,1-1.11.19,2.68,2.68,0,0,1-2.16-.91,3,3,0,0,1-.78-2,3.12,3.12,0,0,1,.65-1.93,2.73,2.73,0,0,1,2.24-1.07,2.76,2.76,0,0,1,2.31,1.11,2.93,2.93,0,0,1,.63,1.93h-5.08a2.35,2.35,0,0,0,.62,1.63,2,2,0,0,0,1.5.62,2.41,2.41,0,0,0,.85-.15,2.16,2.16,0,0,0,.68-.41A3.17,3.17,0,0,0,499.7,268.72Zm0-1.53a2.24,2.24,0,0,0-.42-.92,1.85,1.85,0,0,0-.75-.56,2.11,2.11,0,0,0-1-.22,2.08,2.08,0,0,0-1.42.53,2.53,2.53,0,0,0-.67,1.17Zm7-2.25h.74v4.5a5.62,5.62,0,0,1-.2,1.75,2.43,2.43,0,0,1-1,1.21,3.28,3.28,0,0,1-1.71.42,3.83,3.83,0,0,1-1.31-.21,2.36,2.36,0,0,1-.94-.56,3.4,3.4,0,0,1-.67-1h.8a2,2,0,0,0,.81.83,2.73,2.73,0,0,0,1.28.27,2.54,2.54,0,0,0,1.25-.29,1.59,1.59,0,0,0,.74-.68,3.26,3.26,0,0,0,.21-1.36v-.3a2.79,2.79,0,0,1-1,.8,3,3,0,0,1-1.26.28,2.94,2.94,0,0,1-1.47-.39,2.74,2.74,0,0,1-1.06-1,2.9,2.9,0,0,1,0-2.89,3,3,0,0,1,2.53-1.48,2.63,2.63,0,0,1,1.19.26,3.25,3.25,0,0,1,1.06.88Zm-2.15.55a2.17,2.17,0,0,0-1.14.31,2.26,2.26,0,0,0-.85.83,2.3,2.3,0,0,0-.29,1.14,2.07,2.07,0,0,0,.62,1.53,2.49,2.49,0,0,0,3.24,0,2.2,2.2,0,0,0,.61-1.6,2.3,2.3,0,0,0-.29-1.14,2,2,0,0,0-.79-.79A2.2,2.2,0,0,0,504.58,265.49Zm4.17-.55h.75v.83a2.34,2.34,0,0,1,.7-.73,1.35,1.35,0,0,1,.77-.25,1.22,1.22,0,0,1,.64.2l-.38.61a1.14,1.14,0,0,0-.37-.1,1.09,1.09,0,0,0-.72.3,1.88,1.88,0,0,0-.5.92,8.92,8.92,0,0,0-.14,2v1.92h-.75Zm9.13,0v5.66h-.72v-1a3.34,3.34,0,0,1-1,.83,2.76,2.76,0,0,1-1.25.28,2.8,2.8,0,0,1-2-.86,3,3,0,0,1-.85-2.13,2.89,2.89,0,0,1,.86-2.09,2.81,2.81,0,0,1,2.07-.87,2.62,2.62,0,0,1,1.25.29,2.9,2.9,0,0,1,1,.89v-1Zm-2.93.55a2.1,2.1,0,0,0-1.12.31,2.21,2.21,0,0,0-.81.85,2.26,2.26,0,0,0-.3,1.14,2.37,2.37,0,0,0,.3,1.14,2.34,2.34,0,0,0,.82.86,2.3,2.3,0,0,0,1.11.29,2.38,2.38,0,0,0,1.13-.29,2.2,2.2,0,0,0,.83-.83,2.38,2.38,0,0,0,.29-1.16,2.26,2.26,0,0,0-.65-1.64A2.11,2.11,0,0,0,515,265.49Zm5.2-2.66h.74v2.11H522v.63h-1.14v5h-.74v-5h-1v-.63h1Zm3.23-.23a.63.63,0,0,1,.6.61.56.56,0,0,1-.18.42.61.61,0,0,1-.42.17.65.65,0,0,1-.43-.17.59.59,0,0,1-.17-.42.57.57,0,0,1,.17-.42A.59.59,0,0,1,523.38,262.6Zm-.36,2.34h.73v5.66H523Zm4.91-.15a2.77,2.77,0,0,1,2.17.95,3.05,3.05,0,0,1,0,4.12,3,3,0,0,1-4.25,0,2.93,2.93,0,0,1-.82-2.07,3,3,0,0,1,.78-2.05A2.79,2.79,0,0,1,527.93,264.79Zm0,.71a2.11,2.11,0,0,0-1.55.68,2.25,2.25,0,0,0-.65,1.62,2.36,2.36,0,0,0,.29,1.14,2.2,2.2,0,0,0,.8.83,2.23,2.23,0,0,0,1.11.28,2.18,2.18,0,0,0,1.11-.28,2.15,2.15,0,0,0,.81-.83,2.26,2.26,0,0,0,.3-1.14,2.22,2.22,0,0,0-.66-1.62A2.1,2.1,0,0,0,527.93,265.5Zm4.31-.56H533v1a3,3,0,0,1,.95-.88,2.32,2.32,0,0,1,1.16-.29,2,2,0,0,1,1.13.32,2,2,0,0,1,.73.88,4.51,4.51,0,0,1,.23,1.7v2.91h-.71v-2.7a5.76,5.76,0,0,0-.1-1.3,1.4,1.4,0,0,0-.48-.85,1.48,1.48,0,0,0-.94-.29,1.79,1.79,0,0,0-1.19.44,2.13,2.13,0,0,0-.69,1.09,8.58,8.58,0,0,0-.09,1.53v2.08h-.73Z"/><path class="cls-10" d="M409.48,279H575.24v40.28H409.48Z"/><path class="cls-3" d="M448.8,292.79H455V294h-5v3.89h5v1.24h-5v6.09H448.8Zm8.06,3.25h1.19v4.3a8.85,8.85,0,0,0,.17,2.17,2.44,2.44,0,0,0,1,1.34,3,3,0,0,0,1.7.49,2.84,2.84,0,0,0,1.67-.49,2.41,2.41,0,0,0,1-1.25,8.87,8.87,0,0,0,.18-2.26V296h1.21v4.51a6.92,6.92,0,0,1-.46,2.88,3.32,3.32,0,0,1-1.32,1.5,4.86,4.86,0,0,1-4.49,0,3.42,3.42,0,0,1-1.34-1.52,7.53,7.53,0,0,1-.44-2.93Zm11.72-3.42h1.19V296h1.87v1h-1.87v8.19h-1.19v-8.19H467v-1h1.62Zm4.69,3.42h1.18v4.3a9.4,9.4,0,0,0,.17,2.17,2.44,2.44,0,0,0,1,1.34,3,3,0,0,0,1.71.49,2.86,2.86,0,0,0,1.67-.49,2.34,2.34,0,0,0,.95-1.25,8.27,8.27,0,0,0,.19-2.26V296h1.2v4.51a7.11,7.11,0,0,1-.45,2.88,3.34,3.34,0,0,1-1.33,1.5,4.23,4.23,0,0,1-2.23.55,4.31,4.31,0,0,1-2.25-.55,3.44,3.44,0,0,1-1.35-1.52,7.56,7.56,0,0,1-.43-2.93Zm10.23,0h1.21v1.34a4.16,4.16,0,0,1,1.14-1.18,2.28,2.28,0,0,1,1.25-.4,2.21,2.21,0,0,1,1.06.32l-.63,1a1.45,1.45,0,0,0-.62-.17,1.63,1.63,0,0,0-1.14.5,3.08,3.08,0,0,0-.85,1.5,15.09,15.09,0,0,0-.21,3.18v3.11H483.5Zm13.4,6.16,1,.51a5.3,5.3,0,0,1-1.12,1.56,4.43,4.43,0,0,1-1.46.91,5.09,5.09,0,0,1-1.81.3A4.43,4.43,0,0,1,490,304a5.06,5.06,0,0,1-1.27-3.35,4.93,4.93,0,0,1,1.08-3.12,4.39,4.39,0,0,1,3.64-1.74,4.55,4.55,0,0,1,3.77,1.79,4.94,4.94,0,0,1,1,3.14h-8.28a3.77,3.77,0,0,0,1,2.64,3.31,3.31,0,0,0,2.45,1,4,4,0,0,0,2.5-.91A5.34,5.34,0,0,0,496.9,302.2Zm0-2.49a3.65,3.65,0,0,0-.69-1.51,3.19,3.19,0,0,0-1.2-.91,3.46,3.46,0,0,0-1.55-.36,3.34,3.34,0,0,0-2.32.87,4,4,0,0,0-1.08,1.91Zm7.28-5.7v-1.22H511V294h-2.78v11.23H507V294ZM517,295.8a4.6,4.6,0,0,1,3.53,1.54,4.94,4.94,0,0,1-.08,6.7,4.85,4.85,0,0,1-6.9,0,4.91,4.91,0,0,1-.07-6.69A4.54,4.54,0,0,1,517,295.8Zm0,1.16a3.44,3.44,0,0,0-2.53,1.09,3.68,3.68,0,0,0-1,2.65,3.82,3.82,0,0,0,.47,1.85,3.35,3.35,0,0,0,1.31,1.33,3.68,3.68,0,0,0,3.6,0,3.42,3.42,0,0,0,1.31-1.33,3.73,3.73,0,0,0,.48-1.85,3.65,3.65,0,0,0-1.06-2.65A3.44,3.44,0,0,0,517,297Zm11.34-1.16a4.62,4.62,0,0,1,3.54,1.54,5,5,0,0,1-.08,6.7,4.86,4.86,0,0,1-6.91,0,4.8,4.8,0,0,1-1.34-3.38,4.73,4.73,0,0,1,1.28-3.31A4.53,4.53,0,0,1,528.29,295.8Zm0,1.16a3.45,3.45,0,0,0-2.53,1.09,3.89,3.89,0,0,0-.57,4.5,3.35,3.35,0,0,0,1.31,1.33,3.5,3.5,0,0,0,1.79.47,3.46,3.46,0,0,0,1.8-.47,3.35,3.35,0,0,0,1.31-1.33,3.63,3.63,0,0,0,.49-1.85,3.69,3.69,0,0,0-1.06-2.65A3.46,3.46,0,0,0,528.29,297Zm6.82-4.48h1.19v12.76h-1.19Z"/><path class="cls-7" d="M492.36,254.75V228.48"/><path class="cls-8" d="M495.67,228.48l-3.31-9.08-3.3,9.08Z"/></svg>