<svg id="Layer_1" data-name="Layer 1" xmlns="http://www.w3.org/2000/svg" xmlns:xlink="http://www.w3.org/1999/xlink" viewBox="0 0 728 155.1"><defs><style>.cls-1{fill:#b7bfca;}.cls-2{filter:url(#g1);}.cls-3{fill:#dddde4;}.cls-12,.cls-13,.cls-14,.cls-19,.cls-21,.cls-23,.cls-24,.cls-25,.cls-26,.cls-27,.cls-3,.cls-30,.cls-32,.cls-34,.cls-35,.cls-5,.cls-6,.cls-9{opacity:0.5;}.cls-4{fill:#e1e0de;}.cls-10,.cls-15,.cls-16,.cls-17,.cls-18,.cls-20,.cls-22,.cls-28,.cls-31,.cls-33,.cls-36,.cls-37,.cls-38,.cls-4,.cls-7,.cls-8{fill-opacity:0.5;}.cls-5{fill:#939faf;}.cls-6{fill:#dfdcdb;}.cls-13,.cls-7{fill:#a8a9ab;}.cls-8{fill:#8e9fb6;}.cls-9{fill:#d7d2ce;}.cls-10{fill:#6183a2;}.cls-11{filter:url(#g10);}.cls-12{fill:#e5e5ea;}.cls-14{fill:#9ba8bb;}.cls-15{fill:#93a9bc;}.cls-16{fill:#9eb0cb;}.cls-17{fill:#dfe1e5;}.cls-18{fill:#adb0b5;}.cls-19{fill:#f3ece7;}.cls-20{fill:#dbdde9;}.cls-21{fill:#e3e0e1;}.cls-22{fill:#c7cdd3;}.cls-23{fill:#d8e0e4;}.cls-24{fill:#e5e5e5;}.cls-25{fill:#a9b3c5;}.cls-26{fill:#f9f8fc;}.cls-27{fill:#7c8894;}.cls-28{fill:#97a3b2;}.cls-29{filter:url(#g0.6);}.cls-30{fill:#b9babd;}.cls-31{fill:#dad7d5;}.cls-32{fill:#9da3ac;}.cls-33{fill:#ced4e1;}.cls-34{fill:#e5e2e1;}.cls-35{fill:#94a3bc;}.cls-36{fill:#acb8c4;}.cls-37{fill:#d4d8e2;}.cls-38{fill:#d9d7d2;}</style><filter id="g1" name="g1"><feGaussianBlur stdDeviation="1"/></filter><filter id="g10" name="g10"><feGaussianBlur stdDeviation="10"/></filter><filter id="g0.6" name="g0.6"><feGaussianBlur stdDeviation="0.6"/></filter></defs><rect class="cls-1" width="728" height="155.1"/><g class="cls-2"><polygon class="cls-3" points="1.82 56.42 147.42 138.32 258.44 -56.42 112.84 -138.32 1.82 56.42"/></g><path class="cls-4" d="M575.12,5.46l-287.56,475L425.88,564.2l287.56-475Z"/><g class="cls-2"><polygon class="cls-5" points="416.78 141.96 471.38 172.9 748.02 -318.5 693.42 -349.44 416.78 141.96"/></g><g class="cls-2"><polygon class="cls-6" points="50.96 43.68 -189.28 103.74 -151.06 256.62 87.36 196.56 50.96 43.68"/></g><path class="cls-7" d="M212.94,105.56,1.82,145.6,96.46,631.54l211.12-40Z"/><path class="cls-8" d="M356.72,36.4l9.1,41.86,187.46-45.5-9.1-40Z"/><g class="cls-2"><polygon class="cls-9" points="354.9 43.68 218.4 105.56 376.74 453.18 513.24 391.3 354.9 43.68"/></g><path class="cls-10" d="M689.78,9.1,902.72,180.18,1079.26-40,866.32-211.12Z"/><g class="cls-11"><polygon class="cls-12" points="56.42 50.96 63.7 83.72 249.34 36.4 242.06 3.64 56.42 50.96"/></g><g class="cls-2"><polygon class="cls-13" points="362.18 140.14 385.84 220.22 520.52 180.18 496.86 100.1 362.18 140.14"/></g><g class="cls-11"><polygon class="cls-14" points="318.5 3.64 167.44 52.78 174.72 76.44 325.78 27.3 318.5 3.64"/></g><path class="cls-15" d="M624.26,45.5l18.2,38.22L926.38-61.88l-18.2-38.22Z"/><path class="cls-16" d="M116.48,20,391.3,18.2l-1.82-458.64-274.82,1.82Z"/><path class="cls-17" d="M34.58,5.46-41.86,43.68l45.5,91L80.08,96.46Z"/><path class="cls-18" d="M143.78,71-12.74,218.4l51,54.6L194.74,125.58Z"/><g class="cls-11"><polygon class="cls-19" points="196.56 129.22 -111.02 384.02 -20.02 489.58 285.74 234.78 196.56 129.22"/></g><path class="cls-20" d="M200.2,7.28,222,36.4,374.92-78.26l-21.84-29.12Z"/><g class="cls-11"><polygon class="cls-21" points="491.4 52.78 336.7 112.84 343.98 134.68 498.68 74.62 491.4 52.78"/></g><path class="cls-22" d="M551.46,149.24l51,12.74,111-436.8-51-12.74Z"/><g class="cls-11"><polygon class="cls-23" points="644.28 111.02 662.48 132.86 729.82 76.44 711.62 54.6 644.28 111.02"/></g><g class="cls-11"><polygon class="cls-24" points="566.02 16.38 356.72 491.4 384.02 502.32 593.32 27.3 566.02 16.38"/></g><g class="cls-11"><polygon class="cls-25" points="145.6 3.64 -149.24 101.92 -140.14 123.76 152.88 25.48 145.6 3.64"/></g><g class="cls-11"><polygon class="cls-26" points="58.24 14.56 -422.24 152.88 -416.78 167.44 61.88 29.12 58.24 14.56"/></g><g class="cls-2"><polygon class="cls-27" points="156.52 134.68 60.06 191.1 294.84 573.3 391.3 516.88 156.52 134.68"/></g><path class="cls-28" d="M314.86,112.84l10.92,16.38,276.64-202L591.5-89.18Z"/><g class="cls-29"><polygon class="cls-30" points="522.34 116.48 420.42 169.26 500.5 320.32 602.42 267.54 522.34 116.48"/></g><path class="cls-31" d="M243.88,109.2-3.64,689.78,344,839,591.5,258.44Z"/><g class="cls-29"><polygon class="cls-32" points="287.56 123.76 296.66 138.32 374.92 81.9 365.82 67.34 287.56 123.76"/></g><path class="cls-33" d="M334.88,23.66l7.28,29.12L435,25.48,427.7-1.82Z"/><g class="cls-29"><polygon class="cls-34" points="269.36 100.1 234.78 101.92 249.34 323.96 283.92 322.14 269.36 100.1"/></g><g class="cls-29"><polygon class="cls-35" points="313.04 23.66 327.6 40.04 598.78 -200.2 584.22 -216.58 313.04 23.66"/></g><path class="cls-36" d="M566,91l25.48,29.12,111-105.56L677-12.74Z"/><path class="cls-37" d="M294.84,78.26l20,20L491.4-78.26l-20-20Z"/><path class="cls-38" d="M544.18,114.66l-142,385.84L536.9,547.82,678.86,162Z"/></svg>