<?xml version="1.0" encoding="UTF-8" standalone="no"?>
<!DOCTYPE svg PUBLIC "-//W3C//DTD SVG 1.1//EN" "http://www.w3.org/Graphics/SVG/1.1/DTD/svg11.dtd">
<!-- Created with Vectornator (http://vectornator.io/) -->
<svg height="100%" stroke-miterlimit="10" style="fill-rule:nonzero;clip-rule:evenodd;stroke-linecap:round;stroke-linejoin:round;" version="1.1" viewBox="0 0 770 190" width="100%" xml:space="preserve" xmlns="http://www.w3.org/2000/svg" xmlns:vectornator="http://vectornator.io" xmlns:xlink="http://www.w3.org/1999/xlink">
<defs/>
<clipPath id="ArtboardFrame">
<rect height="190" width="770" x="0" y="0"/>
</clipPath>
<g clip-path="url(#ArtboardFrame)" id="Untitled" vectornator:layerName="Untitled">
<path d="M0 0L728 0L728 0L728 155.1L728 155.1L0 155.1L0 155.1L0 0L0 0Z" fill="#b7bfca" fill-rule="nonzero" opacity="1" stroke="none"/>
<path d="M1.82 56.42L147.42 138.32L258.44-56.42L112.84-138.32L1.82 56.42Z" fill="#dddde4" fill-rule="nonzero" opacity="1" stroke="none"/>
<path d="M575.12 5.46L287.56 480.46L425.88 564.2L713.44 89.2L575.12 5.46Z" fill="#e1e0de" fill-rule="nonzero" opacity="1" stroke="none"/>
<path d="M416.78 141.96L471.38 172.9L748.02-318.5L693.42-349.44L416.78 141.96Z" fill="#939faf" fill-rule="nonzero" opacity="1" stroke="none"/>
<path d="M50.96 43.68L-189.28 103.74L-151.06 256.62L87.36 196.56L50.96 43.68Z" fill="#dfdcdb" fill-rule="nonzero" opacity="1" stroke="none"/>
<path d="M212.94 105.56L1.82 145.6L96.46 631.54L307.58 591.54L212.94 105.56Z" fill="#000000" fill-rule="nonzero" opacity="1" stroke="none"/>
<path d="M356.72 36.4L365.82 78.26L553.28 32.76L544.18-7.24L356.72 36.4Z" fill="#8e9fb6" fill-rule="nonzero" opacity="1" stroke="none"/>
<path d="M354.9 43.68L218.4 105.56L376.74 453.18L513.24 391.3L354.9 43.68Z" fill="#d7d2ce" fill-rule="nonzero" opacity="1" stroke="none"/>
<path d="M689.78 9.1L902.72 180.18L1079.26-40L866.32-211.12L689.78 9.1Z" fill="#6183a2" fill-rule="nonzero" opacity="1" stroke="none"/>
<path d="M56.42 50.96L63.7 83.72L249.34 36.4L242.06 3.64L56.42 50.96Z" fill="#e5e5ea" fill-rule="nonzero" opacity="1" stroke="none"/>
<path d="M362.18 140.14L385.84 220.22L520.52 180.18L496.86 100.1L362.18 140.14Z" fill="#000000" fill-rule="nonzero" opacity="1" stroke="none"/>
<path d="M318.5 3.64L167.44 52.78L174.72 76.44L325.78 27.3L318.5 3.64Z" fill="#9ba8bb" fill-rule="nonzero" opacity="1" stroke="none"/>
<path d="M624.26 45.5L642.46 83.72L926.38-61.88L908.18-100.1L624.26 45.5Z" fill="#93a9bc" fill-rule="nonzero" opacity="1" stroke="none"/>
<path d="M116.48 20L391.3 18.2L389.48-440.44L114.66-438.62L116.48 20Z" fill="#9eb0cb" fill-rule="nonzero" opacity="1" stroke="none"/>
<path d="M34.58 5.46L-41.86 43.68L3.64 134.68L80.08 96.46L34.58 5.46Z" fill="#dfe1e5" fill-rule="nonzero" opacity="1" stroke="none"/>
<path d="M143.78 71L-12.74 218.4L38.26 273L194.74 125.58L143.78 71Z" fill="#adb0b5" fill-rule="nonzero" opacity="1" stroke="none"/>
<path d="M196.56 129.22L-111.02 384.02L-20.02 489.58L285.74 234.78L196.56 129.22Z" fill="#f3ece7" fill-rule="nonzero" opacity="1" stroke="none"/>
<path d="M200.2 7.28L222 36.4L374.92-78.26L353.08-107.38L200.2 7.28Z" fill="#dbdde9" fill-rule="nonzero" opacity="1" stroke="none"/>
<path d="M491.4 52.78L336.7 112.84L343.98 134.68L498.68 74.62L491.4 52.78Z" fill="#e3e0e1" fill-rule="nonzero" opacity="1" stroke="none"/>
<path d="M551.46 149.24L602.46 161.98L713.46-274.82L662.46-287.56L551.46 149.24Z" fill="#c7cdd3" fill-rule="nonzero" opacity="1" stroke="none"/>
<path d="M644.28 111.02L662.48 132.86L729.82 76.44L711.62 54.6L644.28 111.02Z" fill="#d8e0e4" fill-rule="nonzero" opacity="1" stroke="none"/>
<path d="M566.02 16.38L356.72 491.4L384.02 502.32L593.32 27.3L566.02 16.38Z" fill="#e5e5e5" fill-rule="nonzero" opacity="1" stroke="none"/>
<path d="M145.6 3.64L-149.24 101.92L-140.14 123.76L152.88 25.48L145.6 3.64Z" fill="#a9b3c5" fill-rule="nonzero" opacity="1" stroke="none"/>
<path d="M58.24 14.56L-422.24 152.88L-416.78 167.44L61.88 29.12L58.24 14.56Z" fill="#f9f8fc" fill-rule="nonzero" opacity="1" stroke="none"/>
<path d="M156.52 134.68L60.06 191.1L294.84 573.3L391.3 516.88L156.52 134.68Z" fill="#7c8894" fill-rule="nonzero" opacity="1" stroke="none"/>
<path d="M314.86 112.84L325.78 129.22L602.42-72.78L591.5-89.18L314.86 112.84Z" fill="#97a3b2" fill-rule="nonzero" opacity="1" stroke="none"/>
<path d="M522.34 116.48L420.42 169.26L500.5 320.32L602.42 267.54L522.34 116.48Z" fill="#b9babd" fill-rule="nonzero" opacity="1" stroke="none"/>
<path d="M243.88 109.2L-3.64 689.78L344 839L591.5 258.44L243.88 109.2Z" fill="#dad7d5" fill-rule="nonzero" opacity="1" stroke="none"/>
<path d="M287.56 123.76L296.66 138.32L374.92 81.9L365.82 67.34L287.56 123.76Z" fill="#9da3ac" fill-rule="nonzero" opacity="1" stroke="none"/>
<path d="M334.88 23.66L342.16 52.78L435 25.48L427.7-1.82L334.88 23.66Z" fill="#ced4e1" fill-rule="nonzero" opacity="1" stroke="none"/>
<path d="M269.36 100.1L234.78 101.92L249.34 323.96L283.92 322.14L269.36 100.1Z" fill="#e5e2e1" fill-rule="nonzero" opacity="1" stroke="none"/>
<path d="M313.04 23.66L327.6 40.04L598.78-200.2L584.22-216.58L313.04 23.66Z" fill="#94a3bc" fill-rule="nonzero" opacity="1" stroke="none"/>
<path d="M566 91L591.48 120.12L702.48 14.56L677-12.74L566 91Z" fill="#acb8c4" fill-rule="nonzero" opacity="1" stroke="none"/>
<path d="M294.84 78.26L314.84 98.26L491.4-78.26L471.4-98.26L294.84 78.26Z" fill="#d4d8e2" fill-rule="nonzero" opacity="1" stroke="none"/>
<path d="M544.18 114.66L402.18 500.5L536.9 547.82L678.86 162L544.18 114.66Z" fill="#d9d7d2" fill-rule="nonzero" opacity="1" stroke="none"/>
</g>
</svg>
