<svg xmlns="http://www.w3.org/2000/svg" viewBox="0 0 400 271.30434782608694" clip-path="url(#clip)" width="728" height="493.7739130434783" style="max-height: 549px;"><defs><clipPath id="clip" clipPathUnits="objectBoundingBox"><rect x="0" y="0" width="400" height="271.30434782608694"/></clipPath></defs><rect x="0" y="0" width="400" height="271.30434782608694" fill="rgb(134, 149, 161)"/><filter id="g0.6"><feGaussianBlur stdDeviation="0.6"/></filter><filter id="g1"><feGaussianBlur stdDeviation="1"/></filter><filter id="g10"><feGaussianBlur stdDeviation="10"/></filter><path d="M6,92L365,191L425,-28L66,-127Z" fill="rgb(235, 235, 243)" fill-opacity="0.50"/><path d="M70,161L42,293L440,373L468,241Z" fill="rgb(80, 85, 81)" fill-opacity="0.50" filter="url(#g10)"/><path d="M7,11L-147,196L-78,252L75,67Z" fill="rgb(243, 239, 241)" fill-opacity="0.50" filter="url(#g10)"/><path d="M91,53L37,172L136,216L190,97Z" fill="rgb(202, 196, 193)" fill-opacity="0.50"/><path d="M98,168L-31,198L2,335L131,305Z" fill="rgb(89, 100, 102)" fill-opacity="0.50" filter="url(#g1)"/><path d="M361,127L62,156L69,234L368,205Z" fill="rgb(154, 155, 153)" fill-opacity="0.50" filter="url(#g10)"/><path d="M206,53L250,190L420,135L376,-1Z" fill="rgb(190, 197, 202)" fill-opacity="0.50"/><path d="M209,267L294,505L734,346L649,108Z" fill="rgb(77, 93, 95)" fill-opacity="0.50"/><path d="M17,2L47,168L128,152L98,-13Z" fill="rgb(200, 205, 214)" fill-opacity="0.50"/><path d="M331,27L238,184L258,195L351,38Z" fill="rgb(234, 230, 226)" fill-opacity="0.50"/><path d="M245,234L-11,236L-9,358L246,356Z" fill="rgb(76, 90, 94)" fill-opacity="0.50"/><path d="M243,45L198,219L233,227L278,53Z" fill="rgb(128, 136, 146)" fill-opacity="0.50" filter="url(#g1)"/><path d="M195,31L391,78L434,-98L238,-145Z" fill="rgb(151, 176, 206)" fill-opacity="0.50"/><path d="M216,121L453,115L451,57L214,63Z" fill="rgb(203, 206, 210)" fill-opacity="0.50" filter="url(#g1)"/><path d="M391,122L310,169L348,235L429,188Z" fill="rgb(143, 149, 149)" fill-opacity="0.50"/><path d="M32,92L-26,178L22,210L80,124Z" fill="rgb(154, 156, 158)" fill-opacity="0.50" filter="url(#g10)"/><path d="M72,232L109,256L159,179L122,155Z" fill="rgb(114, 122, 130)" fill-opacity="0.50" filter="url(#g1)"/><path d="M149,155L174,194L282,122L257,83Z" fill="rgb(146, 149, 154)" fill-opacity="0.50" filter="url(#g1)"/><path d="M3,11L149,122L244,-4L98,-115Z" fill="rgb(191, 203, 222)" fill-opacity="0.50"/><path d="M380,53L255,143L278,175L403,85Z" fill="rgb(218, 219, 216)" fill-opacity="0.50"/><path d="M97,45L-57,117L-51,129L102,57Z" fill="rgb(251, 247, 242)" fill-opacity="0.50" filter="url(#g1)"/><path d="M369,10L442,132L499,96L426,-25Z" fill="rgb(127, 158, 186)" fill-opacity="0.50"/><path d="M77,45L294,77L298,46L81,14Z" fill="rgb(163, 177, 198)" fill-opacity="0.50"/><path d="M349,22L303,37L325,106L371,91Z" fill="rgb(198, 205, 213)" fill-opacity="0.50" filter="url(#g1)"/><path d="M151,196L152,245L470,232L469,183Z" fill="rgb(118, 127, 130)" fill-opacity="0.50" filter="url(#g1)"/><path d="M121,31L48,109L79,138L152,60Z" fill="rgb(175, 178, 184)" fill-opacity="0.50"/><path d="M232,131L213,132L217,197L236,196Z" fill="rgb(88, 104, 116)" fill-opacity="0.50" filter="url(#g1)"/><path d="M28,6L-114,-43L-125,-8L16,40Z" fill="rgb(205, 225, 250)" fill-opacity="0.50"/><path d="M97,42L104,58L359,-52L352,-68Z" fill="rgb(200, 209, 228)" fill-opacity="0.50"/><path d="M15,168L10,207L119,218L124,179Z" fill="rgb(136, 142, 147)" fill-opacity="0.50" filter="url(#g1)"/><path d="M154,77L125,82L132,126L161,121Z" fill="rgb(226, 220, 212)" fill-opacity="0.50" filter="url(#g1)"/><path d="M21,228L-98,311L-7,438L111,355Z" fill="rgb(75, 91, 99)" fill-opacity="0.50"/><path d="M29,34L-130,107L-124,118L34,45Z" fill="rgb(241, 242, 251)" fill-opacity="0.50" filter="url(#g1)"/><path d="M344,118L359,177L422,160L407,101Z" fill="rgb(172, 178, 181)" fill-opacity="0.50" filter="url(#g1)"/><path d="M128,36L-32,84L-28,96L131,48Z" fill="rgb(226, 225, 230)" fill-opacity="0.50"/><path d="M11,41L-15,59L33,129L59,111Z" fill="rgb(207, 208, 213)" fill-opacity="0.50"/><path d="M223,30L228,45L270,28L265,13Z" fill="rgb(218, 223, 233)" fill-opacity="0.50" filter="url(#g1)"/><path d="M149,255L147,352L428,355L430,258Z" fill="rgb(78, 92, 95)" fill-opacity="0.50"/><path d="M295,73L311,82L332,41L316,32Z" fill="rgb(240, 240, 244)" fill-opacity="0.50" filter="url(#g1)"/></svg>