<svg id="Layer_1" data-name="Layer 1" xmlns="http://www.w3.org/2000/svg" xmlns:xlink="http://www.w3.org/1999/xlink" viewBox="0 0 644 150.91"><defs><style>.cls-1{fill:#2e572d;}.cls-2{filter:url(#g1);}.cls-3{fill:#478f27;}.cls-10,.cls-14,.cls-18,.cls-28,.cls-29,.cls-3,.cls-31,.cls-33,.cls-4,.cls-7{opacity:0.5;}.cls-4{fill:#201c65;}.cls-5{fill:#07070f;}.cls-11,.cls-12,.cls-13,.cls-15,.cls-16,.cls-17,.cls-19,.cls-20,.cls-21,.cls-22,.cls-23,.cls-24,.cls-25,.cls-26,.cls-27,.cls-32,.cls-5,.cls-8,.cls-9{fill-opacity:0.5;}.cls-6{filter:url(#g0.6);}.cls-7{fill:#68b036;}.cls-8{fill:#6a9f5d;}.cls-9{fill:#0e0333;}.cls-10{fill:#41812b;}.cls-11{fill:#5b9846;}.cls-12{fill:#1c1854;}.cls-13{fill:#152726;}.cls-14{fill:#24530c;}.cls-15{fill:#75c43f;}.cls-16{fill:#3d811b;}.cls-17{fill:#174519;}.cls-18{fill:#161243;}.cls-19{fill:#2a4537;}.cls-20{fill:#151d1f;}.cls-21{fill:#1e520f;}.cls-22{fill:#346f1a;}.cls-23{fill:#0e111e;}.cls-24{fill:#254f19;}.cls-25{fill:#a9f552;}.cls-26{fill:#263933;}.cls-27{fill:#1a301f;}.cls-28{fill:#50a922;}.cls-29{fill:#76df3f;}.cls-30{filter:url(#g10);}.cls-31{fill:#100c34;}.cls-32{fill:#48a21a;}.cls-33{fill:#1f4c2b;}</style><filter id="g1" name="g1"><feGaussianBlur stdDeviation="1"/></filter><filter id="g0.6" name="g0.6"><feGaussianBlur stdDeviation="0.6"/></filter><filter id="g10" name="g10"><feGaussianBlur stdDeviation="10"/></filter></defs><rect class="cls-1" width="644" height="150.91"/><g class="cls-2"><rect class="cls-3" x="205.44" y="72.22" width="384.47" height="399.74" transform="translate(-62.91 130.54) rotate(-17.3)"/></g><g class="cls-2"><polygon class="cls-4" points="418.6 37.03 623.07 90.16 652.05 -17.71 447.58 -70.84 418.6 37.03"/></g><path class="cls-5" d="M80.5,19.32l-91.77,6.44L30.59,505.54l91.77-6.44Z"/><g class="cls-6"><polygon class="cls-7" points="592.48 103.04 648.83 214.13 882.28 96.6 825.93 -12.88 592.48 103.04"/></g><path class="cls-8" d="M243.11,1.61,391.23,35.42l17.71-74.06L260.82-72.45Z"/><path class="cls-9" d="M437.92,114.31,368.69,241.5,468.51,293l69.23-127.19Z"/><g class="cls-6"><polygon class="cls-10" points="484.61 24.15 273.7 294.63 547.4 503.93 758.31 233.45 484.61 24.15"/></g><path class="cls-11" d="M264,8.05l12.88,46.69,315.56-96.6L579.6-88.55Z"/><path class="cls-12" d="M363.86,75.67l14.49,24.15L658.49-75.67,644-99.82Z"/><path class="cls-13" d="M523.25,93.38,402.5,149.73l12.88,25.76,120.75-56.35Z"/><g class="cls-6"><polygon class="cls-14" points="162.61 51.52 -107.87 183.54 -17.71 365.47 251.16 233.45 162.61 51.52"/></g><path class="cls-15" d="M541,104.65l3.22,25.76L724.5,104.65l-3.22-25.76Z"/><path class="cls-16" d="M368.69,67.62-402.5,333.27l24.15,64.4L391.23,132Z"/><path class="cls-17" d="M589.26,132,756.7,465.29l193.2-99.82L782.46,32.2Z"/><g class="cls-2"><polygon class="cls-18" points="597.31 20.93 524.86 33.81 536.13 99.82 608.58 86.94 597.31 20.93"/></g><path class="cls-19" d="M243.11,78.89,262.43,96.6,520-199.64l-19.32-17.71Z"/><path class="cls-20" d="M12.88,133.63l48.3,6.44,40.25-247.94-48.3-6.44Z"/><path class="cls-21" d="M301.07,112.7l6.44,103,75.67-6.44-6.44-103Z"/><path class="cls-22" d="M133.63,16.1l1.61,54.74L309.12,64.4,307.51,9.66Z"/><path class="cls-23" d="M19.32,0,38.64,104.65,103,91.77l-19.32-103Z"/><path class="cls-24" d="M25.76,80.5l-66,285L66,389.62l66-285Z"/><path class="cls-25" d="M370.3,0l4.83,16.1,159.39-58L529.69-58Z"/><path class="cls-26" d="M157.78,45.08l58,14.49L307.51-289.8l-58-14.49Z"/><path class="cls-27" d="M66,99.82l1.61,22.54L302.68,88.55,301.07,66Z"/><g class="cls-2"><polygon class="cls-28" points="447.58 93.38 489.44 123.97 537.74 53.13 495.88 22.54 447.58 93.38"/></g><g class="cls-2"><polygon class="cls-29" points="634.34 143.29 930.58 172.27 930.58 156.17 634.34 127.19 634.34 143.29"/></g><g class="cls-30"><polygon class="cls-31" points="610.19 130.41 598.92 144.9 961.17 367.08 972.44 352.59 610.19 130.41"/></g><path class="cls-32" d="M553.84,111.09l-88.55,74.06,38.64,43.47,88.55-74.06Z"/><g class="cls-30"><polygon class="cls-33" points="623.07 22.54 602.14 28.98 629.51 101.43 650.44 94.99 623.07 22.54"/></g></svg>

















