<svg xmlns="http://www.w3.org/2000/svg" viewBox="0 0 400 286.56716417910445" clip-path="url(#clip)" width="644" height="461.3731343283582" style="max-height: 513px;"><defs><clipPath id="clip" clipPathUnits="objectBoundingBox"><rect x="0" y="0" width="400" height="286.56716417910445"/></clipPath></defs><rect x="0" y="0" width="400" height="286.56716417910445" fill="rgb(38, 67, 42)"/><filter id="g0.6"><feGaussianBlur stdDeviation="0.6"/></filter><filter id="g1"><feGaussianBlur stdDeviation="1"/></filter><filter id="g10"><feGaussianBlur stdDeviation="10"/></filter><path d="M71,34L325,228L414,111L160,-82Z" fill="rgb(71, 134, 50)" fill-opacity="0.50"/><path d="M39,103L-69,258L142,404L250,249Z" fill="rgb(9, 33, 0)" fill-opacity="0.50"/><path d="M117,185L329,202L337,97L125,80Z" fill="rgb(50, 103, 18)" fill-opacity="0.50" filter="url(#g1)"/><path d="M351,223L193,295L216,345L374,273Z" fill="rgb(87, 113, 64)" fill-opacity="0.50"/><path d="M172,11L391,61L431,-112L212,-162Z" fill="rgb(55, 64, 117)" fill-opacity="0.50" filter="url(#g1)"/><path d="M121,21L6,94L114,263L229,190Z" fill="rgb(35, 78, 13)" fill-opacity="0.50"/><path d="M226,137L236,161L420,83L410,59Z" fill="rgb(78, 146, 44)" fill-opacity="0.50"/><path d="M50,91L-84,149L18,382L152,324Z" fill="rgb(14, 43, 0)" fill-opacity="0.50" filter="url(#g0.6)"/><path d="M173,10L210,59L277,7L240,-41Z" fill="rgb(89, 131, 82)" fill-opacity="0.50"/><path d="M375,233L360,362L532,381L547,252Z" fill="rgb(91, 101, 63)" fill-opacity="0.50"/><path d="M214,145L291,265L341,231L264,111Z" fill="rgb(60, 78, 41)" fill-opacity="0.50" filter="url(#g0.6)"/><path d="M21,19L-89,141L-44,180L65,58Z" fill="rgb(13, 19, 22)" fill-opacity="0.50"/><path d="M311,62L78,89L80,113L313,86Z" fill="rgb(69, 144, 39)" fill-opacity="0.50" filter="url(#g1)"/><path d="M33,17L93,19L99,-139L39,-141Z" fill="rgb(82, 166, 47)" fill-opacity="0.50"/><path d="M335,215L387,241L403,209L351,183Z" fill="rgb(15, 6, 25)" fill-opacity="0.50"/><path d="M107,80L112,96L354,16L349,0Z" fill="rgb(21, 27, 66)" fill-opacity="0.50" filter="url(#g0.6)"/><path d="M279,116L383,196L401,172L297,92Z" fill="rgb(62, 124, 45)" fill-opacity="0.50"/><path d="M146,0L203,84L226,68L169,-15Z" fill="rgb(72, 140, 51)" fill-opacity="0.50"/><path d="M272,42L274,76L328,71L326,37Z" fill="rgb(91, 181, 45)" fill-opacity="0.50" filter="url(#g1)"/><path d="M337,125L343,138L451,84L445,71Z" fill="rgb(17, 24, 41)" fill-opacity="0.50"/><path d="M374,83L450,138L459,124L383,69Z" fill="rgb(139, 220, 69)" fill-opacity="0.50"/><path d="M230,244L-224,223L-236,483L217,504Z" fill="rgb(17, 28, 7)" fill-opacity="0.50" filter="url(#g0.6)"/><path d="M240,125L256,141L301,96L285,80Z" fill="rgb(18, 12, 65)" fill-opacity="0.50"/><path d="M196,282L199,343L399,329L396,268Z" fill="rgb(47, 106, 36)" fill-opacity="0.50"/><path d="M197,254L279,261L283,216L201,209Z" fill="rgb(46, 32, 33)" fill-opacity="0.50" filter="url(#g10)"/><path d="M229,154L257,201L333,155L305,108Z" fill="rgb(62, 135, 31)" fill-opacity="0.50" filter="url(#g10)"/><path d="M314,88L325,96L497,-132L486,-140Z" fill="rgb(27, 32, 72)" fill-opacity="0.50" filter="url(#g1)"/><path d="M29,61L-248,404L-184,455L92,112Z" fill="rgb(27, 63, 20)" fill-opacity="0.50" filter="url(#g10)"/><path d="M29,274L50,286L141,126L120,114Z" fill="rgb(35, 74, 23)" fill-opacity="0.50" filter="url(#g1)"/></svg>