<svg xmlns="http://www.w3.org/2000/svg" viewBox="0 0 400 80" clip-path="url(#clip)" width="2400" height="480" style="max-height: 580.5px;"><defs><clipPath id="clip" clipPathUnits="objectBoundingBox"><rect x="0" y="0" width="400" height="80"/></clipPath></defs><rect x="0" y="0" width="400" height="80" fill="rgb(121, 112, 91)"/><filter id="g0.6"><feGaussianBlur stdDeviation="0.6"/></filter><filter id="g1"><feGaussianBlur stdDeviation="1"/></filter><filter id="g10"><feGaussianBlur stdDeviation="10"/></filter><path d="M202,28L220,146L352,124L334,6Z" fill="rgb(230, 188, 110)" fill-opacity="0.50" filter="url(#g1)"/><path d="M228,29L53,49L67,176L242,156Z" fill="rgb(193, 145, 64)" fill-opacity="0.50"/><path d="M276,74L303,113L599,-88L572,-127Z" fill="rgb(121, 93, 41)" fill-opacity="0.50"/><path d="M10,10L22,62L254,8L242,-43Z" fill="rgb(72, 62, 42)" fill-opacity="0.50"/><path d="M174,77L183,212L413,194L404,59Z" fill="rgb(148, 142, 130)" fill-opacity="0.50"/><path d="M120,68L114,149L227,155L233,74Z" fill="rgb(183, 173, 164)" fill-opacity="0.50"/><path d="M127,61L194,69L199,25L132,17Z" fill="rgb(126, 89, 32)" fill-opacity="0.50"/><path d="M128,67L0,73L4,147L132,141Z" fill="rgb(163, 149, 133)" fill-opacity="0.50" filter="url(#g1)"/><path d="M189,32L191,51L346,30L344,11Z" fill="rgb(233, 205, 144)" fill-opacity="0.50"/><path d="M146,48L306,55L306,46L146,39Z" fill="rgb(240, 198, 114)" fill-opacity="0.50"/><path d="M199,61L206,214L345,207L338,54Z" fill="rgb(129, 104, 63)" fill-opacity="0.50" filter="url(#g1)"/><path d="M297,71L84,75L84,105L297,101Z" fill="rgb(169, 157, 137)" fill-opacity="0.50"/><path d="M373,51L459,109L565,-47L479,-105Z" fill="rgb(93, 75, 40)" fill-opacity="0.50"/><path d="M22,26L-173,35L-171,65L23,56Z" fill="rgb(53, 50, 39)" fill-opacity="0.50"/><path d="M68,51L-35,65L-32,79L70,65Z" fill="rgb(156, 114, 36)" fill-opacity="0.50" filter="url(#g1)"/><path d="M333,5L470,65L505,-16L368,-76Z" fill="rgb(106, 109, 88)" fill-opacity="0.50"/><path d="M213,11L184,44L201,58L230,25Z" fill="rgb(194, 153, 77)" fill-opacity="0.50"/><path d="M82,50L84,61L147,44L145,33Z" fill="rgb(217, 171, 55)" fill-opacity="0.50"/><path d="M30,26L107,43L170,-238L93,-255Z" fill="rgb(109, 100, 79)" fill-opacity="0.50"/><path d="M321,25L276,50L281,59L326,34Z" fill="rgb(205, 197, 180)" fill-opacity="0.50"/><path d="M117,13L142,40L167,16L142,-10Z" fill="rgb(76, 71, 65)" fill-opacity="0.50"/><path d="M357,44L553,92L555,80L359,32Z" fill="rgb(120, 83, 13)" fill-opacity="0.50"/><path d="M338,73L103,64L96,243L331,252Z" fill="rgb(162, 148, 120)" fill-opacity="0.50"/><path d="M91,9L304,21L311,-119L98,-131Z" fill="rgb(105, 94, 70)" fill-opacity="0.50" filter="url(#g0.6)"/></svg>