<svg width="100%" height="100%" viewBox="0 0 770 190" xmlns="http://www.w3.org/2000/svg">
 <defs>
  <filter id="g1">
   <feGaussianBlur stdDeviation="1"/>
  </filter>
 </defs>
 <g>
  <title>Layer 1</title>
  <rect id="svg_1" fill="#19639c" height="425.2" width="756.5" y="-150.1" x="6.75" class="cls-1"/>
  <path id="svg_2" fill="rgba(12,41,81,.5)" d="m610.06,-72.56l-669.5,351.77l208.04,393.38l669.5,-351.77l-208.04,-393.38z" class="cls-16"/>
  <path id="svg_3" fill="rgba(178,151,121,.5)" d="m315.02,-131.19l-85.1,143.74l226.95,132.39l85.1,-143.74l-226.95,-132.39z" class="cls-11"/>
  <path id="svg_4" fill="rgba(0,42,117,.5)" d="m441.74,245.17l285.58,317.73l304.49,-276.12l-285.58,-317.73l-304.49,276.12z" class="cls-5"/>
  <path id="svg_5" fill="rgba(26,188,231,.5)" d="m6.75,35.24l211.82,-30.26l-41.61,-287.47l-209.93,30.26l39.72,287.47z" class="cls-17"/>
  <path id="svg_6" fill="rgba(0,82,151,.5)" d="m180.75,-21.49l-410.41,262.88l158.87,243.97l408.51,-262.88l-156.97,-243.97z" class="cls-2"/>
  <path id="svg_7" fill="rgba(6,42,80,.5)" d="m390.67,110.89l-35.93,196.69l166.43,30.26l35.93,-196.69l-166.43,-30.26z" class="cls-15"/>
  <path id="svg_8" fill="rgba(60,72,79,.5)" d="m262.07,-83.91l9.46,262.88l62.41,-3.78l-9.46,-262.88l-62.41,3.78z" class="cls-20"/>
  <path id="svg_9" fill="rgba(0,91,158,.5)" d="m532.52,116.57l141.84,54.85l68.09,-177.78l-141.84,-54.85l-68.09,177.78z" class="cls-7"/>
  <path id="svg_10" fill="rgba(164,153,152,.5)" d="m326.37,35.24l168.32,26.48l15.13,-94.56l-168.32,-26.48l-15.13,94.56z" class="cls-12"/>
  <path id="svg_11" fill="rgba(0,121,176,.5)" d="m254.5,-59.32l-385.81,22.7l9.46,158.87l383.92,-22.7l-7.57,-158.87z" class="cls-9"/>
  <path id="svg_12" fill="rgba(0,41,110,.5)" d="m663.01,95.76l-128.61,402.84l181.56,56.74l128.61,-402.84l-181.56,-56.74z" class="cls-6"/>
  <path id="svg_13" fill="rgba(38,59,80,.5)" d="m228.03,-114.17l-39.72,22.7l323.4,501.18l39.72,-22.7l-323.4,-501.18z" class="cls-18"/>
  <path id="svg_14" fill="rgba(0,86,148,.5)" d="m265.85,74.96l-259.1,79.43l26.48,88.89l259.1,-79.43l-26.48,-88.89z" class="cls-3"/>
  <path id="svg_15" fill="rgba(0,67,121,.5)" d="m540.08,-64.99l-47.28,22.7l136.17,272.34l47.28,-22.7l-136.17,-272.34z" class="cls-4"/>
  <path id="svg_16" fill="rgba(17,86,130,.5)" d="m441.74,-123.62l-26.48,51.06l295.04,141.85l26.48,-51.06l-295.04,-141.85z" class="cls-13"/>
  <path id="svg_17" fill="rgba(67,65,62,.5)" d="m492.8,63.61l-105.91,60.52l49.17,81.32l105.91,-60.52l-49.17,-81.32z" class="cls-14"/>
  <path id="svg_18" fill="rgba(129,132,136,.5)" d="m398.24,122.24l124.82,-1.89l-1.89,-119.15l-124.82,1.89l1.89,119.15z" class="cls-10"/>
  <path id="svg_19" fill="rgba(56,55,57,.5)" d="m311.24,56.05l-32.15,43.5l132.39,88.89l32.15,-43.5l-132.39,-88.89z" class="cls-19"/>
  <g id="svg_20" filter="url(#g1)" class="cls-22">
   <polygon id="svg_21" opacity="0.5" fill="#004485" points="566.56 129.81 598.71 220.59 795.4 146.83 763.25 56.05 566.56 129.81" class="cls-23"/>
  </g>
  <path id="svg_22" fill="rgba(0,132,190,.5)" d="m192.09,-55.54l-196.69,17.02l11.35,98.35l194.8,-17.02l-9.46,-98.35z" class="cls-8"/>
  <path id="svg_23" fill="rgba(37,94,159,.5)" d="m608.17,-38.52l136.17,73.76l296.93,-544.68l-136.17,-73.76l-296.93,544.68z" class="cls-21"/>
 </g>
</svg>