<svg width="600" height="435" xmlns="http://www.w3.org/2000/svg">
 <defs>
  <filter id="g10">
   <feGaussianBlur stdDeviation="10"/>
  </filter>
  <filter id="g1">
   <feGaussianBlur stdDeviation="1"/>
  </filter>
 </defs>
 <g>
  <title>Layer 1</title>
  <rect id="svg_1" fill="#19639c" height="425.2" width="756.5" y="4.9" x="-78.25" class="cls-1"/>
  <path id="svg_2" fill="rgba(12,41,81,.5)" d="m525.06,82.44l-669.5,351.77l208.03,393.38l669.51,-351.77l-208.04,-393.38z" class="cls-19"/>
  <path id="svg_3" fill="rgba(178,151,121,.5)" d="m230.02,23.81l-85.11,143.74l226.95,132.39l85.11,-143.74l-226.95,-132.39z" class="cls-13"/>
  <path id="svg_4" fill="rgba(73,236,255,.5)" d="m-59.34,80.55l440.66,-24.59l-15.13,-249.65l-440.66,24.59l15.13,249.65z" class="cls-27"/>
  <path id="svg_5" fill="rgba(0,42,117,.5)" d="m356.74,400.17l285.58,317.73l304.49,-276.12l-285.58,-317.73l-304.49,276.12z" class="cls-6"/>
  <path id="svg_6" fill="rgba(26,188,231,.5)" d="m-78.25,190.24l211.82,-30.26l-41.61,-287.47l-209.93,30.26l39.72,287.47z" class="cls-20"/>
  <path id="svg_7" fill="rgba(0,82,151,.5)" d="m95.75,133.51l-410.41,262.88l158.87,243.97l408.51,-262.88l-156.97,-243.97z" class="cls-2"/>
  <path id="svg_8" fill="rgba(39,131,195,.5)" d="m385.11,42.73l69.98,104.02l327.18,-215.61l-69.98,-104.02l-327.18,215.61z" class="cls-23"/>
  <path id="svg_9" fill="rgba(6,42,80,.5)" d="m305.67,265.89l-35.93,196.69l166.43,30.26l35.93,-196.69l-166.43,-30.26z" class="cls-18"/>
  <path id="svg_10" fill="rgba(60,72,79,.5)" d="m177.07,71.09l9.46,262.88l62.41,-3.78l-9.46,-262.88l-62.41,3.78z" class="cls-26"/>
  <path id="svg_11" fill="rgba(0,91,158,.5)" d="m447.52,271.57l141.84,54.85l68.09,-177.78l-141.84,-54.85l-68.09,177.78z" class="cls-9"/>
  <path id="svg_12" fill="rgba(164,153,152,.5)" d="m241.37,190.24l168.32,26.48l15.13,-94.56l-168.32,-26.48l-15.13,94.56z" class="cls-14"/>
  <path id="svg_13" fill="rgba(0,56,118,.5)" d="m562.88,294.26l-894.56,88.89l28.37,266.67l892.67,-88.89l-26.48,-266.67z" class="cls-8"/>
  <path id="svg_14" fill="rgba(0,121,176,.5)" d="m169.5,95.68l-385.82,22.7l9.46,158.87l383.92,-22.7l-7.57,-158.87l0.01,0z" class="cls-11"/>
  <path id="svg_15" fill="rgba(0,41,110,.5)" d="m578.01,250.76l-128.61,402.84l181.56,56.74l128.61,-402.84l-181.56,-56.74z" class="cls-7"/>
  <path id="svg_16" fill="rgba(16,148,206,.5)" d="m205.44,72.99l128.61,7.57l26.48,-372.58l-128.61,-7.57l-26.48,372.58z" class="cls-16"/>
  <path id="svg_17" fill="rgba(38,59,80,.5)" d="m143.03,40.83l-39.72,22.7l323.4,501.18l39.72,-22.7l-323.4,-501.18z" class="cls-24"/>
  <path id="svg_18" fill="rgba(136,215,242,.5)" d="m-36.64,27.6l115.37,18.91l43.49,-270.45l-115.36,-18.91l-43.5,270.45z" class="cls-21"/>
  <path id="svg_19" fill="rgba(0,63,131,.5)" d="m42.79,392.61l119.15,520.09l321.51,-73.76l-119.15,-520.09l-321.51,73.76z" class="cls-5"/>
  <path id="svg_20" fill="rgba(39,141,190,.5)" d="m175.18,35.16l15.13,64.3l389.6,-94.56l-15.13,-62.41l-389.6,92.67z" class="cls-22"/>
  <path id="svg_21" fill="rgba(0,86,148,.5)" d="m180.85,229.96l-259.1,79.43l26.48,88.89l259.1,-79.43l-26.48,-88.89z" class="cls-3"/>
  <path id="svg_22" fill="rgba(0,67,121,.5)" d="m455.08,90.01l-47.28,22.7l136.17,272.34l47.28,-22.7l-136.17,-272.34z" class="cls-4"/>
  <path id="svg_23" fill="rgba(17,86,130,.5)" d="m356.74,31.38l-26.48,51.06l295.04,141.84l26.48,-51.06l-295.04,-141.84z" class="cls-15"/>
  <path id="svg_24" fill="rgba(67,65,62,.5)" d="m407.8,218.61l-105.91,60.52l49.17,81.32l105.91,-60.52l-49.17,-81.32z" class="cls-17"/>
  <path id="svg_25" fill="rgba(129,132,136,.5)" d="m313.24,277.24l124.82,-1.89l-1.89,-119.15l-124.82,1.89l1.89,119.15z" class="cls-12"/>
  <path id="svg_26" fill="rgba(56,55,57,.5)" d="m226.24,211.05l-32.15,43.5l132.39,88.89l32.15,-43.5l-132.39,-88.89z" class="cls-25"/>
  <g id="svg_27" filter="url(#g10)" class="cls-29">
   <rect id="svg_28" transform="rotate(-1.38 2.93 3)" opacity="0.5" fill="#53c4e6" height="306.48" width="314.04" y="-270.16" x="-28.08" class="cls-31"/>
  </g>
  <g id="svg_29" filter="url(#g1)" class="cls-30">
   <polygon id="svg_30" fill="#004485" opacity="0.5" points="481.56 284.81 513.71 375.59 710.4 301.83 678.25 211.05 481.56 284.81" class="cls-32"/>
  </g>
  <path id="svg_31" fill="rgba(0,132,190,.5)" d="m107.09,99.46l-196.69,17.02l11.35,98.35l194.8,-17.02l-9.46,-98.35z" class="cls-10"/>
  <path id="svg_32" fill="rgba(37,94,159,.5)" d="m523.17,116.48l136.17,73.76l296.92,-544.68l-136.17,-73.76l-296.92,544.68z" class="cls-28"/>
 </g>
</svg>