<?xml version="1.0" encoding="UTF-8"?><svg id="Layer_1" xmlns="http://www.w3.org/2000/svg" viewBox="0 0 1766.78 1256.73"><defs><style>.cls-1{fill:#332a1b;}.cls-2{fill:rgba(244,199,181,.5);}.cls-3{fill:rgba(4,9,1,.5);}.cls-4{fill:rgba(246,191,156,.5);}.cls-5{fill:rgba(233,207,184,.5);}.cls-6{fill:rgba(255,184,136,.5);}.cls-7{fill:rgba(252,182,151,.5);}.cls-8{fill:rgba(254,183,153,.5);}.cls-9{fill:rgba(130,87,30,.5);}.cls-10{fill:rgba(154,109,76,.5);}.cls-11{fill:rgba(4,21,19,.5);}.cls-12{fill:rgba(186,161,122,.5);}.cls-13{fill:rgba(206,187,162,.5);}.cls-14{fill:rgba(167,120,90,.5);}.cls-15{fill:rgba(208,133,100,.5);}.cls-16{fill:rgba(228,63,0,.5);}.cls-17{fill:rgba(215,150,117,.5);}.cls-18{fill:rgba(18,6,0,.5);}.cls-19{fill:rgba(42,28,2,.5);}.cls-20{fill:rgba(58,37,10,.5);}.cls-21{fill:rgba(77,57,20,.5);}.cls-22{fill:rgba(97,114,111,.5);}.cls-23{fill:rgba(78,42,6,.5);}.cls-24{fill:rgba(39,28,0,.5);}</style></defs><rect class="cls-1" x="455.34" y="307.48" width="670" height="480"/><path class="cls-6" d="M907.51,500.85l-438.82,117.17,96.49,363,438.82-117.17-96.49-363Z"/><path class="cls-10" d="M487.07,335.43l89.6,353.81,530.72-135.55-89.6-351.52L487.07,335.43Z"/><path class="cls-4" d="M549.1,622.62l-117.17,271.1,342.33,147.04,117.17-271.1-342.33-147.04Z"/><path class="cls-9" d="M408.95,572.08L0,951.16l284.89,305.57,406.66-379.09-282.59-305.57Z"/><path class="cls-12" d="M365.3,549.1l75.82,41.35,229.75-415.85-75.82-41.35-229.75,415.85Z"/><path class="cls-23" d="M705.33,634.11l135.55,91.9,133.25-202.18-135.55-91.9-133.25,202.18Z"/><path class="cls-11" d="M1178.62,450.31l-261.91,312.46,418.14,346.92,261.91-312.46-418.14-346.92Z"/><path class="cls-22" d="M1190.1,565.18l36.76,581.27,539.91-34.46-36.76-581.27-539.91,34.46Z"/><path class="cls-7" d="M863.86,443.42l9.19,62.03,188.39-32.16-9.19-62.03-188.39,32.16Z"/><path d="M427.33,560.59l96.49,98.79,153.93-153.93-96.49-98.79-153.93,153.93Z"/><path class="cls-2" d="M714.52,429.63l-176.91,310.16,50.54,27.57,176.91-310.16-50.54-27.57Z"/><path class="cls-21" d="M356.11,402.06l-211.37,209.07,213.67,213.67,211.37-209.07-213.67-213.67Z"/><path class="cls-17" d="M902.92,659.38l20.68,16.08,135.55-158.53-20.68-16.08-135.55,158.53Z"/><path class="cls-20" d="M572.08,351.52l321.65,156.23,50.54-107.98-321.65-153.93-50.54,105.68Z"/><path class="cls-15" d="M981.03,307.86l-89.6,39.06,110.28,241.24,89.6-39.06-110.28-241.24Z"/><path class="cls-24" d="M654.79,771.96l-480.18,4.59,4.59,209.07,477.88-4.59-2.3-209.07Z"/><path class="cls-14" d="M666.27,441.12l89.6,163.12,91.9-55.14-89.6-163.12-91.9,55.14Z"/><path class="cls-16" d="M767.36,684.65l34.46,314.76,73.52-9.19-34.46-314.76-73.52,9.19Z"/><path class="cls-18" d="M953.46,307.86l528.42,328.54,190.69-310.16L1144.15,0l-190.69,307.86Z"/><path class="cls-13" d="M482.47,397.47l48.25,25.27,57.44-110.28-48.25-22.97-57.44,107.98Z"/><path class="cls-5" d="M620.32,654.79l-73.52,64.33,71.22,78.11,73.52-64.33-71.22-78.11Z"/><path class="cls-8" d="M866.16,691.55l-18.38,89.6,45.95,6.89,18.38-89.6-45.95-6.89Z"/><path class="cls-19" d="M353.81,707.63l64.33,2.3,16.08-454.9-64.33-2.3-16.08,454.9Z"/><path class="cls-3" d="M1174.02,597.35l101.09,9.19,18.38-229.75-101.09-9.19-18.38,229.75Z"/></svg>