<?xml version="1.0" encoding="UTF-8"?><svg id="Layer_2" xmlns="http://www.w3.org/2000/svg" xmlns:xlink="http://www.w3.org/1999/xlink" viewBox="0 0 1056.2 576"><defs><style>.cls-1{fill:url(#linear-gradient);}.cls-2{fill:#7b2927;}.cls-3{fill:#fcfcfc;stroke:#231f20;stroke-miterlimit:10;}</style><linearGradient id="linear-gradient" x1="456.42" y1="440.11" x2="495.77" y2="668.86" gradientTransform="translate(0 -349)" gradientUnits="userSpaceOnUse"><stop offset="0" stop-color="#fff"/><stop offset="1" stop-color="#616365"/></linearGradient></defs><g id="Layer_2-2"><g id="Layer_1-2"><path class="cls-3" d="M75.5,.5H980.7c41.42,0,75,26.55,75,59.31v456.38c0,32.76-33.58,59.31-75,59.31H75.5c-41.42,0-75-26.55-75-59.31V59.81C.5,27.05,34.08,.5,75.5,.5Z"/><g><g><path class="cls-1" d="M450.85,127.34s-36.51,17.39-89.54,59.04c-42.12,33.11-84.4,38.88-113.72,33.83-29.32-5.06-20.31,.95-7.43,9.17,12.88,8.22,64.17,34.62,125.5,30.66,77.37-4.98,138.78-48.92,179.4-73.66,40.62-24.74,87.49-52.56,139.81-62.04,38.8-7.03,31.69-8.14,2.05-5.61-52.48,4.43-107.72,27.9-149.68,48.92-101.95,51.21-86.38-40.31-86.38-40.31h0Z"/><path class="cls-2" d="M327.4,120.07s2.29,19.84,14.62,34.14c12.8,14.86,27.58,17.07,27.58,17.07,0,0-24.34,20.47-47.1,31.06-28.45,13.28-60.22,13.99-76.9,11.62-16.68-2.45-15.57-2.45,1.26-10.04,21.42-9.64,38.09-24.5,50.82-49.47,12.72-24.97,24.5-32.4,29.72-34.38Z"/></g><g><path class="cls-2" d="M227.9,342.22h13.36l42.52,63.7,42.52-63.7h13.36v116.73h-13.2v-94.52l-42.52,62.51h-.63l-42.6-62.36v94.36h-12.8v-116.73h0Z"/><path class="cls-2" d="M413.31,341.35h12.33l53.19,117.6h-14.15l-13.67-30.82h-63.54l-13.83,30.82h-13.51l53.19-117.6h0Zm32.56,74.76l-26.55-59.35-26.71,59.35h53.27Z"/><path class="cls-2" d="M499.37,342.22h12.33l73.58,93.57v-93.57h12.8v116.73h-10.51l-75.4-95.71v95.71h-12.8v-116.73h0Z"/><path class="cls-2" d="M659.49,354.39h-39.2v-12.17h91.75v12.17h-39.2v104.56h-13.36v-104.56Z"/><path class="cls-2" d="M762.38,341.35h12.33l53.19,117.6h-14.15l-13.67-30.82h-63.54l-13.83,30.82h-13.51l53.19-117.6h0Zm32.48,74.76l-26.55-59.35-26.71,59.35h53.27Z"/></g></g></g></g></svg>