<svg id="Layer_1" data-name="Layer 1" xmlns="http://www.w3.org/2000/svg" viewBox="0 0 1134 339"><defs><style>.cls-1{fill:#fff;}.cls-2{fill:none;}.cls-3{fill:#ccc;}.cls-4{fill:#bebebe;}.cls-5{fill:#e6e6e6;}.cls-5,.cls-6,.cls-7{fill-rule:evenodd;}.cls-6{fill:#f2f2f2;}.cls-7{fill:#f5f5f5;}.cls-8{fill:#999;}</style></defs><rect class="cls-1" x="-337" y="-241" width="1927" height="924"/><rect class="cls-2" x="-65.41" y="188.45" width="409.95" height="396.55"/><path class="cls-3" d="M-211.64,483.32,25.91,239.57a4.41,4.41,0,0,0,.53-5.61c-14.47-20.15-41.06-23.63-51-37.19-29.24-40.15-36.66-62.87-49.24-61.43A3.93,3.93,0,0,0-76,136.55l-85.82,87.94c-49.39,50.6-56.43,162-57.72,255.2a4.62,4.62,0,0,0,4.14,5.05A4.61,4.61,0,0,0-211.64,483.32Z"/><path class="cls-4" d="M274.36,477,31,239.49A4.63,4.63,0,0,0,25.3,239c-20.15,14.47-23.63,41.13-37.19,51C-52,319.18-74.69,326.6-73.32,339.17a4.17,4.17,0,0,0,1.21,2.28l87.94,85.82c50.6,49.31,162,56.43,255.27,57.72a4.7,4.7,0,0,0,3.26-8Z"/><path class="cls-5" d="M15.83,427.27C-12,400-24.62,347,28.33,237c-85.75,38.48-116,89.08-101.43,103.55Z"/><path class="cls-3" d="M268.3-9,30.91,234.41a4.32,4.32,0,0,0-.53,5.61c14.39,20.15,41.05,23.63,50.9,37.19,29.31,40.15,36.74,62.87,49.31,61.43a3.71,3.71,0,0,0,2.27-1.21l85.75-87.94C268,199,275,87.54,276.33-5.7a4.63,4.63,0,0,0-4.4-4.84A4.66,4.66,0,0,0,268.3-9Z"/><path class="cls-6" d="M218.61,249.49c-27,27.65-80.29,40.45-190.28-12.5C66.81,323.12,117.41,353.26,132,338.42Z"/><path class="cls-4" d="M-217.62-3,25.91,234.49a4.46,4.46,0,0,0,5.6.53c20.23-14.47,23.71-41.13,37.19-51,40.15-29.24,62.87-36.66,61.43-49.23a3.64,3.64,0,0,0-1.13-2.28L41.06,46.71C-9.54-2.6-121-9.72-214.21-11a4.7,4.7,0,0,0-4.8,4.6A4.65,4.65,0,0,0-217.62-3Z"/><path class="cls-7" d="M41.06,46.71C68.63,73.68,81.5,127,28.48,237c86-38.48,116.12-89.08,101.28-103.55Z"/><path class="cls-6" d="M-161.87,224.49c27-27.65,80.29-40.45,190.2,12.5-38.48-86.12-89-116.27-103.47-101.43Z"/><circle class="cls-8" cx="28.41" cy="236.99" r="10.6"/><rect class="cls-2" x="1098.59" y="65.45" width="409.95" height="396.55"/><path class="cls-3" d="M952.36,360.32l237.55-243.75a4.41,4.41,0,0,0,.53-5.61c-14.47-20.15-41.06-23.63-51-37.19-29.24-40.15-36.66-62.87-49.24-61.43a3.93,3.93,0,0,0-2.27,1.21l-85.82,87.94c-49.39,50.6-56.43,162-57.72,255.2a4.62,4.62,0,0,0,8,3.63Z"/><path class="cls-4" d="M1438.36,354,1195,116.49a4.63,4.63,0,0,0-5.68-.53c-20.15,14.47-23.63,41.13-37.19,51-40.07,29.24-62.8,36.66-61.43,49.23a4.17,4.17,0,0,0,1.21,2.28l87.94,85.82c50.6,49.31,162,56.43,255.27,57.72a4.7,4.7,0,0,0,3.26-8Z"/><path class="cls-7" d="M1179.83,304.27C1152,277,1139.38,224,1192.33,114c-85.75,38.48-116,89.08-101.43,103.55Z"/><path class="cls-4" d="M946.38-126l243.53,237.47a4.46,4.46,0,0,0,5.6.53c20.23-14.47,23.71-41.13,37.19-51,40.15-29.24,62.87-36.66,61.43-49.23A3.64,3.64,0,0,0,1293,9.53l-87.94-85.82c-50.6-49.31-162-56.43-255.27-57.72a4.7,4.7,0,0,0-4.8,4.6A4.65,4.65,0,0,0,946.38-126Z"/><path class="cls-6" d="M1002.13,101.49c27-27.65,80.29-40.45,190.2,12.5-38.48-86.12-89-116.27-103.47-101.43Z"/></svg>