<svg id="Layer_1" data-name="Layer 1" xmlns="http://www.w3.org/2000/svg" viewBox="0 0 1500 329"><defs><style>.cls-1{fill:#a1afbb;}.cls-2{fill:#627077;}.cls-10,.cls-11,.cls-12,.cls-13,.cls-14,.cls-15,.cls-16,.cls-17,.cls-18,.cls-19,.cls-2,.cls-20,.cls-21,.cls-22,.cls-23,.cls-24,.cls-3,.cls-4,.cls-5,.cls-6,.cls-7,.cls-8,.cls-9{fill-opacity:0.5;}.cls-3{fill:#75818c;}.cls-4{fill:#d7eafa;}.cls-5{fill:#ebfdff;}.cls-6{fill:#daeafb;}.cls-7{fill:#75858f;}.cls-8{fill:#cde0ee;}.cls-9{fill:#9aabb9;}.cls-10{fill:#96a6b2;}.cls-11{fill:#55575e;}.cls-12{fill:#a0b3c0;}.cls-13{fill:#79878c;}.cls-14{fill:#9babb6;}.cls-15{fill:#d2e3f4;}.cls-16{fill:#7c818f;}.cls-17{fill:#bacbd8;}.cls-18{fill:#7a858d;}.cls-19{fill:#b2c0d1;}.cls-20{fill:#6f7a81;}.cls-21{fill:#cee5f3;}.cls-22{fill:#b6c5d5;}.cls-23{fill:#7a828f;}.cls-24{fill:#d3e9f6;}</style></defs><rect class="cls-1" x="-173" y="-361" width="2078" height="1093"/><rect class="cls-1" x="-32.65" y="-44.6" width="1557.81" height="384.65"/><path class="cls-2" d="M243.87,229.73H1353.81v109H243.87Z"/><path class="cls-3" d="M125.08-149.83,187.4,661.9,1235,586.74,1172.71-225Z"/><path class="cls-4" d="M64.72-44.6,76.4,218.46l701-37.58L765.73-78.42Z"/><path class="cls-5" d="M1346,102,1225.29-63.39,1607-89.7l35,101.47Z"/><path class="cls-6" d="M-278,120.75,232.18-349,384.07-48.36,193.24,297.38Z"/><path class="cls-7" d="M898.15,19.28h401.13V173.36H898.15Z"/><path class="cls-8" d="M-52.12-59.63H1529.06V4.25H-52.12Z"/><path class="cls-9" d="M703.42,229.73H1420v52.61H703.42Z"/><path class="cls-10" d="M325.65,38.07H462V248.52H325.65Z"/><ellipse class="cls-11" cx="1497.9" cy="297.38" rx="46.65" ry="71.53" transform="translate(-27.83 362.84) rotate(-13.69)"/><path class="cls-12" d="M765.73,256l-85.68-7.52L652.79,90.69l307.67,15Z"/><path class="cls-13" d="M561.27,85.71-202.06,593l482.92,684,763.33-507.33Z"/><path class="cls-14" d="M785.2,30.56,477.54,8l38.94-112.74,74,26.31Z"/><path class="cls-15" d="M68.61,169.6-102.75,117l15.58-319.43H80.3Z"/><ellipse class="cls-16" cx="49.14" cy="301.13" rx="41.51" ry="69.81" transform="translate(-251.25 247.63) rotate(-70.63)"/><path class="cls-17" d="M310.07,319.92l-58.41-52.61L240,304.89Z"/><path class="cls-18" d="M442.49,241l-354.4,97.7,35.05,127.78,354.4-97.71Z"/><path class="cls-19" d="M1330.44,365l-50.63-97.71,50.63-22.55,11.68,63.89Z"/><path class="cls-20" d="M874.78,286.1l-553,15,15.57,451,553-15Z"/><ellipse class="cls-21" cx="1127.92" cy="-40.84" rx="100.86" ry="41.5" transform="translate(74.79 365.11) rotate(-19.01)"/><ellipse class="cls-22" cx="158.19" cy="207.18" rx="98.05" ry="89.26" transform="translate(-92.15 279.84) rotate(-68.82)"/><ellipse class="cls-23" cx="1346.02" cy="162.09" rx="56.46" ry="151.64" transform="translate(909.33 1445.58) rotate(-78.08)"/><path class="cls-24" d="M882.57.49,629.42-243.78,1096.77-14.54,960.46-25.81Z"/></svg>