<?xml version="1.0" encoding="UTF-8" standalone="no"?>
<!DOCTYPE svg PUBLIC "-//W3C//DTD SVG 1.1//EN" "http://www.w3.org/Graphics/SVG/1.1/DTD/svg11.dtd">
<!-- Created with Vectornator (http://vectornator.io/) -->
<svg height="100%" stroke-miterlimit="10" style="fill-rule:nonzero;clip-rule:evenodd;stroke-linecap:round;stroke-linejoin:round;" version="1.1" viewBox="0 0 770 190" width="100%" xml:space="preserve" xmlns="http://www.w3.org/2000/svg" xmlns:vectornator="http://vectornator.io" xmlns:xlink="http://www.w3.org/1999/xlink">
<defs/>
<clipPath id="ArtboardFrame">
<rect height="190" width="770" x="0" y="0"/>
</clipPath>
<g clip-path="url(#ArtboardFrame)" id="Untitled" vectornator:layerName="Untitled">
<path d="M0 0L680 0L680 0L680 147.05L680 147.05L0 147.05L0 147.05L0 0L0 0Z" fill="#8f6e5f" fill-rule="nonzero" opacity="1" stroke="none"/>
<path d="M419.9 59.5L416.5 146.2L724.2 151.3L727.6 64.6L419.9 59.5Z" fill="#000718" fill-rule="nonzero" opacity="1" stroke="none"/>
<path d="M175.1 56.1L358.7 64.6L370.6-190.4L187-198.9L175.1 56.1Z" fill="#ffad5f" fill-rule="nonzero" opacity="1" stroke="none"/>
<path d="M159.8 112.2L258.4 520.2L513.4 457.3L414.8 49.3L159.8 112.2Z" fill="#542737" fill-rule="nonzero" opacity="1" stroke="none"/>
<path d="M15.3 91.8L81.6 156.4L226.1 8.5L159.8-54.4L15.3 91.8Z" fill="#ca9e90" fill-rule="nonzero" opacity="1" stroke="none"/>
<path d="M588.2 42.5L887.4 374L1188.3 100.3L889.1-229.5L588.2 42.5Z" fill="#5c3f2f" fill-rule="nonzero" opacity="1" stroke="none"/>
<path d="M542.3 62.9L54.4 248.2L130.9 450.5L618.8 265.2L542.3 62.9Z" fill="#181a22" fill-rule="nonzero" opacity="1" stroke="none"/>
<path d="M71.4 79.9L74.8 214.2L258.4 209.1L255 74.8L71.4 79.9Z" fill="#a34d3c" fill-rule="nonzero" opacity="1" stroke="none"/>
<path d="M93.5 51L141.1 88.4L351.9-183.6L304.3-221L93.5 51Z" fill="#f3c6a0" fill-rule="nonzero" opacity="1" stroke="none"/>
<path d="M559.3 61.2L545.7 496.4L654.5 499.8L668.1 64.6L559.3 61.2Z" fill="#695f5d" fill-rule="nonzero" opacity="1" stroke="none"/>
<path d="M355.3 42.5L491.3 76.5L504.9 17L368.9-15.3L355.3 42.5Z" fill="#b4964a" fill-rule="nonzero" opacity="1" stroke="none"/>
<path d="M74.8 52.7L86.7 59.5L103.7 23.8L91.8 17L74.8 52.7Z" fill="#26141b" fill-rule="nonzero" opacity="1" stroke="none"/>
<path d="M44.2 11.9L56.1 392.7L102 391L90.1 10.2L44.2 11.9Z" fill="#756066" fill-rule="nonzero" opacity="1" stroke="none"/>
<path d="M494.7 8.5L569.5 64.6L907.8-382.5L833-438.6L494.7 8.5Z" fill="#ba8e50" fill-rule="nonzero" opacity="1" stroke="none"/>
<path d="M202.3 6.8L166.6 35.7L275.4 159.8L311.1 130.9L202.3 6.8Z" fill="#915e59" fill-rule="nonzero" opacity="1" stroke="none"/>
<path d="M360.4 64.6L171.7 166.6L309.4 421.6L498.1 319.6L360.4 64.6Z" fill="#705360" fill-rule="nonzero" opacity="1" stroke="none"/>
<path d="M11.9 10.2L-134.3 20.4L-117.3 234.6L27.2 224.4L11.9 10.2Z" fill="#a1878f" fill-rule="nonzero" opacity="1" stroke="none"/>
<path d="M630.7 68L676.6 73.1L690.2-59.5L644.3-64.6L630.7 68Z" fill="#522f1f" fill-rule="nonzero" opacity="1" stroke="none"/>
<path d="M657.9 108.8L914.6 404.6L1089.7 253.3L833-40.8L657.9 108.8Z" fill="#857b7b" fill-rule="nonzero" opacity="1" stroke="none"/>
<path d="M419.9 69.7L295.8 253.3L528.7 406.3L652.8 222.7L419.9 69.7Z" fill="#2a252c" fill-rule="nonzero" opacity="1" stroke="none"/>
<path d="M214.2 6.8L341.7 90.1L442-66.3L314.5-149.6L214.2 6.8Z" fill="#df8a4b" fill-rule="nonzero" opacity="1" stroke="none"/>
<path d="M397.8 73.1L367.2 69.7L324.7 464.1L355.3 467.5L397.8 73.1Z" fill="#87686d" fill-rule="nonzero" opacity="1" stroke="none"/>
<path d="M438.6 105.4L450.5 110.5L538.9-117.3L527-122.4L438.6 105.4Z" fill="#49452f" fill-rule="nonzero" opacity="1" stroke="none"/>
<path d="M6.8 139.4L-3.4 142.8L25.5 209.1L35.7 205.7L6.8 139.4Z" fill="#ffffff" fill-rule="nonzero" opacity="1" stroke="none"/>
<path d="M567.8 125.8L542.3 154.7L732.7 321.3L758.2 292.4L567.8 125.8Z" fill="#d6b6ac" fill-rule="nonzero" opacity="1" stroke="none"/>
<path d="M83.3 52.7L-81.6 280.5L-64.6 290.7L98.6 62.9L83.3 52.7Z" fill="#b0908e" fill-rule="nonzero" opacity="1" stroke="none"/>
<path d="M229.5 88.4L-40.8 387.6L-11.9 411.4L256.7 112.2L229.5 88.4Z" fill="#712f21" fill-rule="nonzero" opacity="1" stroke="none"/>
<path d="M515.1 40.8L520.2 151.3L552.5 147.9L547.4 37.4L515.1 40.8Z" fill="#24201b" fill-rule="nonzero" opacity="1" stroke="none"/>
<path d="M637.5 130.9L742.9 674.9L1120.3 601.8L1014.9 57.8L637.5 130.9Z" fill="#161113" fill-rule="nonzero" opacity="1" stroke="none"/>
<path d="M81.6 25.5L-688.5 27.2L-686.8 71.4L81.6 69.7L81.6 25.5Z" fill="#5a4046" fill-rule="nonzero" opacity="1" stroke="none"/>
<path d="M119 0L249.9 28.9L287.3-149.6L156.4-178.5L119 0Z" fill="#d1b195" fill-rule="nonzero" opacity="1" stroke="none"/>
<path d="M595 134.3L440.3 309.4L569.5 419.9L724.2 244.8L595 134.3Z" fill="#000000" fill-rule="nonzero" opacity="1" stroke="none"/>
<path d="M96.9 62.9L197.2 76.5L197.2 64.6L96.9 51L96.9 62.9Z" fill="#fbddc4" fill-rule="nonzero" opacity="1" stroke="none"/>
<path d="M569.5 25.5L593.3 61.2L678.3 5.1L654.5-28.9L569.5 25.5Z" fill="#a66642" fill-rule="nonzero" opacity="1" stroke="none"/>
<path d="M129.2 108.8L78.2 146.2L198.9 297.5L249.9 260.1L129.2 108.8Z" fill="#cb7964" fill-rule="nonzero" opacity="1" stroke="none"/>
</g>
</svg>
