<svg id="Layer_1" data-name="Layer 1" xmlns="http://www.w3.org/2000/svg" xmlns:xlink="http://www.w3.org/1999/xlink" viewBox="0 0 680 459"><defs><style>.cls-1{fill:#d6d0cb;}.cls-2{fill:#360000;}.cls-13,.cls-2,.cls-20,.cls-21,.cls-22,.cls-27,.cls-28,.cls-29,.cls-31,.cls-32,.cls-33,.cls-37,.cls-38,.cls-7,.cls-8,.cls-9{fill-opacity:0.5;}.cls-3{filter:url(#g10);}.cls-4{fill:#37230e;}.cls-10,.cls-11,.cls-12,.cls-14,.cls-15,.cls-16,.cls-17,.cls-18,.cls-19,.cls-23,.cls-24,.cls-25,.cls-26,.cls-30,.cls-34,.cls-36,.cls-4,.cls-6{opacity:0.5;}.cls-5{filter:url(#g1);}.cls-6{fill:#c68246;}.cls-7{fill:#dcaa84;}.cls-8{fill:#1a162d;}.cls-9{fill:#7f3f3b;}.cls-10{fill:#624b57;}.cls-11{fill:#eba25f;}.cls-12{fill:#603d34;}.cls-13{fill:#ba955e;}.cls-14{fill:#cdb7a9;}.cls-15{fill:#8f5c43;}.cls-16{fill:#f0d3c1;}.cls-17{fill:#92695f;}.cls-18{fill:#935b3e;}.cls-19{fill:#302e38;}.cls-20{fill:#7a584f;}.cls-21{fill:#ceaa8d;}.cls-22{fill:#af9595;}.cls-23{fill:#755c60;}.cls-24{fill:#673432;}.cls-25{fill:#7f4b4f;}.cls-26{fill:#272026;}.cls-27{fill:#551f12;}.cls-28{fill:#864a33;}.cls-29{fill:#e89150;}.cls-30{fill:#cc9574;}.cls-31{fill:#f0e2d9;}.cls-32{fill:#4c403e;}.cls-33{fill:#684b56;}.cls-34{fill:#824834;}.cls-35{filter:url(#g0.6);}.cls-36{fill:#908d5a;}.cls-37{fill:#9a6b58;}.cls-38{fill:#c85318;}</style><filter id="g10" name="g10"><feGaussianBlur stdDeviation="10"/></filter><filter id="g1" name="g1"><feGaussianBlur stdDeviation="1"/></filter><filter id="g0.6" name="g0.6"><feGaussianBlur stdDeviation="0.6"/></filter></defs><rect class="cls-1" width="680" height="459"/><path class="cls-2" d="M630.7,11.9-107.1,129.2l83.3,506.6L712.3,518.5Z"/><g class="cls-3"><polygon class="cls-4" points="345.1 299.2 761.6 511.7 969 103.7 552.5 -107.1 345.1 299.2"/></g><g class="cls-5"><polygon class="cls-6" points="13.6 8.5 90.1 261.8 805.8 42.5 729.3 -209.1 13.6 8.5"/></g><path class="cls-7" d="M5.1,350.2l5.1,474.3,481.1-6.8-5.1-474.3Z"/><path class="cls-8" d="M273.7,282.2l278.8,45.9,20.4-127.5L294.1,154.7Z"/><path class="cls-9" d="M20.4,241.4,64.6,392.7,416.5,285.6,372.3,134.3Z"/><g class="cls-3"><polygon class="cls-10" points="149.6 54.4 45.9 -62.9 -340 266.9 -236.3 384.2 149.6 54.4"/></g><g class="cls-3"><polygon class="cls-11" points="112.2 17 249.9 178.5 414.8 35.7 277.1 -124.1 112.2 17"/></g><g class="cls-3"><polygon class="cls-12" points="647.7 39.1 435.2 544 727.6 664.7 940.1 159.8 647.7 39.1"/></g><path class="cls-13" d="M272,93.5l355.3,56.1L649.4,0,294.1-54.4Z"/><g class="cls-3"><polygon class="cls-14" points="170 394.4 367.2 960.5 564.4 889.1 367.2 323 170 394.4"/></g><g class="cls-5"><polygon class="cls-15" points="248.2 368.9 -10.2 464.1 85 717.4 343.4 622.2 248.2 368.9"/></g><g class="cls-3"><polygon class="cls-16" points="96.9 163.2 183.6 166.6 192.1 -23.8 105.4 -27.2 96.9 163.2"/></g><g class="cls-5"><polygon class="cls-17" points="90.1 102 -64.6 119 -6.8 586.5 146.2 569.5 90.1 102"/></g><g class="cls-5"><polygon class="cls-18" points="588.2 319.6 380.8 433.5 572.9 775.2 780.3 661.3 588.2 319.6"/></g><g class="cls-3"><polygon class="cls-19" points="334.9 323 669.8 363.8 691.9 176.8 357 136 334.9 323"/></g><path class="cls-20" d="M549.1,168.3,666.4,817.7l52.7-10.2L601.8,158.1Z"/><path class="cls-21" d="M207.4,334.9-11.9,690.2l51,30.6L258.4,365.5Z"/><path class="cls-22" d="M52.7,134.3-51,224.4l35.7,39.1,102-90.1Z"/><g class="cls-3"><polygon class="cls-23" points="13.6 244.8 85 248.2 108.8 -147.9 37.4 -151.3 13.6 244.8"/></g><g class="cls-3"><polygon class="cls-24" points="127.5 275.4 144.5 365.5 404.6 314.5 387.6 224.4 127.5 275.4"/></g><g class="cls-3"><polygon class="cls-25" points="226.1 105.4 142.8 168.3 246.5 299.2 329.8 236.3 226.1 105.4"/></g><g class="cls-3"><polygon class="cls-26" points="370.6 243.1 360.4 334.9 581.4 358.7 591.6 266.9 370.6 243.1"/></g><path class="cls-27" d="M578,421.6l57.8,166.6,117.3-40.8L695.3,380.8Z"/><path class="cls-28" d="M132.6,404.6l-380.8,17,15.3,295.8,379.1-17Z"/><path class="cls-29" d="M275.4,156.4,357,168.3,389.3-40.8,307.7-52.7Z"/><g class="cls-5"><polygon class="cls-30" points="511.7 30.6 584.8 74.8 742.9 -185.3 669.8 -229.5 511.7 30.6"/></g><path class="cls-31" d="M380.8,340,272,367.2l17,66.3,108.8-27.2Z"/><path class="cls-32" d="M598.4,156.4l113.9,136L924.8,113.9,810.9-20.4Z"/><path class="cls-33" d="M244.8,324.7l170-27.2L391,144.5,221,171.7Z"/><g class="cls-5"><polygon class="cls-34" points="538.9 355.3 608.6 591.6 782 538.9 712.3 302.6 538.9 355.3"/></g><g class="cls-35"><polygon class="cls-36" points="360.4 119 489.6 161.5 533.8 25.5 404.6 -15.3 360.4 119"/></g><path class="cls-37" d="M40.8,122.4l5.1,15.3L246.5,64.6l-5.1-15.3Z"/><path class="cls-38" d="M360.4,35.7l-1.7,98.6h34l1.7-98.6Z"/></svg>