<?xml version="1.0" encoding="utf-8"?>
<!-- Generator: Adobe Illustrator 26.3.1, SVG Export Plug-In . SVG Version: 6.00 Build 0)  -->
<svg version="1.1" id="Layer_1" xmlns="http://www.w3.org/2000/svg" xmlns:xlink="http://www.w3.org/1999/xlink" x="0px" y="0px"
	 viewBox="0 0 843.5 215.5" style="enable-background:new 0 0 843.5 215.5;" xml:space="preserve">
<style type="text/css">
	.st0{fill:#3C402B;}
	.st1{filter:url(#g0.6);}
	.st2{opacity:0.5;fill:#CB915B;}
	.st3{opacity:0.5;fill:#AB9C9B;}
	.st4{fill:#110C0C;fill-opacity:0.5;}
	.st5{fill:#000A0E;fill-opacity:0.5;}
	.st6{fill:#C8A365;fill-opacity:0.5;}
	.st7{fill:#747B50;fill-opacity:0.5;}
	.st8{fill:#D08375;fill-opacity:0.5;}
	.st9{fill:#170B0E;fill-opacity:0.5;}
	.st10{opacity:0.5;fill:#5B6F3C;}
	.st11{fill:#C1CDA3;fill-opacity:0.5;}
	.st12{fill-opacity:0.5;}
	.st13{filter:url(#g1);}
	.st14{opacity:0.5;fill:#3A1A14;}
	.st15{opacity:0.5;fill:#06130E;}
	.st16{opacity:0.5;fill:#79B966;}
	.st17{fill:#2A0912;fill-opacity:0.5;}
	.st18{fill:#DC6F52;fill-opacity:0.5;}
	.st19{opacity:0.5;fill:#36251B;}
	.st20{fill:#AAA094;fill-opacity:0.5;}
	.st21{fill:#191611;fill-opacity:0.5;}
	.st22{fill:#EA8943;fill-opacity:0.5;}
	.st23{opacity:0.5;fill:#3B281C;}
	.st24{fill:#281915;fill-opacity:0.5;}
	.st25{fill:#1A1010;fill-opacity:0.5;}
	.st26{fill:#C4CF97;fill-opacity:0.5;}
	.st27{fill:#FFF17F;fill-opacity:0.5;}
	.st28{opacity:0.5;fill:#FAC77F;}
	.st29{filter:url(#g10);}
	.st30{opacity:0.5;fill:#3D0000;}
	.st31{fill:#DED192;fill-opacity:0.5;}
	.st32{fill:#987848;fill-opacity:0.5;}
</style>
<filter  id="g10">
	<feGaussianBlur  stdDeviation="10"></feGaussianBlur>
</filter>
<filter  id="g1">
	<feGaussianBlur  stdDeviation="1"></feGaussianBlur>
</filter>
<filter  id="g0.6">
	<feGaussianBlur  stdDeviation="0.6"></feGaussianBlur>
</filter>
<rect x="0" y="0" class="st0" width="1100.3" height="215.5"/>
<g class="st1">
	<polygon class="st2" points="347.9,48.5 347.9,113.9 759.2,109.7 759.2,44.3 	"/>
</g>
<g class="st1">
	<polygon class="st3" points="413.3,116 185.6,269.9 402.8,592.6 630.5,438.6 	"/>
</g>
<path class="st4" d="M613.6,6.3L449.2,717l109.7,25.3L723.3,31.6L613.6,6.3z"/>
<path class="st5" d="M225.6,73.8l33.7,324.7l107.5-12.7L333.2,61.2L225.6,73.8z"/>
<path class="st6" d="M516.6,44.3l-54.8,12.7l111.8,472.4l54.8-12.7L516.6,44.3z"/>
<path class="st7" d="M426,12.7l379.6,168.7l50.6-116L476.6-101.2L426,12.7z"/>
<path class="st8" d="M341.6,177.1l42.2,8.4l147.6-653.7l-42.2-8.4L341.6,177.1z"/>
<path class="st9" d="M567.3,97l-126.5,156l459.7,373.2l126.5-156L567.3,97z"/>
<g class="st1">
	<polygon class="st10" points="265.7,25.3 449.2,90.7 506.1,-65.4 322.6,-130.7 	"/>
</g>
<path class="st11" d="M710.6,2.1l-16.9,263.6l38,2.1L748.6,4.2L710.6,2.1z"/>
<path class="st12" d="M750.7,181.4l38,248.8l419.6-69.6l-38-248.8L750.7,181.4z"/>
<g class="st13">
	<polygon class="st14" points="223.5,46.4 35.8,118.1 219.3,582 407,510.3 	"/>
</g>
<g class="st1">
	<polygon class="st15" points="748.6,52.7 993.2,261.5 1242.1,-33.7 997.4,-242.5 	"/>
</g>
<g class="st1">
	<polygon class="st16" points="257.3,27.4 269.9,52.7 497.7,-63.3 485,-88.6 	"/>
</g>
<path class="st17" d="M417.5,82.2l196.1,485l33.7-14.8l-196.1-485L417.5,82.2z"/>
<path class="st18" d="M50.6,183.5L-19,295.2l213,137.1l69.6-111.8L50.6,183.5z"/>
<g class="st1">
	<polygon class="st19" points="107.5,181.4 215.1,219.3 291,2.1 183.5,-33.7 	"/>
</g>
<path class="st20" d="M312.1,166.6l141.3,151.8l59-56.9L371.1,109.7L312.1,166.6z"/>
<path class="st21" d="M655.8,23.2l16.9,116l54.8-8.4l-16.9-116L655.8,23.2z"/>
<path class="st22" d="M126.5,33.7L69.6,44.3L75.9,78l56.9-10.5L126.5,33.7z"/>
<g class="st13">
	<polygon class="st23" points="565.1,50.6 674.8,170.8 742.3,107.5 632.6,-10.5 	"/>
</g>
<path class="st24" d="M143.4,185.6l29.5,19l291-476.6l-29.5-19L143.4,185.6z"/>
<path class="st25" d="M438.6,128.6L-10.5,792.9l23.2,14.8l449.2-664.3L438.6,128.6z"/>
<path class="st26" d="M710.6,99.1l31.6,4.2l56.9-347.9l-31.6-4.2L710.6,99.1z"/>
<ellipse transform="matrix(0.9687 -0.2483 0.2483 0.9687 -3.0591 131.7977)" class="st27" cx="520.9" cy="78" rx="59" ry="31.6"/>
<g class="st13">
	
		<ellipse transform="matrix(0.817 -0.5766 0.5766 0.817 73.7469 396.8643)" class="st28" cx="662.1" cy="82.2" rx="10.5" ry="40.1"/>
</g>
<g class="st29">
	
		<ellipse transform="matrix(0.996 -8.948764e-02 8.948764e-02 0.996 -4.9211 37.8488)" class="st30" cx="419.6" cy="73.8" rx="12.7" ry="35.8"/>
</g>
<ellipse transform="matrix(0.9668 -0.2554 0.2554 0.9668 -13.4178 208.7732)" class="st31" cx="797.1" cy="156" rx="27.4" ry="21.1"/>
<ellipse transform="matrix(0.7907 -0.6122 0.6122 0.7907 15.5998 121.5466)" class="st32" cx="185.6" cy="38" rx="40.1" ry="19"/>
</svg>
