<svg xmlns="http://www.w3.org/2000/svg" viewBox="0 0 303 225" clip-path="url(#clip)" width="843.5" height="626.3613861386139" style="max-height: 555.5px;"><defs><clipPath id="clip" clipPathUnits="objectBoundingBox"><rect x="0" y="0" width="303" height="225"/></clipPath></defs><rect x="0" y="0" width="303" height="225" fill="rgb(60, 64, 43)"/><filter id="g0.6"><feGaussianBlur stdDeviation="0.6"/></filter><filter id="g1"><feGaussianBlur stdDeviation="1"/></filter><filter id="g10"><feGaussianBlur stdDeviation="10"/></filter><path d="M175,152L300,167L311,79L186,64Z" fill="rgb(255, 245, 135)" fill-opacity="0.50"/><path d="M105,172L42,187L73,311L136,296Z" fill="rgb(255, 255, 255)" fill-opacity="0.50"/><path d="M51,37L136,37L136,215L51,215Z" fill="rgb(247, 131, 108)" fill-opacity="0.50" filter="url(#g1)"/><path d="M133,101L216,101L216,201L133,201Z" fill="rgb(69, 0, 3)" fill-opacity="0.50"/><path d="M206,129L279,228L360,167L287,68Z" fill="rgb(255, 202, 118)" fill-opacity="0.50" filter="url(#g1)"/><path d="M-62,42L-6,-3L37,-12L66,62Z" fill="rgb(224, 255, 155)" fill-opacity="0.50" filter="url(#g0.6)"/><path d="M203,89L314,32L145,-304L34,-247Z" fill="rgb(91, 161, 82)" fill-opacity="0.50" filter="url(#g1)"/><path d="M243,35L291,49L316,-31L268,-45Z" fill="rgb(150, 213, 115)" fill-opacity="0.50" filter="url(#g0.6)"/><path d="M76,190L38,214L192,450L230,426Z" fill="rgb(249, 255, 236)" fill-opacity="0.50" filter="url(#g1)"/><path d="M183,96L188,118L279,97L274,75Z" fill="rgb(255, 222, 136)" fill-opacity="0.50" filter="url(#g1)"/><path d="M226,180L128,86L170,54L207,116Z" fill="rgb(52, 2, 3)" fill-opacity="0.50"/><path d="M64,-4L235,-4L235,76L64,76Z" fill="rgb(67, 84, 50)" fill-opacity="0.50" filter="url(#g0.6)"/><path d="M106,173L91,121L120,47L148,134Z" fill="rgb(255, 112, 105)" fill-opacity="0.50" filter="url(#g1)"/><path d="M42,88L-157,104L-147,216L51,200Z" fill="rgb(0, 3, 9)" fill-opacity="0.50" filter="url(#g1)"/><path d="M121,242L79,209L90,160L138,197Z" fill="rgb(137, 130, 159)" fill-opacity="0.50" filter="url(#g1)"/><path d="M-4,59L7,32L24,31L14,51Z" fill="rgb(0, 22, 0)" fill-opacity="0.50"/><path d="M110,52L155,31L178,41L132,73Z" fill="rgb(180, 136, 86)" fill-opacity="0.50"/><path d="M76,77L95,77L95,171L76,171Z" fill="rgb(98, 9, 0)" fill-opacity="0.50" filter="url(#g1)"/><path d="M347,276L125,191L105,116L128,150Z" fill="rgb(31, 12, 20)" fill-opacity="0.50"/><path d="M1,100L44,79L87,76L60,119Z" fill="rgb(50, 118, 56)" fill-opacity="0.50" filter="url(#g1)"/><path d="M164,113L178,113L178,183L164,183Z" fill="rgb(177, 65, 63)" fill-opacity="0.50"/><ellipse cx="138" cy="-8" rx="15" ry="25" fill="rgb(136, 237, 139)" fill-opacity="0.50" transform="rotate(74.45914310395133,138,-8)"/><path d="M241,155L253,308L598,281L586,128Z" fill="rgb(133, 108, 82)" fill-opacity="0.50" filter="url(#g0.6)"/><ellipse cx="34" cy="208" rx="15" ry="23" fill="rgb(52, 92, 68)" fill-opacity="0.50" transform="rotate(63.664725242861536,34,208)"/><path d="M219,141L318,153L321,129L222,117Z" fill="rgb(255, 226, 127)" fill-opacity="0.50"/><path d="M27,106L-9,120L14,179L50,165Z" fill="rgb(0, 0, 0)" fill-opacity="0.50" filter="url(#g10)"/><path d="M194,183L33,340L139,449L300,292Z" fill="rgb(3, 14, 20)" fill-opacity="0.50"/><path d="M53,131L66,141L86,113L73,103Z" fill="rgb(255, 179, 81)" fill-opacity="0.50" filter="url(#g10)"/><path d="M190,127L191,135L345,101L344,93Z" fill="rgb(110, 74, 29)" fill-opacity="0.50" filter="url(#g1)"/></svg>