<svg id="Layer_1" data-name="Layer 1" xmlns="http://www.w3.org/2000/svg" xmlns:xlink="http://www.w3.org/1999/xlink" viewBox="0 0 796.5 173.15"><defs><style>.cls-1{fill:#736151;}.cls-2{fill:#fff;}.cls-13,.cls-15,.cls-2,.cls-27,.cls-3,.cls-30,.cls-31,.cls-35,.cls-36,.cls-37{fill-opacity:0.5;}.cls-3{fill:#1c0a00;}.cls-4{filter:url(#g10);}.cls-5{fill:#f7f5dd;}.cls-10,.cls-11,.cls-12,.cls-14,.cls-16,.cls-17,.cls-18,.cls-19,.cls-20,.cls-21,.cls-22,.cls-23,.cls-24,.cls-25,.cls-26,.cls-29,.cls-32,.cls-33,.cls-34,.cls-5,.cls-7,.cls-8,.cls-9{opacity:0.5;}.cls-6{filter:url(#g1);}.cls-7{fill:#432d23;}.cls-8{fill:#492f20;}.cls-9{fill:#e5b687;}.cls-10{fill:#d3ffff;}.cls-12{fill:#a57042;}.cls-13{fill:#d6b28b;}.cls-14{fill:#594435;}.cls-15{fill:#271e20;}.cls-16{fill:#c8a784;}.cls-17{fill:#d2fbff;}.cls-18{fill:#120c08;}.cls-19{fill:#a27958;}.cls-20{fill:#725a45;}.cls-21{fill:#322a23;}.cls-22{fill:#f9d8b5;}.cls-23{fill:#754c2a;}.cls-24{fill:#110f0f;}.cls-25{fill:#e7caa9;}.cls-26{fill:#a07f61;}.cls-28{filter:url(#g0.6);}.cls-29{fill:#000003;}.cls-30{fill:#5a4632;}.cls-31{fill:#edd6b4;}.cls-32{fill:#c79368;}.cls-33{fill:#d3f4ff;}.cls-34{fill:#f7f7da;}.cls-35{fill:#000004;}.cls-36{fill:#654e3f;}.cls-37{fill:#776148;}</style><filter id="g10" name="g10"><feGaussianBlur stdDeviation="10"/></filter><filter id="g1" name="g1"><feGaussianBlur stdDeviation="1"/></filter><filter id="g0.6" name="g0.6"><feGaussianBlur stdDeviation="0.6"/></filter></defs><rect class="cls-1" width="796.5" height="173.15"/><path class="cls-2" d="M239,169.26l464,694.94L908,724.82l-464-694.95Z"/><path class="cls-3" d="M766.63,47.79,473.92,127.44,589.41,541.62,882.12,462Z"/><g class="cls-4"><polygon class="cls-5" points="324.57 109.52 396.26 195.14 744.73 -99.56 673.04 -185.19 324.57 109.52"/></g><g class="cls-6"><polygon class="cls-7" points="61.73 45.8 63.72 266.83 302.67 260.85 300.68 39.83 61.73 45.8"/></g><g class="cls-6"><polygon class="cls-8" points="157.31 33.85 434.09 83.63 549.59 -539.63 272.8 -589.41 157.31 33.85"/></g><g class="cls-4"><polygon class="cls-9" points="543.61 0 637.2 151.34 671.05 129.43 577.46 -19.91 543.61 0"/></g><g class="cls-4"><polygon class="cls-10" points="282.76 167.26 396.26 252.89 475.91 145.36 362.41 59.74 282.76 167.26"/></g><g class="cls-6"><polygon class="cls-11" points="684.99 169.26 774.6 332.54 971.73 223.02 882.12 59.74 684.99 169.26"/></g><g class="cls-4"><polygon class="cls-12" points="613.3 75.67 1218.64 145.36 1270.42 -318.6 665.08 -388.29 613.3 75.67"/></g><g class="cls-6"><polygon class="cls-11" points="577.46 103.55 541.62 171.25 684.99 240.94 720.83 173.24 577.46 103.55"/></g><path class="cls-13" d="M647.16,95.58l-19.92,19.91L685,163.28l19.91-19.91Z"/><g class="cls-6"><polygon class="cls-14" points="27.88 1.99 -97.57 384.31 191.16 477.9 316.61 95.58 27.88 1.99"/></g><path class="cls-15" d="M260.85,69.69l31.86,51.78,137.4-89.61L398.25-17.92Z"/><g class="cls-4"><polygon class="cls-16" points="531.66 53.76 671.05 55.76 671.05 -21.9 531.66 -23.89 531.66 53.76"/></g><g class="cls-4"><polygon class="cls-17" points="330.55 91.6 -242.93 1019.52 -123.46 1091.2 448.03 163.28 330.55 91.6"/></g><g class="cls-4"><polygon class="cls-18" points="545.6 37.83 515.73 53.76 786.54 485.87 816.41 469.94 545.6 37.83"/></g><g class="cls-6"><polygon class="cls-19" points="485.87 105.54 452.01 123.46 573.48 328.56 607.33 310.63 485.87 105.54"/></g><g class="cls-6"><polygon class="cls-20" points="23.89 109.52 111.51 201.12 647.16 -306.65 559.54 -398.25 23.89 109.52"/></g><g class="cls-6"><polygon class="cls-21" points="203.11 155.32 278.77 189.17 324.57 85.62 248.91 51.77 203.11 155.32"/></g><g class="cls-6"><polygon class="cls-22" points="501.8 151.34 440.07 189.17 591.4 418.16 653.13 380.33 501.8 151.34"/></g><g class="cls-4"><polygon class="cls-23" points="677.02 5.97 780.57 113.5 1234.58 -314.62 1131.03 -422.14 677.02 5.97"/></g><g class="cls-6"><polygon class="cls-24" points="575.47 75.67 557.55 91.6 822.39 332.54 840.31 316.61 575.47 75.67"/></g><g class="cls-6"><polygon class="cls-25" points="459.98 19.91 396.26 83.63 450.02 135.41 513.74 71.69 459.98 19.91"/></g><g class="cls-6"><polygon class="cls-26" points="565.51 29.87 639.19 61.73 730.79 -153.33 657.11 -185.19 565.51 29.87"/></g><path class="cls-27" d="M764.64,103.55,714.86,244.92l294.7,97.58,49.79-141.38Z"/><g class="cls-28"><polygon class="cls-29" points="651.14 95.58 1212.67 234.97 1216.65 213.06 655.12 73.68 651.14 95.58"/></g><path class="cls-30" d="M67.7,4-444-31.86l-10,155.32L55.76,159.3Z"/><path class="cls-31" d="M436.08,71.69l49.79,17.92L611.31-244.92l-49.78-17.93Z"/><g class="cls-6"><polygon class="cls-32" points="487.86 115.49 511.75 119.47 565.51 -113.5 541.62 -117.48 487.86 115.49"/></g><g class="cls-28"><polygon class="cls-33" points="372.36 77.66 219.04 225.01 298.69 306.65 452.01 159.3 372.36 77.66"/></g><g class="cls-6"><polygon class="cls-34" points="533.65 9.96 559.54 25.89 613.3 -67.7 587.42 -83.63 533.65 9.96"/></g><path class="cls-35" d="M683,153.33l27.88,254.88,326.56-39.83L1009.56,113.5Z"/><path class="cls-36" d="M227,17.92-67.7,59.74,21.9,704.9l294.71-41.81Z"/><path class="cls-37" d="M95.58,109.52l69.69,13.94L187.18,4,117.48-8Z"/></svg>