<svg id="Layer_1" data-name="Layer 1" xmlns="http://www.w3.org/2000/svg" xmlns:xlink="http://www.w3.org/1999/xlink" viewBox="0 0 659 140.4"><defs><style>.cls-1{fill:#102675;}.cls-2{filter:url(#g1);}.cls-3{fill:#6b8eff;}.cls-10,.cls-11,.cls-12,.cls-14,.cls-15,.cls-16,.cls-17,.cls-18,.cls-20,.cls-22,.cls-23,.cls-24,.cls-25,.cls-26,.cls-27,.cls-3,.cls-33,.cls-35,.cls-5,.cls-6,.cls-9{opacity:0.5;}.cls-4{filter:url(#g10);}.cls-5{fill:#3357cb;}.cls-6{fill:#000038;}.cls-7{fill:#5b76ce;}.cls-13,.cls-19,.cls-21,.cls-28,.cls-29,.cls-30,.cls-31,.cls-32,.cls-34,.cls-36,.cls-37,.cls-7,.cls-8{fill-opacity:0.5;}.cls-8{fill:#041990;}.cls-9{fill:#9b92cc;}.cls-10{fill:#00053b;}.cls-11{fill:#103fb0;}.cls-12{fill:#1f5ec9;}.cls-13{fill:#4468c2;}.cls-14{fill:#1c3dba;}.cls-15{fill:#0a1e6f;}.cls-16{fill:#d1c1e3;}.cls-17{fill:#224bba;}.cls-18{fill:#142d93;}.cls-19{fill:#030d44;}.cls-20{fill:#04136c;}.cls-21{fill:#1a34b5;}.cls-22{fill:#4cb6ff;}.cls-23{fill:#a27359;}.cls-24{fill:#143cb8;}.cls-25{fill:#4d68a1;}.cls-26{fill:#00052e;}.cls-27{fill:#4995ea;}.cls-28{fill:#000740;}.cls-29{fill:#020a2e;}.cls-30{fill:#061562;}.cls-31{fill:#505ec7;}.cls-32{fill:#02082e;}.cls-33{fill:#4289eb;}.cls-34{fill:#122d9b;}.cls-35{fill:#215ed4;}.cls-36{fill:#071f9c;}.cls-37{fill:#061459;}</style><filter id="g1" name="g1"><feGaussianBlur stdDeviation="1"/></filter><filter id="g10" name="g10"><feGaussianBlur stdDeviation="10"/></filter></defs><rect class="cls-1" width="659" height="140.4"/><g class="cls-2"><polygon class="cls-3" points="339.38 18.12 397.05 425.06 512.37 406.93 454.71 0 339.38 18.12"/></g><g class="cls-4"><polygon class="cls-5" points="260.31 123.56 431.64 207.59 538.73 -11.53 367.39 -95.56 260.31 123.56"/></g><g class="cls-2"><polygon class="cls-6" points="189.46 11.53 -202.64 -113.68 -265.25 80.73 125.21 205.94 189.46 11.53"/></g><path class="cls-7" d="M318,102.14l90.61,28L591.45-436.59l-90.61-28Z"/><path class="cls-8" d="M97.2,107.09l240.54,77.43,54.37-168L151.57-59.31Z"/><g class="cls-4"><polygon class="cls-9" points="388.81 51.07 199.35 365.75 245.48 393.75 434.94 79.08 388.81 51.07"/></g><g class="cls-4"><polygon class="cls-10" points="593.1 14.83 527.2 62.6 733.14 344.33 799.04 296.55 593.1 14.83"/></g><g class="cls-2"><polygon class="cls-11" points="542.03 93.91 273.49 126.86 285.02 230.65 553.56 197.7 542.03 93.91"/></g><g class="cls-2"><polygon class="cls-12" points="350.92 4.94 382.22 74.14 813.87 -116.97 782.56 -186.17 350.92 4.94"/></g><path class="cls-13" d="M607.93,56l169.69,79.08L1019.8-375.63,850.11-454.71Z"/><g class="cls-2"><polygon class="cls-14" points="260.31 31.3 382.22 202.64 420.11 174.63 298.2 3.29 260.31 31.3"/></g><g class="cls-2"><polygon class="cls-15" points="449.77 34.6 416.82 217.47 736.43 271.84 769.38 88.97 449.77 34.6"/></g><g class="cls-4"><polygon class="cls-16" points="405.29 49.42 369.04 93.91 395.4 115.33 431.64 70.84 405.29 49.42"/></g><g class="cls-4"><polygon class="cls-17" points="515.67 70.84 337.74 156.51 355.86 192.76 533.79 107.09 515.67 70.84"/></g><g class="cls-4"><polygon class="cls-18" points="418.46 74.14 510.73 138.39 550.26 79.08 458 14.83 418.46 74.14"/></g><path class="cls-19" d="M581.57,56,495.9,248.77l113.68,47.78,85.66-192.76Z"/><g class="cls-2"><polygon class="cls-20" points="107.09 102.14 285.02 95.56 270.19 -431.64 92.26 -425.06 107.09 102.14"/></g><path class="cls-21" d="M324.56,37.89l-4.94,16.48,97.2,18.12L421.76,56Z"/><g class="cls-2"><rect class="cls-22" x="274.48" y="-175.55" width="268.19" height="107.28" transform="translate(453.11 302.13) rotate(-79.38)"/></g><g class="cls-2"><polygon class="cls-23" points="644.17 34.6 1141.72 703.48 1354.24 543.67 856.7 -123.56 644.17 34.6"/></g><g class="cls-4"><polygon class="cls-24" points="314.67 49.42 273.49 52.72 321.26 523.9 362.45 520.61 314.67 49.42"/></g><g class="cls-4"><polygon class="cls-25" points="476.13 9.88 551.91 26.36 647.47 -382.22 571.68 -398.69 476.13 9.88"/></g><g class="cls-2"><polygon class="cls-26" points="85.67 16.48 -314.67 -6.59 -316.32 32.95 82.38 56.02 85.67 16.48"/></g><g class="cls-2"><polygon class="cls-27" points="294.9 118.62 276.78 126.86 309.73 192.76 327.85 184.52 294.9 118.62"/></g><path class="cls-28" d="M547,64.25,593.1,75.78l52.72-201-46.13-11.53Z"/><path class="cls-29" d="M29.66,37.89-28,33-46.13,352.56l56,4.95Z"/><path class="cls-30" d="M103.79,23.06,59.31,69.19l184.52,166.4,44.48-46.13Z"/><path class="cls-31" d="M308.08,103.79l18.13,23.07L377.28,84,359.16,61Z"/><path class="cls-32" d="M627.7,113.68,808.92,238.89l238.89-347.62L866.58-233.94Z"/><g class="cls-2"><polygon class="cls-33" points="406.93 112.03 224.06 438.24 352.56 510.73 535.44 184.52 406.93 112.03"/></g><path class="cls-34" d="M400.34,117l-263.6,42.84L166.4,334.44,430,291.61Z"/><g class="cls-2"><polygon class="cls-35" points="466.24 120.27 416.82 135.09 514.02 425.06 563.45 410.23 466.24 120.27"/></g><path class="cls-36" d="M253.72,39.54,234,74.14l34.59,18.12,19.77-34.6Z"/><path class="cls-37" d="M543.68,51.07l-89,268.54,318,105.44,89-268.54Z"/></svg>