<svg id="Layer_1" data-name="Layer 1" xmlns="http://www.w3.org/2000/svg" viewBox="0 0 571 386.68"><defs><style>.cls-1{fill:#69635c;}.cls-10,.cls-11,.cls-12,.cls-13,.cls-14,.cls-15,.cls-16,.cls-17,.cls-18,.cls-19,.cls-2,.cls-20,.cls-21,.cls-22,.cls-23,.cls-24,.cls-25,.cls-26,.cls-27,.cls-28,.cls-29,.cls-3,.cls-30,.cls-4,.cls-5,.cls-6,.cls-7,.cls-8,.cls-9{fill-opacity:0.5;}.cls-3{fill:#000003;}.cls-4{fill:#fff;}.cls-5{fill:#ffefdf;}.cls-6{fill:#090000;}.cls-7{fill:#191310;}.cls-8{fill:#fffffe;}.cls-9{fill:#f7e5d7;}.cls-10{fill:#c3b19d;}.cls-11{fill:#e1cdb8;}.cls-12{fill:#a99982;}.cls-13{fill:#000a1b;}.cls-14{fill:#180b00;}.cls-15{fill:#acb0a3;}.cls-16{fill:#a6a298;}.cls-17{fill:#fff8f5;}.cls-18{fill:#2c2114;}.cls-19{fill:#26140b;}.cls-20{fill:#87583f;}.cls-21{fill:#a3ada3;}.cls-22{fill:#2b1a03;}.cls-23{fill:#622502;}.cls-24{fill:#0b1c2a;}.cls-25{fill:#ab967e;}.cls-26{fill:#4a2216;}.cls-27{fill:#00000f;}.cls-28{fill:#fffffa;}.cls-29{fill:#f8e6e1;}.cls-30{fill:#7f4d37;}</style></defs><rect class="cls-1" width="571" height="386.68"/><path class="cls-2" d="M364,255.52,708,596.7l142.75-147-344-341.17Z"/><path class="cls-3" d="M391.14,137,404,398.27l168.45-10L559.58,127.05Z"/><path class="cls-4" d="M37.12,155.6H-10L1.43,585.28H48.54Z"/><path class="cls-5" d="M188.43,2.86,108.49,58.53l155.6,215.55L344,218.41Z"/><path class="cls-6" d="M10,208.42l70,112.77,131.33-82.8-70-112.77Z"/><path class="cls-7" d="M227,7.14,385.43,326.9,498.2,269.8,339.75-48.54Z"/><path class="cls-8" d="M237,247l-47.11,4.28L202.71,394l47.1-4.28Z"/><path class="cls-9" d="M38.54,98.5-119.91,84.22l-25.7,295.5L11.42,394Z"/><path class="cls-10" d="M376.86,318.33,311.2,372.58l47.1,55.67L424,374Z"/><path class="cls-11" d="M101.35,60-114.2,207l28.55,40,214.13-147Z"/><path class="cls-12" d="M32.83,60,175.58,137,238.39,20,95.64-55.67Z"/><path class="cls-13" d="M399.7,104.21,356.88,302.63l261.23,54.25,42.82-198.43Z"/><path class="cls-14" d="M15.7,187l91.36,112.78,68.52-57.1L84.22,129.9Z"/><path class="cls-15" d="M496.77,134.19l541-132.76-18.55-75.66L478.21,57.1Z"/><path class="cls-16" d="M281.22,195.57l34.26,35.69L461.08,88.51,426.82,52.82Z"/><path class="cls-17" d="M232.68,154.17l84.23,95.64,28.55-27.12-84.23-95.64Z"/><path class="cls-18" d="M298.35,77.09,257,105.64,372.58,265.52,414,237Z"/><path class="cls-19" d="M47.11,178.44l-24.27,4.28L75.66,461.08l24.27-4.28Z"/><path class="cls-20" d="M142.75,151.32,129.9,331.18l78.52,4.28L221.26,155.6Z"/><path class="cls-21" d="M543.88,147,611,281.22,1002.11,87.08,935-45.68Z"/><path class="cls-22" d="M449.66,61.38l42.83,10,31.4-139.9-42.82-10Z"/><path class="cls-23" d="M104.21,316.91l-4.28,71.37,45.68,1.43,4.28-71.38Z"/><path class="cls-24" d="M389.71,102.78l12.85,308.34,55.67-2.85L445.38,99.93Z"/><path class="cls-25" d="M18.56,37.12,4.28,71.38l159.88,60,14.28-34.26Z"/><path class="cls-26" d="M261.23,225.55,247,555.3l40,1.43L301.2,227Z"/><path class="cls-27" d="M426.82,325.47,538.17,469.65l147-117.06L573.86,208.42Z"/><path class="cls-28" d="M282.65,151.32,187,364l24.27,10,95.64-212.7Z"/><path class="cls-29" d="M249.81,135.61l-40,22.84,61.39,102.78,40-22.84Z"/><path class="cls-30" d="M178.44,174.16l57.1,68.52,18.56-17.13L197,157Z"/></svg>