<svg id="Layer_1" data-name="Layer 1" xmlns="http://www.w3.org/2000/svg" xmlns:xlink="http://www.w3.org/1999/xlink" viewBox="0 0 571 122.36"><defs><style>.cls-1{fill:#5f5956;}.cls-2{filter:url(#g0.6);}.cls-11,.cls-12,.cls-13,.cls-26,.cls-3,.cls-7{opacity:0.5;}.cls-4{fill:#fffbec;}.cls-10,.cls-14,.cls-15,.cls-16,.cls-17,.cls-18,.cls-19,.cls-20,.cls-21,.cls-22,.cls-23,.cls-24,.cls-25,.cls-27,.cls-28,.cls-29,.cls-30,.cls-31,.cls-4,.cls-5,.cls-8,.cls-9{fill-opacity:0.5;}.cls-12,.cls-5{fill:#fff;}.cls-6{filter:url(#g1);}.cls-7{fill:#0b0000;}.cls-8{fill:#00000c;}.cls-9{fill:#efc3b1;}.cls-10{fill:#fff5ed;}.cls-11{fill:#49291b;}.cls-13{fill:#fce9d8;}.cls-14{fill:#f8e9de;}.cls-15{fill:#67392c;}.cls-16{fill:#fff8f8;}.cls-17{fill:#000111;}.cls-18{fill:#a8b6bb;}.cls-19{fill:#3f3b22;}.cls-20{fill:#cf946d;}.cls-21{fill:#e0d2c7;}.cls-23{fill:#000319;}.cls-24{fill:#000009;}.cls-25{fill:#ffd472;}.cls-26{fill:#8b6856;}.cls-27{fill:#fff0e1;}.cls-28{fill:#785347;}.cls-29{fill:#263136;}.cls-30{fill:#00050b;}.cls-31{fill:#a47e6f;}</style><filter id="g0.6" name="g0.6"><feGaussianBlur stdDeviation="0.6"/></filter><filter id="g1" name="g1"><feGaussianBlur stdDeviation="1"/></filter></defs><rect class="cls-1" width="571" height="122.36"/><g class="cls-2"><polygon class="cls-3" points="342.6 29.98 395.42 204.13 770.85 85.65 718.03 -87.08 342.6 29.98"/></g><path class="cls-4" d="M187,77.08l101.36,40L401.13-164.16l-101.35-40Z"/><path class="cls-5" d="M21.41,31.41-274.08,92.79-239.82,247,54.25,185.57Z"/><g class="cls-6"><polygon class="cls-7" points="22.84 105.64 154.17 134.19 181.29 5.71 49.96 -21.41 22.84 105.64"/></g><path class="cls-8" d="M331.18,84.22l137,141.32L613.82,81.37l-137-139.9Z"/><path class="cls-9" d="M304.06,32.83,151.32,141.32,264.09,301.2,416.83,192.71Z"/><path class="cls-10" d="M234.11,61.38,335.46,88.5l11.42-45.67L245.53,15.7Z"/><g class="cls-6"><polygon class="cls-11" points="115.63 14.28 47.11 226.97 172.73 265.51 241.25 52.82 115.63 14.28"/></g><g class="cls-2"><polygon class="cls-12" points="232.68 81.37 94.22 381.14 122.77 393.99 261.23 94.22 232.68 81.37"/></g><g class="cls-2"><polygon class="cls-13" points="22.84 57.1 -28.55 107.06 0 135.61 49.96 85.65 22.84 57.1"/></g><path class="cls-14" d="M5.71,7.14-38.54,20,20,205.56l44.25-12.85Z"/><path class="cls-15" d="M308.34,78.51,249.81,114.2l85.65,139.89L394,218.41Z"/><g class="cls-2"><polygon class="cls-3" points="129.9 74.23 1.43 135.61 65.67 271.23 194.14 209.84 129.9 74.23"/></g><path class="cls-16" d="M222.69,37.12,301.2,40l2.86-94.21L225.55-57.1Z"/><path class="cls-17" d="M568.14,92.79l-217,4.28,4.28,162.73,217-4.28Z"/><path class="cls-18" d="M558.15,42.83,896.47,77.08,907.89-48.53,569.57-82.79Z"/><path class="cls-19" d="M292.64,8.57l64.24,60,22.84-25.69L315.48-15.7Z"/><path class="cls-20" d="M182.72,25.7l31.41,12.84,25.69-67.09L208.42-41.4Z"/><path class="cls-21" d="M14.28,4.28-124.19,32.83l31.4,138.47,137-28.55Z"/><path class="cls-22" d="M79.94,12.85l31.41,35.69L349.74-169.87l-31.41-35.69Z"/><path class="cls-23" d="M502.48,5.71l-48.54,95.64,105.64,51.39L608.11,57.1Z"/><path class="cls-24" d="M399.7,8.57l17.13,45.67L766.57-84.22,749.44-129.9Z"/><path class="cls-25" d="M88.51,51.39,75.66,58.53,92.79,84.22l12.85-7.14Z"/><g class="cls-2"><polygon class="cls-26" points="175.58 11.42 138.47 29.98 187 125.62 224.12 107.06 175.58 11.42"/></g><path class="cls-27" d="M4.28,37.12,28.55,41.4,131.33-426.82l-24.27-4.28Z"/><path class="cls-28" d="M171.3,88.5,237,98.5l8.56-54.25-65.66-10Z"/><path class="cls-29" d="M459.65,10,174.16,306.91l31.4,30L491.06,40Z"/><path class="cls-30" d="M361.16,99.92l-2.86,31.41L513.9,137l2.85-31.41Z"/><path class="cls-31" d="M204.13,10,179.87,60,208.42,72.8l24.26-50Z"/></svg>