<svg id="Layer_1" data-name="Layer 1" xmlns="http://www.w3.org/2000/svg" xmlns:xlink="http://www.w3.org/1999/xlink" viewBox="0 0 924.5 629.73"><defs><style>.cls-1{fill:#86909b;}.cls-2{filter:url(#g1);}.cls-10,.cls-12,.cls-13,.cls-14,.cls-16,.cls-17,.cls-18,.cls-19,.cls-22,.cls-23,.cls-24,.cls-25,.cls-3,.cls-5,.cls-7,.cls-9{opacity:0.5;}.cls-4{fill:#090800;}.cls-11,.cls-15,.cls-20,.cls-21,.cls-26,.cls-27,.cls-28,.cls-29,.cls-30,.cls-31,.cls-32,.cls-33,.cls-34,.cls-35,.cls-36,.cls-4,.cls-6{fill-opacity:0.5;}.cls-5{fill:#202827;}.cls-6{fill:#e3e4f9;}.cls-7{fill:#dce3f4;}.cls-8{filter:url(#g10);}.cls-9{fill:#c7cfe9;}.cls-10{fill:#aebfdd;}.cls-11{fill:#292e29;}.cls-12{fill:#24261a;}.cls-13{fill:#8c9eb0;}.cls-14{fill:#bcc4db;}.cls-15{fill:#2b3029;}.cls-16{fill:#b1b6bc;}.cls-17{fill:#5b605f;}.cls-18{fill:#f8faff;}.cls-19{fill:#6b7881;}.cls-20{fill:#e1e6fd;}.cls-21{fill:#e4ffff;}.cls-22{fill:#f1f2ff;}.cls-23{fill:#1a1a11;}.cls-24{fill:#8ba2bb;}.cls-25{fill:#2c332c;}.cls-26{fill:#dfe4fd;}.cls-27{fill:#8e97a6;}.cls-28{fill:#eaebff;}.cls-29{fill:#9eadbf;}.cls-30{fill:#dee4fb;}.cls-31{fill:#4c5858;}.cls-32{fill:#c9daf8;}.cls-33{fill:#22231e;}.cls-34{fill:#1a2a25;}.cls-35{fill:#ccd8f1;}.cls-36{fill:#9caac4;}</style><filter id="g1" name="g1"><feGaussianBlur stdDeviation="1"/></filter><filter id="g10" name="g10"><feGaussianBlur stdDeviation="10"/></filter></defs><rect class="cls-1" width="924.5" height="629.73"/><g class="cls-2"><polygon class="cls-3" points="478.43 422.96 381.36 737.29 910.63 899.08 1007.71 584.75 478.43 422.96"/></g><path class="cls-4" d="M247.3,457.63l-631-50.85-20.8,258.86,628.66,50.85Z"/><g class="cls-2"><polygon class="cls-5" points="134.05 182.59 559.32 337.44 633.28 134.05 208.01 -18.49 134.05 182.59"/></g><path class="cls-6" d="M180.28,263.48,178,427.58l464.56,2.31,2.31-164.1Z"/><g class="cls-2"><polygon class="cls-7" points="166.41 106.32 436.83 610.17 501.54 573.19 231.13 69.34 166.41 106.32"/></g><g class="cls-8"><polygon class="cls-9" points="624.04 277.35 915.25 314.33 1023.88 -494.61 732.67 -531.59 624.04 277.35"/></g><g class="cls-8"><polygon class="cls-10" points="4.62 34.67 -80.89 321.26 131.74 383.67 217.26 97.07 4.62 34.67"/></g><path class="cls-11" d="M240.37,113.25,423,358.24,668,175.65,485.36-67Z"/><g class="cls-8"><polygon class="cls-12" points="850.54 469.18 362.87 619.41 446.07 892.14 933.75 741.91 850.54 469.18"/></g><g class="cls-8"><polygon class="cls-13" points="254.24 53.16 545.46 120.19 612.48 -166.41 321.26 -233.44 254.24 53.16"/></g><g class="cls-8"><polygon class="cls-14" points="734.98 455.32 945.3 584.75 1211.1 154.85 1000.77 25.42 734.98 455.32"/></g><path class="cls-15" d="M150.23,362.87-106.32,792.76-30,836.67,224.19,406.78Z"/><g class="cls-8"><polygon class="cls-16" points="429.89 522.34 -143.3 684.13 -94.76 855.16 476.12 693.38 429.89 522.34"/></g><g class="cls-2"><polygon class="cls-17" points="711.87 277.35 196.46 721.11 249.62 783.51 765.02 339.75 711.87 277.35"/></g><g class="cls-8"><polygon class="cls-18" points="644.84 18.49 802 110.94 894.45 -43.91 737.29 -136.36 644.84 18.49"/></g><g class="cls-2"><polygon class="cls-19" points="34.67 256.55 -6.93 305.08 293.53 566.26 335.13 517.72 34.67 256.55"/></g><g class="cls-8"><polygon class="cls-3" points="286.6 159.48 244.99 196.46 298.15 249.62 339.75 212.63 286.6 159.48"/></g><path class="cls-20" d="M612.48,450.69,1146.38,557l9.24-60.09L621.73,390.6Z"/><path class="cls-21" d="M492.3,492.3,436.83,520l41.6,76.27,55.47-27.73Z"/><g class="cls-2"><polygon class="cls-22" points="376.73 337.44 238.06 899.08 286.6 910.63 425.27 349 376.73 337.44"/></g><g class="cls-8"><polygon class="cls-23" points="312.02 212.63 443.76 351.31 494.61 302.77 362.87 164.1 312.02 212.63"/></g><g class="cls-8"><polygon class="cls-24" points="76.27 300.46 217.26 342.06 365.18 -140.99 224.19 -182.59 76.27 300.46"/></g><g class="cls-2"><polygon class="cls-25" points="448.38 379.05 418.34 450.69 651.77 545.46 681.82 473.81 448.38 379.05"/></g><path class="cls-26" d="M312,325.89,772,506.16l9.24-27.73L321.26,298.15Z"/><path class="cls-27" d="M725.73,247.3,989.21,480.74l268.11-300.46L993.84-50.85Z"/><path class="cls-28" d="M208,344.38l48.54,115.56L423,386,374.42,270.42Z"/><path class="cls-29" d="M381.36,464.56l87.82,6.93,11.56-117.87-87.83-6.93Z"/><path class="cls-30" d="M492.3,261.17,494.61,416l127.12-4.62-2.32-154.85Z"/><path class="cls-31" d="M815.87,446.07,774.27,557l69.34,25.42,41.6-110.94Z"/><path class="cls-32" d="M388.29,4.62,376.73,57.78l67,9.25,11.56-53.16Z"/><path class="cls-33" d="M305.08,90.14l293.53,164.1L624,208,330.51,43.91Z"/><path class="cls-34" d="M175.65,325.89l-37,18.49,39.3,67,37-18.49Z"/><path class="cls-35" d="M270.42,566.26l-62.41,67L450.69,843.61l62.41-67Z"/><path class="cls-36" d="M9.24,69.34-545.45,251.93-432.2,596.3,120.18,413.71Z"/></svg>