<svg id="Layer_1" data-name="Layer 1" xmlns="http://www.w3.org/2000/svg" xmlns:xlink="http://www.w3.org/1999/xlink" viewBox="0 0 728 154.98"><defs><style>.cls-1{fill:#2b4a92;}.cls-2{fill:#dad2ff;}.cls-10,.cls-16,.cls-17,.cls-2,.cls-22,.cls-23,.cls-24,.cls-25,.cls-26,.cls-28,.cls-32,.cls-33{fill-opacity:0.5;}.cls-3{filter:url(#g10);}.cls-4{fill:#490021;}.cls-11,.cls-12,.cls-13,.cls-14,.cls-15,.cls-18,.cls-19,.cls-20,.cls-21,.cls-27,.cls-29,.cls-31,.cls-4,.cls-5,.cls-6,.cls-7,.cls-9{opacity:0.5;}.cls-5{fill:#3a9ffb;}.cls-6{fill:#000031;}.cls-7{fill:#c33457;}.cls-8{filter:url(#g1);}.cls-9{fill:#e5c6e0;}.cls-10{fill:#000a57;}.cls-11{fill:#1f69c5;}.cls-12{fill:#00013d;}.cls-13{fill:#3568c4;}.cls-14{fill:#4aaeec;}.cls-15{fill:#b72c5b;}.cls-16{fill:#00116b;}.cls-17{fill:#000851;}.cls-18{fill:#003ca3;}.cls-19{fill:#bca3da;}.cls-20{fill:#5fb4eb;}.cls-21{fill:#88cdf5;}.cls-22{fill:#1e116c;}.cls-23{fill:#001a5e;}.cls-24{fill:#30a8f0;}.cls-25{fill:#0233a0;}.cls-26{fill:#debfd0;}.cls-27{fill:#00389f;}.cls-28{fill:#001463;}.cls-29{fill:#4f2da5;}.cls-30{filter:url(#g0.6);}.cls-31{fill:#4476c9;}.cls-32{fill:#73a8e5;}.cls-33{fill:#311878;}</style><filter id="g10" name="g10"><feGaussianBlur stdDeviation="10"/></filter><filter id="g1" name="g1"><feGaussianBlur stdDeviation="1"/></filter><filter id="g0.6" name="g0.6"><feGaussianBlur stdDeviation="0.6"/></filter></defs><rect class="cls-1" width="728" height="154.98"/><path class="cls-2" d="M262.08,52.78,469.56,293,635.18,149.24,427.7-89.18Z"/><g class="cls-3"><polygon class="cls-4" points="41.86 67.34 161.98 236.6 342.16 105.56 222.04 -61.88 41.86 67.34"/></g><g class="cls-3"><polygon class="cls-5" points="502.32 120.12 735.28 180.18 846.3 -258.44 613.34 -318.5 502.32 120.12"/></g><g class="cls-3"><polygon class="cls-6" points="34.58 0 -329.42 496.86 -36.4 707.98 325.78 211.12 34.58 0"/></g><g class="cls-3"><polygon class="cls-7" points="172.9 47.32 202.02 309.4 276.64 300.3 247.52 38.22 172.9 47.32"/></g><g class="cls-8"><polygon class="cls-9" points="387.66 67.34 422.24 516.88 546 505.96 511.42 56.42 387.66 67.34"/></g><path class="cls-10" d="M47.32,27.3l-267.54,455,344,200.2,267.54-455Z"/><g class="cls-3"><polygon class="cls-11" points="369.46 45.5 755.3 20.02 740.74 -216.58 354.9 -191.1 369.46 45.5"/></g><g class="cls-8"><polygon class="cls-12" points="176.54 1.82 -172.9 -238.42 -305.76 -43.68 41.86 194.74 176.54 1.82"/></g><g class="cls-8"><polygon class="cls-13" points="640.64 41.86 334.88 223.86 522.34 540.54 828.1 358.54 640.64 41.86"/></g><g class="cls-3"><polygon class="cls-14" points="618.8 21.84 622.44 87.36 842.66 72.8 839.02 7.28 618.8 21.84"/></g><g class="cls-3"><polygon class="cls-15" points="163.8 74.62 198.38 118.3 484.12 -107.38 449.54 -151.06 163.8 74.62"/></g><path class="cls-16" d="M302.12,129.22,131,131,136.5,409.5l171.08-1.82Z"/><path class="cls-17" d="M47.32,23.66,227.5,54.6,238.42-9.1,58.24-40Z"/><g class="cls-8"><polygon class="cls-18" points="629.72 151.06 660.66 185.64 855.4 10.92 824.46 -21.84 629.72 151.06"/></g><g class="cls-8"><polygon class="cls-19" points="311.22 94.64 373.1 96.46 380.38 -107.38 318.5 -109.2 311.22 94.64"/></g><g class="cls-8"><polygon class="cls-20" points="658.84 109.2 693.42 111.02 700.7 -40.04 666.12 -41.86 658.84 109.2"/></g><g class="cls-3"><polygon class="cls-21" points="394.94 107.38 232.96 218.4 414.96 485.94 576.94 374.92 394.94 107.38"/></g><path class="cls-22" d="M269.36,69.16-20,542.36l61.88,38.22,289.38-473.2Z"/><path class="cls-23" d="M74.62,12.74,25.48,69.16,324,320.32,373.1,263.9Z"/><path class="cls-24" d="M340.34,40l21.84,16.38L513.24-131,491.4-147.42Z"/><path class="cls-25" d="M660.66,23.66l202-32.76-54.6-316.68L606.06-293Z"/><path class="cls-26" d="M382.2,112.84,509.6,353.08l60.06-32.76L442.26,80.08Z"/><g class="cls-3"><polygon class="cls-27" points="384.02 1.82 422.24 49.14 718.9 -194.74 680.68 -242.06 384.02 1.82"/></g><path class="cls-28" d="M247.52,107.38l-353.08,728L101.92,937.3,455,209.3Z"/><g class="cls-8"><polygon class="cls-29" points="580.58 123.76 427.7 225.68 471.38 293.02 624.26 191.1 580.58 123.76"/></g><g class="cls-30"><polygon class="cls-31" points="544.18 107.38 633.36 111.02 637 5.46 547.82 1.82 544.18 107.38"/></g><path class="cls-32" d="M322.14,125.58l-40,211.12,240.24,45.5,40-211.12Z"/><path class="cls-33" d="M254.8,142l27.3,5.46L365.82-254.8l-27.3-5.46Z"/></svg>