<svg id="Layer_1" data-name="Layer 1" xmlns="http://www.w3.org/2000/svg" viewBox="0 0 728 494.1"><defs><style>.cls-1{fill:#2b4a92;}.cls-2{fill:#cfd6ff;}.cls-10,.cls-11,.cls-12,.cls-13,.cls-14,.cls-15,.cls-16,.cls-17,.cls-18,.cls-19,.cls-2,.cls-20,.cls-21,.cls-22,.cls-23,.cls-24,.cls-25,.cls-26,.cls-27,.cls-28,.cls-29,.cls-3,.cls-30,.cls-31,.cls-32,.cls-33,.cls-34,.cls-35,.cls-4,.cls-5,.cls-6,.cls-7,.cls-8,.cls-9{fill-opacity:0.5;}.cls-3{fill:#a64480;}.cls-4{fill:#00003b;}.cls-5{fill:#0f8ee4;}.cls-6{fill:#d12f59;}.cls-7{fill:#e7dff0;}.cls-8{fill:#06106a;}.cls-9{fill:#895491;}.cls-10{fill:#000f5c;}.cls-11{fill:#2c1668;}.cls-12{fill:#a43261;}.cls-13{fill:#fa484b;}.cls-14{fill:#001c75;}.cls-15{fill:#a9b3e7;}.cls-16{fill:#c6b3ec;}.cls-17{fill:#d63b6b;}.cls-18{fill:#331f72;}.cls-19{fill:#062279;}.cls-20{fill:#a1789f;}.cls-21{fill:#08206e;}.cls-22{fill:#004fb9;}.cls-23{fill:#b94289;}.cls-24{fill:#d2d8ea;}.cls-25{fill:#ff534f;}.cls-26{fill:#001d73;}.cls-27{fill:#002271;}.cls-28{fill:#080c5d;}.cls-29{fill:#7e94d0;}.cls-30{fill:#ffb3b3;}.cls-31{fill:#eb82d2;}.cls-32{fill:#ff7c52;}.cls-33{fill:#433084;}.cls-34{fill:#0850af;}.cls-35{fill:#8cc3f7;}</style></defs><rect class="cls-1" width="728" height="494.1"/><path class="cls-2" d="M231.14,51l276.64,391.3L844.48,202,567.84-187.46Z"/><path class="cls-3" d="M324,169.26,189.28,420.42l251.16,131L575.12,300.3Z"/><path class="cls-4" d="M85.54,91-394.94,256.62-247.52,673.4,231.14,507.78Z"/><path class="cls-5" d="M589.68,314.86l485.94,9.1,5.46-387.66L595.14-72.8Z"/><path class="cls-6" d="M105.56,94.64l202,43.68,45.5-218.4-202-43.68Z"/><path class="cls-7" d="M329.42,220.22,473.2,273,546,74.62,402.22,21.84Z"/><path class="cls-8" d="M87.36,234.78,265.72,402.22l92.82-100.1L180.18,134.68Z"/><path class="cls-9" d="M240.24,469.56l87.36,81.9L582.4,280.28,495,198.38Z"/><path class="cls-10" d="M74.62,9.1l-273,5.46,25.48,897.26,271.18-5.46Z"/><path class="cls-11" d="M431.34,464.1l96.46,5.46,9.1-167.44-96.46-5.46Z"/><path class="cls-12" d="M196.56,205.66,47.32,578.76,71,587.86l149.24-373.1Z"/><path class="cls-13" d="M107.38,112.84l85.54,47.32,47.32-85.54L154.7,27.3Z"/><path class="cls-14" d="M262.08,49.14,138.32,278.46l40,21.84L302.12,71Z"/><path class="cls-15" d="M475,94.64l183.82,94.64,36.4-72.8L511.42,21.84Z"/><path class="cls-16" d="M263.9,7.28l14.56,94.64,111-20L374.92-10.92Z"/><path class="cls-17" d="M109.2,305.76l3.64,67.34,96.46-5.46-3.64-67.34Z"/><path class="cls-18" d="M91,23.66,278.46,65.52l23.66-111L114.66-87.36Z"/><path class="cls-19" d="M647.92,369.46l-511.42,253L444.08,1246.7l511.42-253Z"/><path class="cls-20" d="M305.76,336.7l34.58,458.64,118.3-9.1L424.06,327.6Z"/><path class="cls-21" d="M127.4,65.52l-182,67.34L25.48,353.08l182-67.34Z"/><path class="cls-22" d="M367.64,442.26l-227.5,222,338.52,340.34,227.5-222Z"/><path class="cls-23" d="M247.52,291.2l56.42,9.1,20-111-56.42-9.1Z"/><path class="cls-24" d="M318.5,451.36,362.18,475l30.94-63.7-43.68-23.66Z"/><path class="cls-25" d="M89.18,49.14,92.82,81.9,245.7,60.06,242.06,27.3Z"/><path class="cls-26" d="M7.28,27.3-21.84,61.88l393.12,336.7L400.4,364Z"/><path class="cls-27" d="M276.64,140.14-29.12,276.64l25.48,54.6L300.3,194.74Z"/><path class="cls-28" d="M98.28,449.54l-18.2,163.8,365.82,36.4,18.2-163.8Z"/><path class="cls-29" d="M617,263.9l-23.66-1.82-5.46,791.7,23.66,1.82Z"/><path class="cls-30" d="M420.42,182,418.6,340.34h34.58L455,182Z"/><path class="cls-31" d="M298.48,209.3l78.26,72.8,18.2-21.84-78.26-72.8Z"/><path class="cls-32" d="M416.78,364l-41.86,12.74,32.76,109.2,41.86-12.74Z"/><path class="cls-33" d="M507.78,400.4l409.5,686.14,67.34-41.86L575.12,358.54Z"/><path class="cls-34" d="M653.38,309.4,766.22,789.88l169.26-40L822.64,269.36Z"/><path class="cls-35" d="M506,238.42l81.9,1.82L609.7-274.82l-81.9-1.82Z"/></svg>