<svg id="Layer_1" data-name="Layer 1" xmlns="http://www.w3.org/2000/svg" viewBox="0 0 672.5 157.62"><defs><style>.cls-1{fill:#a66f3c;}.cls-2{fill:#11120a;}.cls-10,.cls-11,.cls-12,.cls-13,.cls-14,.cls-15,.cls-16,.cls-17,.cls-18,.cls-19,.cls-2,.cls-20,.cls-21,.cls-22,.cls-23,.cls-24,.cls-25,.cls-3,.cls-4,.cls-5,.cls-6,.cls-7,.cls-8,.cls-9{fill-opacity:0.5;}.cls-3{fill:#fea339;}.cls-4{fill:#e2c077;}.cls-6{fill:#ffb12e;}.cls-7{fill:#817269;}.cls-8{fill:#cc5f04;}.cls-9{fill:#0d0706;}.cls-10{fill:#f37e0f;}.cls-11{fill:#eab35c;}.cls-12{fill:#c36e1f;}.cls-13{fill:#ffcb77;}.cls-14{fill:#db993c;}.cls-15{fill:#0e0b0e;}.cls-16{fill:#090e18;}.cls-17{fill:#8d6d50;}.cls-18{fill:#d7ab69;}.cls-19{fill:#ffee8a;}.cls-20{fill:#ffd694;}.cls-21{fill:#e98a28;}.cls-22{fill:#1d0f0f;}.cls-23{fill:#0f0e10;}.cls-24{fill:#160b04;}.cls-25{fill:#f06f0b;}</style></defs><rect class="cls-1" width="672.5" height="157.62"/><path class="cls-2" d="M84.06,23.54,351.38,275.72,479.16,137.86,211.84-112.64Z"/><path class="cls-3" d="M70.61,26.9-104.24,617l230.33,67.25L300.94,94.15Z"/><path class="cls-4" d="M322.8,25.22l440.49,79L795.23-82.38l-440.49-79Z"/><path class="cls-5" d="M314.39,47.07l-80.7,245.47L385,341.29l80.7-245.46Z"/><path class="cls-6" d="M11.77,30.26-94.15,193.34,52.12,287.49,158,124.41Z"/><path class="cls-7" d="M1.68,6.72,148,121.05,343-127.77,196.71-242.1Z"/><path class="cls-8" d="M529.59,53.8,519.51,158,686,169.81,696,65.57Z"/><path class="cls-9" d="M198.39,23.54,423.67,203.43l55.49-70.61L253.87-45.39Z"/><path class="cls-10" d="M265.64,107.6-43.71,122.73l8.4,169.81,307.67-15.13Z"/><path class="cls-11" d="M317.76,3.36,494.29,132.82,534.64,74,358.11-53.8Z"/><path class="cls-12" d="M443.85,79l85.74,331.2L860.8,324.48,775.06-5Z"/><path class="cls-13" d="M23.54,8.41-131.14,94.15l42,70.61L63.89,79Z"/><path class="cls-14" d="M227,85.74l57.16,58.85L317.76,111,260.59,52.12Z"/><path class="cls-15" d="M146.27,102.56l15.13,20.17L422-85.74l-15.13-20.18Z"/><path class="cls-16" d="M408.54,109.28l-153,33.63,20.17,95.83,153-33.63Z"/><path class="cls-17" d="M40.35,63.89l122.73,60.52L274-95.83,151.31-156.36Z"/><path class="cls-18" d="M144.59,45.39l-90.79,32,6.72,18.49,90.79-31.94Z"/><path class="cls-19" d="M82.38,21.86l15.13,42,38.67-16.82L121.05,5Z"/><path class="cls-20" d="M3.36,8.41,126.09,18.49l15.13-193.34L18.49-184.94Z"/><path class="cls-21" d="M220.24,84.06,79,173.17l94.15,151.31,141.22-89.11Z"/><path class="cls-22" d="M112.64,1.68,153,53.8l85.75-68.93L198.39-67.25Z"/><path class="cls-23" d="M427,70.61,228.65,164.76,282.45,274l198.39-94.15Z"/><path class="cls-24" d="M287.49,6.72l-37,63.89,144.58,79,37-63.89Z"/><path class="cls-25" d="M482.52,117.69,440.49,533l45.39,3.36,42-415.27Z"/></svg>