<svg xmlns="http://www.w3.org/2000/svg" viewBox="0 0 400 291.6666666666667" clip-path="url(#clip)" width="920" height="670.8333333333334" style="max-height: 580.5px;"><defs><clipPath id="clip" clipPathUnits="objectBoundingBox"><rect x="0" y="0" width="400" height="291.6666666666667"/></clipPath></defs><rect x="0" y="0" width="400" height="291.6666666666667" fill="rgb(115, 107, 85)"/><filter id="g0.6"><feGaussianBlur stdDeviation="0.6"/></filter><filter id="g1"><feGaussianBlur stdDeviation="1"/></filter><filter id="g10"><feGaussianBlur stdDeviation="10"/></filter><path d="M149,136L281,342L458,227L326,21Z" fill="rgb(215, 172, 94)" fill-opacity="0.50" filter="url(#g1)"/><path d="M315,141L348,249L445,218L412,110Z" fill="rgb(77, 54, 13)" fill-opacity="0.50"/><path d="M111,124L23,293L186,376L274,207Z" fill="rgb(192, 146, 71)" fill-opacity="0.50" filter="url(#g10)"/><path d="M335,64L202,67L205,204L338,201Z" fill="rgb(230, 201, 142)" fill-opacity="0.50"/><path d="M127,7L86,114L174,147L215,40Z" fill="rgb(64, 51, 35)" fill-opacity="0.50" filter="url(#g1)"/><path d="M158,163L128,195L208,265L238,233Z" fill="rgb(86, 49, 2)" fill-opacity="0.50" filter="url(#g10)"/><path d="M79,221L63,290L301,341L317,272Z" fill="rgb(168, 157, 141)" fill-opacity="0.50"/><path d="M49,25L-119,44L-97,221L70,202Z" fill="rgb(69, 62, 43)" fill-opacity="0.50"/><path d="M366,82L277,239L317,261L406,104Z" fill="rgb(116, 84, 24)" fill-opacity="0.50" filter="url(#g10)"/><path d="M283,280L373,384L476,294L386,190Z" fill="rgb(122, 120, 111)" fill-opacity="0.50"/><path d="M368,186L214,242L221,261L375,205Z" fill="rgb(108, 82, 41)" fill-opacity="0.50" filter="url(#g1)"/><path d="M17,27L41,114L271,48L247,-38Z" fill="rgb(89, 82, 63)" fill-opacity="0.50" filter="url(#g10)"/><path d="M80,180L-6,221L19,274L105,233Z" fill="rgb(162, 118, 38)" fill-opacity="0.50"/><path d="M270,49L41,209L58,234L287,74Z" fill="rgb(187, 149, 65)" fill-opacity="0.50" filter="url(#g10)"/><path d="M66,29L-77,100L-18,217L124,146Z" fill="rgb(91, 85, 66)" fill-opacity="0.50" filter="url(#g10)"/><path d="M48,251L-27,277L81,578L156,552Z" fill="rgb(148, 140, 133)" fill-opacity="0.50"/><path d="M83,262L83,351L228,350L228,261Z" fill="rgb(178, 164, 146)" fill-opacity="0.50" filter="url(#g10)"/><path d="M219,111L217,141L252,142L254,112Z" fill="rgb(255, 253, 215)" fill-opacity="0.50"/><path d="M167,25L272,86L321,0L216,-60Z" fill="rgb(102, 92, 66)" fill-opacity="0.50" filter="url(#g1)"/><path d="M337,38L304,41L312,118L345,115Z" fill="rgb(220, 204, 165)" fill-opacity="0.50"/><path d="M277,73L222,89L232,123L287,107Z" fill="rgb(235, 208, 145)" fill-opacity="0.50" filter="url(#g10)"/><path d="M90,130L184,151L199,80L105,59Z" fill="rgb(100, 82, 58)" fill-opacity="0.50" filter="url(#g1)"/><path d="M255,77L296,93L322,26L281,10Z" fill="rgb(148, 128, 89)" fill-opacity="0.50" filter="url(#g1)"/><path d="M31,237L29,251L300,271L302,257Z" fill="rgb(153, 126, 69)" fill-opacity="0.50"/></svg>