<?xml version="1.0" encoding="utf-8"?>
<!-- Generator: Adobe Illustrator 26.3.1, SVG Export Plug-In . SVG Version: 6.00 Build 0)  -->
<svg version="1.1" id="Layer_1" xmlns="http://www.w3.org/2000/svg" xmlns:xlink="http://www.w3.org/1999/xlink" x="0px" y="0px"
	 viewBox="0 0 616.5 127.4" style="enable-background:new 0 0 616.5 127.4;" xml:space="preserve">
<style type="text/css">
	.st0{fill:#697B92;}
	.st1{fill:#AB8358;fill-opacity:0.5;}
	.st2{filter:url(#g10);}
	.st3{opacity:0.5;fill:#DEAD71;}
	.st4{opacity:0.5;fill:#4C3C2B;}
	.st5{fill:#2971CB;fill-opacity:0.5;}
	.st6{opacity:0.5;fill:#0F0000;}
	.st7{fill-opacity:0.5;}
	.st8{opacity:0.5;fill:#478BD8;}
	.st9{filter:url(#g1);}
	.st10{opacity:0.5;fill:#246DC9;}
	.st11{opacity:0.5;fill:#F5D3A5;}
	.st12{opacity:0.5;fill:#745131;}
	.st13{opacity:0.5;fill:#B19B81;}
	.st14{opacity:0.5;fill:#FFE9C9;}
	.st15{opacity:0.5;fill:#C4B29C;}
	.st16{fill:#D9C2A1;fill-opacity:0.5;}
	.st17{fill:#7A6451;fill-opacity:0.5;}
	.st18{opacity:0.5;fill:#D2B690;}
	.st19{opacity:0.5;fill:#BAB6AE;}
	.st20{opacity:0.5;fill:#D0BDA5;}
	.st21{opacity:0.5;fill:#110704;}
	.st22{opacity:0.5;fill:#C1B3A1;}
	.st23{opacity:0.5;}
	.st24{opacity:0.5;fill:#514D50;}
	.st25{opacity:0.5;fill:#4F3D34;}
</style>
<filter  id="g10">
	<feGaussianBlur  stdDeviation="10"></feGaussianBlur>
</filter>
<filter  id="g1">
	<feGaussianBlur  stdDeviation="1"></feGaussianBlur>
</filter>
<rect x="-200" y="0" class="st0" width="1030" height="330"/>
<path class="st1" d="M87.9,63.2l251.2,303.6l279-232.7L366.8-168L87.9,63.2z"/>
<g class="st2">
	<polygon class="st3" points="115.6,43.2 -279,135.6 -184.9,530.2 208.1,437.7 	"/>
</g>
<g class="st2">
	<polygon class="st4" points="599.5,55.5 536.4,86.3 590.3,191.1 653.5,160.3 	"/>
</g>
<path class="st5" d="M342.2,32.4l295.9-13.9L633.5-57L337.5-43.2L342.2,32.4z"/>
<g class="st2">
	<polygon class="st6" points="75.5,61.6 55.5,80.1 77.1,100.2 97.1,81.7 	"/>
</g>
<path class="st7" d="M323.7,97.1L80.1,334.5L242,497.8l243.5-237.4L323.7,97.1z"/>
<g class="st2">
	<polygon class="st8" points="530.2,38.5 655,114.1 789.1,-103.3 664.3,-178.8 	"/>
</g>
<g class="st9">
	<polygon class="st10" points="183.4,9.2 510.2,17 513.2,-138.7 186.5,-146.4 	"/>
</g>
<g class="st2">
	<polygon class="st11" points="181.9,115.6 302.1,359.1 357.6,331.4 237.4,87.9 	"/>
</g>
<g class="st2">
	<polygon class="st12" points="485.5,13.9 283.6,23.1 283.6,44.7 485.5,35.4 	"/>
</g>
<g class="st9">
	<polygon class="st13" points="57,67.8 337.5,101.7 343.7,47.8 63.2,13.9 	"/>
</g>
<path class="st7" d="M160.3,100.2l-106.3,74l206.5,288.2l106.3-74L160.3,100.2z"/>
<g class="st9">
	<polygon class="st14" points="363.7,32.4 351.4,38.5 405.3,138.7 417.7,132.5 	"/>
</g>
<g class="st9">
	<polygon class="st15" points="480.9,44.7 205,43.2 203.4,70.9 479.3,72.4 	"/>
</g>
<path class="st16" d="M111,80.1l-257.4,84.8L-3.1,590.3l255.8-84.8L111,80.1z"/>
<path class="st17" d="M214.2,53.9l-1.5,32.4l302.1,10.8l1.5-32.4L214.2,53.9z"/>
<g class="st9">
	<polygon class="st18" points="402.3,115.6 505.5,316 557.9,286.7 454.7,86.3 	"/>
</g>
<g class="st2">
	<polygon class="st19" points="314.4,55.5 201.9,163.4 221.9,183.4 334.5,75.5 	"/>
</g>
<g class="st2">
	<polygon class="st20" points="382.2,15.4 363.7,17 382.2,144.9 400.7,143.3 	"/>
</g>
<g class="st9">
	<polygon class="st21" points="316,97.1 265.1,157.2 556.4,394.6 607.3,334.5 	"/>
</g>
<g class="st2">
	<polygon class="st22" points="188,37 186.5,58.6 556.4,66.3 557.9,44.7 	"/>
</g>
<g class="st9">
	<polygon class="st23" points="482.4,109.4 325.2,263.6 343.7,283.6 500.9,129.5 	"/>
</g>
<g class="st2">
	<polygon class="st24" points="30.8,4.6 203.4,46.2 251.2,-155.7 78.6,-197.3 	"/>
</g>
<g class="st9">
	<polygon class="st25" points="252.8,0 260.5,127.9 274.3,126.4 266.6,0 	"/>
</g>
</svg>
