<?xml version="1.0" encoding="utf-8"?>
<!-- Generator: Adobe Illustrator 26.3.1, SVG Export Plug-In . SVG Version: 6.00 Build 0)  -->
<svg version="1.1" id="Layer_1" xmlns="http://www.w3.org/2000/svg" xmlns:xlink="http://www.w3.org/1999/xlink" x="0px" y="0px"
	 viewBox="0 0 1016.5 262.7" style="enable-background:new 0 0 1016.5 262.7;" xml:space="preserve">
<style type="text/css">
	.st0{fill:#82858C;}
	.st1{fill:#955E2E;fill-opacity:0.5;}
	.st2{fill:#3F81D2;fill-opacity:0.5;}
	.st3{fill:#8D613B;fill-opacity:0.5;}
	.st4{fill:#170000;fill-opacity:0.5;}
	.st5{fill:#CBC5B8;fill-opacity:0.5;}
	.st6{fill:#855733;fill-opacity:0.5;}
	.st7{fill:#FFFFE9;fill-opacity:0.5;}
	.st8{fill:#3488EA;fill-opacity:0.5;}
	.st9{fill:#2C0000;fill-opacity:0.5;}
	.st10{fill:#E5C18E;fill-opacity:0.5;}
	.st11{fill:#EBCBA4;fill-opacity:0.5;}
	.st12{fill:#3C0F00;fill-opacity:0.5;}
	.st13{fill:#643C20;fill-opacity:0.5;}
	.st14{fill:#91908F;fill-opacity:0.5;}
	.st15{fill:#FFF1D2;fill-opacity:0.5;}
	.st16{fill:#7E7F85;fill-opacity:0.5;}
	.st17{fill:#B8AFA2;fill-opacity:0.5;}
	.st18{fill:#F7D6AA;fill-opacity:0.5;}
	.st19{fill:#FFDEA5;fill-opacity:0.5;}
	.st20{fill:#572D10;fill-opacity:0.5;}
	.st21{fill:#360900;fill-opacity:0.5;}
	.st22{fill:#EFCDA6;fill-opacity:0.5;}
	.st23{fill:#260100;fill-opacity:0.5;}
	.st24{fill:#336AAF;fill-opacity:0.5;}
	.st25{fill:#350600;fill-opacity:0.5;}
	.st26{fill:#FFF8E1;fill-opacity:0.5;}
	.st27{fill:#FFFFFF;fill-opacity:0.5;}
	.st28{fill:#431100;fill-opacity:0.5;}
	.st29{fill:#E7ECEF;fill-opacity:0.5;}
</style>
<rect x="122" y="-75" class="st0" width="616.5" height="412.7"/>
<path class="st1" d="M134.3,237.9l275.9,332.9l331.4-275.9L465.7-38L134.3,237.9z"/>
<path class="st2" d="M268.4-67.3l44.7,149.5L866.4-82.7l-44.7-149.5L268.4-67.3z"/>
<path class="st3" d="M408.7,20.6l20,208.1l448.5-44.7l-20-208.1L408.7,20.6z"/>
<path class="st4" d="M578.2,162.4l-12.3,131l89.4,7.7l12.3-131L578.2,162.4z"/>
<path class="st5" d="M556.6,231.7L345.5,368.9l74,114.1l211.2-137.2L556.6,231.7z"/>
<path class="st6" d="M189.8,34.4L185.2,150l168,4.6l4.6-115.6L189.8,34.4z"/>
<path class="st7" d="M532,94.5l-37,4.6l49.3,295.9l37-4.6L532,94.5z"/>
<path class="st8" d="M125.1,103.8l183.4-75.5L100.4-485L-83-409.5L125.1,103.8z"/>
<path class="st9" d="M148.2,167l-188,371.4L11,563.1l186.5-371.4L148.2,167z"/>
<path class="st10" d="M696.9,69.9l-10.8,328.3l92.5,1.5l10.8-328.3L696.9,69.9z"/>
<path class="st11" d="M576.7,63.7l226.6,359.1l29.3-20L606,43.7L576.7,63.7z"/>
<path class="st12" d="M356.3,183.9l-69.4,226.6l50.9,15.4l69.4-226.6L356.3,183.9z"/>
<path class="st13" d="M565.9,108.4l242-23.1l-7.7-78.6l-242,23.1L565.9,108.4z"/>
<path class="st14" d="M123.5,324.2l10.8,95.6l394.6-49.3l-10.8-95.6L123.5,324.2z"/>
<path class="st15" d="M353.2,193.2L223.7,365.8l18.5,13.9L371.7,207L353.2,193.2z"/>
<path class="st16" d="M706.1-34.9l-13.9,225l206.5,12.3l13.9-225L706.1-34.9z"/>
<path class="st17" d="M185.2,257.9L105,328.8l106.3,123.3l80.1-70.9L185.2,257.9z"/>
<path class="st18" d="M254.5,136.2l-67.8,46.2l27.7,40.1l67.8-46.2L254.5,136.2z"/>
<path class="st19" d="M550.5,319.6l180.3,81.7l13.9-30.8l-180.3-81.7L550.5,319.6z"/>
<path class="st20" d="M314.7,105.3L211.4,365.8l29.3,10.8l103.3-260.5L314.7,105.3z"/>
<path class="st21" d="M399.4,69.9l10.8,58.6l98.6-20l-10.8-58.6L399.4,69.9z"/>
<path class="st22" d="M316.2,130l-40.1,35.4l50.9,57l40.1-35.4L316.2,130z"/>
<path class="st23" d="M582.8,156.2l-38.5,6.2L572,304.1l38.5-6.2L582.8,156.2z"/>
<path class="st24" d="M655.3-11.8l109.4,57l44.7-86.3L700-96.6L655.3-11.8z"/>
<ellipse transform="matrix(0.9295 -0.3689 0.3689 0.9295 -62.3535 115.7545)" class="st25" cx="271.5" cy="220.9" rx="35.4" ry="38.5"/>
<ellipse transform="matrix(0.5231 -0.8523 0.8523 0.5231 -123.5629 291.9239)" class="st26" cx="199.1" cy="256.4" rx="24.7" ry="20"/>
<ellipse transform="matrix(0.9647 -0.2633 0.2633 0.9647 -22.9387 119.631)" class="st27" cx="434.9" cy="145.4" rx="35.4" ry="17"/>
<ellipse transform="matrix(0.3704 -0.9289 0.9289 0.3704 56.9843 467.3422)" class="st28" cx="373.2" cy="191.6" rx="55.5" ry="23.1"/>
<ellipse transform="matrix(0.3556 -0.9346 0.9346 0.3556 164.298 411.9752)" class="st29" cx="380.9" cy="86.8" rx="41.6" ry="15.4"/>
</svg>
