<?xml version="1.0" encoding="utf-8"?>
<!-- Generator: Adobe Illustrator 26.3.1, SVG Export Plug-In . SVG Version: 6.00 Build 0)  -->
<svg version="1.1" id="Layer_1" xmlns="http://www.w3.org/2000/svg" xmlns:xlink="http://www.w3.org/1999/xlink" x="0px" y="0px"
	 viewBox="0 0 616.5 462.7" style="enable-background:new 0 0 616.5 462.7;" xml:space="preserve">
<style type="text/css">
	.st0{fill:#82858C;}
	.st1{fill:#955E2E;fill-opacity:0.5;}
	.st2{fill:#3F81D2;fill-opacity:0.5;}
	.st3{fill:#8D613B;fill-opacity:0.5;}
	.st4{fill:#170000;fill-opacity:0.5;}
	.st5{fill:#CBC5B8;fill-opacity:0.5;}
	.st6{fill:#855733;fill-opacity:0.5;}
	.st7{fill:#FFFFE9;fill-opacity:0.5;}
	.st8{fill:#3488EA;fill-opacity:0.5;}
	.st9{fill:#2C0000;fill-opacity:0.5;}
	.st10{fill:#E5C18E;fill-opacity:0.5;}
	.st11{fill:#EBCBA4;fill-opacity:0.5;}
	.st12{fill:#3C0F00;fill-opacity:0.5;}
	.st13{fill:#643C20;fill-opacity:0.5;}
	.st14{fill:#91908F;fill-opacity:0.5;}
	.st15{fill:#FFF1D2;fill-opacity:0.5;}
	.st16{fill:#7E7F85;fill-opacity:0.5;}
	.st17{fill:#B8AFA2;fill-opacity:0.5;}
	.st18{fill:#F7D6AA;fill-opacity:0.5;}
	.st19{fill:#FFDEA5;fill-opacity:0.5;}
	.st20{fill:#572D10;fill-opacity:0.5;}
	.st21{fill:#360900;fill-opacity:0.5;}
	.st22{fill:#EFCDA6;fill-opacity:0.5;}
	.st23{fill:#260100;fill-opacity:0.5;}
	.st24{fill:#336AAF;fill-opacity:0.5;}
	.st25{fill:#350600;fill-opacity:0.5;}
	.st26{fill:#FFF8E1;fill-opacity:0.5;}
	.st27{fill:#FFFFFF;fill-opacity:0.5;}
	.st28{fill:#431100;fill-opacity:0.5;}
	.st29{fill:#E7ECEF;fill-opacity:0.5;}
</style>
<rect y="25" class="st0" width="616.5" height="412.7"/>
<path class="st1" d="M12.3,337.9l275.9,332.9l331.4-275.9L343.7,62L12.3,337.9z"/>
<path class="st2" d="M146.4,32.7l44.7,149.5L744.4,17.3l-44.7-149.5L146.4,32.7z"/>
<path class="st3" d="M286.7,120.6l20,208.1l448.5-44.7l-20-208.1L286.7,120.6z"/>
<path class="st4" d="M456.2,262.4l-12.3,131l89.4,7.7l12.3-131L456.2,262.4z"/>
<path class="st5" d="M434.6,331.7L223.5,468.9l74,114.1l211.2-137.2L434.6,331.7z"/>
<path class="st6" d="M67.8,134.4L63.2,250l168,4.6l4.6-115.6L67.8,134.4z"/>
<path class="st7" d="M410,194.5l-37,4.6l49.3,295.9l37-4.6L410,194.5z"/>
<path class="st8" d="M3.1,203.8l183.4-75.5L-21.6-385L-205-309.5L3.1,203.8z"/>
<path class="st9" d="M26.2,267l-188,371.4l50.9,24.7L75.5,291.6L26.2,267z"/>
<path class="st10" d="M574.9,169.9l-10.8,328.3l92.5,1.5l10.8-328.3L574.9,169.9z"/>
<path class="st11" d="M454.7,163.7l226.6,359.1l29.3-20L484,143.7L454.7,163.7z"/>
<path class="st12" d="M234.3,283.9l-69.4,226.6l50.9,15.4l69.4-226.6L234.3,283.9z"/>
<path class="st13" d="M443.9,208.4l242-23.1l-7.7-78.6l-242,23.1L443.9,208.4z"/>
<path class="st14" d="M1.5,424.2l10.8,95.6l394.6-49.3l-10.8-95.6L1.5,424.2z"/>
<path class="st15" d="M231.2,293.2L101.7,465.8l18.5,13.9L249.7,307L231.2,293.2z"/>
<path class="st16" d="M584.1,65.1l-13.9,225l206.5,12.3l13.9-225L584.1,65.1z"/>
<path class="st17" d="M63.2,357.9L-17,428.8L89.4,552.1l80.1-70.9L63.2,357.9z"/>
<path class="st18" d="M132.5,236.2l-67.8,46.2l27.7,40.1l67.8-46.2L132.5,236.2z"/>
<path class="st19" d="M428.5,419.6l180.3,81.7l13.9-30.8l-180.3-81.7L428.5,419.6z"/>
<path class="st20" d="M192.7,205.3L89.4,465.8l29.3,10.8l103.3-260.5L192.7,205.3z"/>
<path class="st21" d="M277.4,169.9l10.8,58.6l98.6-20l-10.8-58.6L277.4,169.9z"/>
<path class="st22" d="M194.2,230l-40.1,35.4l50.9,57l40.1-35.4L194.2,230z"/>
<path class="st23" d="M460.8,256.2l-38.5,6.2L450,404.1l38.5-6.2L460.8,256.2z"/>
<path class="st24" d="M533.3,88.2l109.4,57l44.7-86.3L578,3.4L533.3,88.2z"/>
<ellipse transform="matrix(0.9295 -0.3689 0.3689 0.9295 -107.8549 77.7982)" class="st25" cx="149.5" cy="320.9" rx="35.4" ry="38.5"/>
<ellipse transform="matrix(0.5231 -0.8523 0.8523 0.5231 -266.9747 235.6372)" class="st26" cx="77.1" cy="356.4" rx="24.7" ry="20"/>
<ellipse transform="matrix(0.9647 -0.2633 0.2633 0.9647 -53.573 91.0374)" class="st27" cx="312.9" cy="245.4" rx="35.4" ry="17"/>
<ellipse transform="matrix(0.3704 -0.9289 0.9289 0.3704 -112.7191 416.9813)" class="st28" cx="251.2" cy="291.6" rx="55.5" ry="23.1"/>
<ellipse transform="matrix(0.3556 -0.9346 0.9346 0.3556 -7.7749 362.3867)" class="st29" cx="258.9" cy="186.8" rx="41.6" ry="15.4"/>
</svg>
