<svg id="Layer_1" data-name="Layer 1" xmlns="http://www.w3.org/2000/svg" xmlns:xlink="http://www.w3.org/1999/xlink" viewBox="0 0 772.5 163.41"><defs><style>.cls-1{fill:#817412;}.cls-2{filter:url(#g10);}.cls-3{fill:#39411c;}.cls-11,.cls-12,.cls-15,.cls-16,.cls-17,.cls-18,.cls-19,.cls-21,.cls-23,.cls-24,.cls-25,.cls-27,.cls-3,.cls-6,.cls-7,.cls-8{opacity:0.5;}.cls-4{fill:#3e431c;}.cls-10,.cls-13,.cls-14,.cls-20,.cls-22,.cls-26,.cls-28,.cls-29,.cls-30,.cls-31,.cls-32,.cls-33,.cls-34,.cls-35,.cls-36,.cls-37,.cls-4,.cls-9{fill-opacity:0.5;}.cls-5{filter:url(#g1);}.cls-6{fill:#cfa300;}.cls-7{fill:#87881f;}.cls-8{fill:#2e2f19;}.cls-9{fill:#897005;}.cls-10{fill:#22200f;}.cls-11{fill:#9b8108;}.cls-12{fill:#a09816;}.cls-13{fill:#464410;}.cls-14{fill:#1b1c16;}.cls-15{fill:#b79706;}.cls-16{fill:#d0ab05;}.cls-17{fill:#707220;}.cls-18{fill:#343525;}.cls-19{fill:#1f221f;}.cls-20{fill:#7c6909;}.cls-21{fill:#262619;}.cls-22{fill:#655208;}.cls-23{fill:#71701a;}.cls-24{fill:#34361b;}.cls-25{fill:#454210;}.cls-26{fill:#c5af0c;}.cls-27{fill:#75731b;}.cls-28{fill:#a19b1b;}.cls-29{fill:#957c08;}.cls-30{fill:#9a870c;}.cls-31{fill:#8b720b;}.cls-32{fill:#73610b;}.cls-33{fill:#8e7a0c;}.cls-34{fill:#413c16;}.cls-35{fill:#3f421b;}.cls-36{fill:#353819;}.cls-37{fill:#a3890a;}</style><filter id="g10" name="g10"><feGaussianBlur stdDeviation="10"/></filter><filter id="g1" name="g1"><feGaussianBlur stdDeviation="1"/></filter></defs><rect class="cls-1" width="772.5" height="163.41"/><g class="cls-2"><polygon class="cls-3" points="417.15 61.8 411.36 633.45 768.64 635.38 774.43 63.73 417.15 61.8"/></g><path class="cls-4" d="M324.45,40.56-3.86,94.63l81.11,479,328.31-54.07Z"/><g class="cls-5"><rect class="cls-6" x="469.77" y="-425.79" width="319.64" height="587" transform="translate(711.75 505.78) rotate(-85.47)"/></g><g class="cls-2"><polygon class="cls-7" points="9.66 142.91 28.97 339.9 496.33 289.69 477.02 92.7 9.66 142.91"/></g><g class="cls-2"><polygon class="cls-8" points="270.38 65.66 262.65 104.29 411.36 127.46 419.08 88.84 270.38 65.66"/></g><path class="cls-9" d="M170,61.8l224,29L450-338l-224-29Z"/><path class="cls-10" d="M102.36,56-3.86,100.42l19.31,44.42,106.22-44.42Z"/><g class="cls-2"><polygon class="cls-11" points="361.14 81.11 486.68 92.7 531.09 -341.83 405.56 -353.42 361.14 81.11"/></g><g class="cls-2"><polygon class="cls-12" points="137.12 112.01 -34.76 152.57 42.49 465.43 214.37 424.88 137.12 112.01"/></g><path class="cls-13" d="M641.17,150.64l280,168L992.66,197l-280-168Z"/><path class="cls-14" d="M160.29,77.25-83,115.87l7.72,38.63,241.41-38.63Z"/><g class="cls-5"><polygon class="cls-15" points="587.1 46.35 693.32 77.25 755.12 -137.12 648.9 -168.02 587.1 46.35"/></g><g class="cls-5"><polygon class="cls-16" points="749.33 88.84 867.13 79.18 838.16 -349.56 720.36 -339.9 749.33 88.84"/></g><g class="cls-2"><polygon class="cls-17" points="349.56 121.67 345.69 162.22 789.88 193.13 793.74 152.57 349.56 121.67"/></g><g class="cls-5"><polygon class="cls-18" points="392.04 108.15 392.04 115.88 679.8 75.32 679.8 67.59 392.04 108.15"/></g><g class="cls-5"><polygon class="cls-19" points="303.21 67.59 125.53 90.77 129.39 129.39 307.07 106.22 303.21 67.59"/></g><path class="cls-20" d="M23.17,81.11,382.39,83l1.93-338L25.11-256.86Z"/><g class="cls-5"><polygon class="cls-21" points="181.54 73.39 -310.93 112.01 -307.07 140.98 183.47 102.36 181.54 73.39"/></g><path class="cls-22" d="M1.93,40.56l185.4,11.58L202.78-197,17.38-208.57Z"/><g class="cls-5"><polygon class="cls-23" points="374.66 102.36 374.66 264.58 550.41 262.65 550.41 100.42 374.66 102.36"/></g><g class="cls-2"><polygon class="cls-24" points="254.93 77.25 254.93 113.94 440.32 108.15 440.32 71.46 254.93 77.25"/></g><g class="cls-2"><polygon class="cls-25" points="637.31 79.18 637.31 137.12 888.38 133.26 888.38 75.32 637.31 79.18"/></g><path class="cls-26" d="M426.81,71.46,424.87,83l57.94,7.73,1.93-11.59Z"/><g class="cls-2"><polygon class="cls-27" points="312.86 112.01 328.31 365.01 513.71 353.42 498.26 100.42 312.86 112.01"/></g><path class="cls-28" d="M3.86,135.19l-27,226,160.29,19.32,27-226Z"/><path class="cls-29" d="M392,46.35,633.45,67.59l7.72-106.21L399.77-59.87Z"/><path class="cls-30" d="M336,38.62,3.86,57.94l1.93,29L338,67.59Z"/><path class="cls-31" d="M94.63,13.52l380.46,29,40.55-517.58-380.45-29Z"/><path class="cls-32" d="M127.46,54.07H336V-411.36H127.46Z"/><path class="cls-33" d="M291.62,69.52,392,94.63,442.26-94.63,341.83-119.74Z"/><path class="cls-34" d="M461.57,44.42l-1.93,5.79L619.93,96.56l1.93-5.79Z"/><path class="cls-35" d="M291.62,144.84l-139,330.25L724.22,714.56l139-330.24Z"/><path class="cls-36" d="M200.85,152.57,154.5,446.12,724.22,533l46.35-293.55Z"/><path class="cls-37" d="M480.88,0l56,79.18L633.45,7.72l-56-77.24Z"/></svg>